<svg version="1.1" xmlns="http://www.w3.org/2000/svg" xmlns:xlink="http://www.w3.org/1999/xlink" width="484.90221" height="246.63868" viewBox="0,0,484.90221,246.63868"><g transform="translate(0.68654,-118.86529)"><g data-paper-data="{&quot;isPaintingLayer&quot;:true}" fill-rule="nonzero" stroke="none" stroke-linecap="butt" stroke-linejoin="miter" stroke-miterlimit="10" stroke-dasharray="" stroke-dashoffset="0" style="mix-blend-mode: normal"><path d="M389.30788,363.72671v-244.86142h94.90779v244.86143z" fill="#714400" stroke-width="0"/><path d="M284.63696,219.14528v-10.66965h55.75033v10.66965z" fill="#714400" stroke-width="0"/><path d="M-0.48953,148.63183v-26.48325h234.97104v26.48325z" fill="#714400" stroke-width="0"/><path d="M339.33682,130.01675v-10.66965h55.75033v10.66965z" fill="#714400" stroke-width="0"/><path d="M413.73503,164.15204c0,-0.69036 0.55964,-1.25 1.25,-1.25c0.69036,0 1.25,0.55964 1.25,1.25c0,0.69036 -0.55964,1.25 -1.25,1.25c-0.69036,0 -1.25,-0.55964 -1.25,-1.25z" fill="#553300" stroke-width="0.5"/><path d="M441.59708,156.62176c0,-0.69036 0.55964,-1.25 1.25,-1.25c0.69036,0 1.25,0.55964 1.25,1.25c0,0.69036 -0.55964,1.25 -1.25,1.25c-0.69036,0 -1.25,-0.55964 -1.25,-1.25z" fill="#553300" stroke-width="0.5"/><path d="M470.21215,260.53966c0,-0.69036 0.55964,-1.25 1.25,-1.25c0.69036,0 1.25,0.55964 1.25,1.25c0,0.69036 -0.55964,1.25 -1.25,1.25c-0.69036,0 -1.25,-0.55964 -1.25,-1.25z" fill="#553300" stroke-width="0.5"/><path d="M413.73503,215.35796c0,-0.69036 0.55964,-1.25 1.25,-1.25c0.69036,0 1.25,0.55964 1.25,1.25c0,0.69036 -0.55964,1.25 -1.25,1.25c-0.69036,0 -1.25,-0.55964 -1.25,-1.25z" fill="#553300" stroke-width="0.5"/><path d="M442.35011,210.83979c0,-0.69036 0.55964,-1.25 1.25,-1.25c0.69036,0 1.25,0.55964 1.25,1.25c0,0.69036 -0.55964,1.25 -1.25,1.25c-0.69036,0 -1.25,-0.55964 -1.25,-1.25z" fill="#553300" stroke-width="0.5"/><path d="M422.77137,304.96832c0,-0.69036 0.55964,-1.25 1.25,-1.25c0.69036,0 1.25,0.55964 1.25,1.25c0,0.69036 -0.55964,1.25 -1.25,1.25c-0.69036,0 -1.25,-0.55964 -1.25,-1.25z" fill="#553300" stroke-width="0.5"/><path d="M449.12736,333.58339c0,-0.69036 0.55964,-1.25 1.25,-1.25c0.69036,0 1.25,0.55964 1.25,1.25c0,0.69036 -0.55964,1.25 -1.25,1.25c-0.69036,0 -1.25,-0.55964 -1.25,-1.25z" fill="#553300" stroke-width="0.5"/><path d="M432.56074,262.79874c0,-0.69036 0.55964,-1.25 1.25,-1.25c0.69036,0 1.25,0.55964 1.25,1.25c0,0.69036 -0.55964,1.25 -1.25,1.25c-0.69036,0 -1.25,-0.55964 -1.25,-1.25z" fill="#553300" stroke-width="0.5"/><path d="M19.14825,134.78394c0,-0.69036 0.55964,-1.25 1.25,-1.25c0.69036,0 1.25,0.55964 1.25,1.25c0,0.69036 -0.55964,1.25 -1.25,1.25c-0.69036,0 -1.25,-0.55964 -1.25,-1.25z" fill="#553300" stroke-width="0.5"/><path d="M85.41473,126.50063c0,-0.69036 0.55964,-1.25 1.25,-1.25c0.69036,0 1.25,0.55964 1.25,1.25c0,0.69036 -0.55964,1.25 -1.25,1.25c-0.69036,0 -1.25,-0.55964 -1.25,-1.25z" fill="#553300" stroke-width="0.5"/><path d="M43.99818,136.29c0,-0.69036 0.55964,-1.25 1.25,-1.25c0.69036,0 1.25,0.55964 1.25,1.25c0,0.69036 -0.55964,1.25 -1.25,1.25c-0.69036,0 -1.25,-0.55964 -1.25,-1.25z" fill="#553300" stroke-width="0.5"/><path d="M92.94501,145.32634c0,-0.69036 0.55964,-1.25 1.25,-1.25c0.69036,0 1.25,0.55964 1.25,1.25c0,0.69036 -0.55964,1.25 -1.25,1.25c-0.69036,0 -1.25,-0.55964 -1.25,-1.25z" fill="#553300" stroke-width="0.5"/><path d="M128.33734,129.51275c0,-0.69036 0.55964,-1.25 1.25,-1.25c0.69036,0 1.25,0.55964 1.25,1.25c0,0.69036 -0.55964,1.25 -1.25,1.25c-0.69036,0 -1.25,-0.55964 -1.25,-1.25z" fill="#553300" stroke-width="0.5"/><path d="M150.92819,142.31423c0,-0.69036 0.55964,-1.25 1.25,-1.25c0.69036,0 1.25,0.55964 1.25,1.25c0,0.69036 -0.55964,1.25 -1.25,1.25c-0.69036,0 -1.25,-0.55964 -1.25,-1.25z" fill="#553300" stroke-width="0.5"/><path d="M207.4053,132.52486c0,-0.69036 0.55964,-1.25 1.25,-1.25c0.69036,0 1.25,0.55964 1.25,1.25c0,0.69036 -0.55964,1.25 -1.25,1.25c-0.69036,0 -1.25,-0.55964 -1.25,-1.25z" fill="#553300" stroke-width="0.5"/><path d="M297.76869,212.34585c0,-0.69036 0.55964,-1.25 1.25,-1.25c0.69036,0 1.25,0.55964 1.25,1.25c0,0.69036 -0.55964,1.25 -1.25,1.25c-0.69036,0 -1.25,-0.55964 -1.25,-1.25z" fill="#553300" stroke-width="0.5"/><path d="M311.3232,216.86402c0,-0.69036 0.55964,-1.25 1.25,-1.25c0.69036,0 1.25,0.55964 1.25,1.25c0,0.69036 -0.55964,1.25 -1.25,1.25c-0.69036,0 -1.25,-0.55964 -1.25,-1.25z" fill="#553300" stroke-width="0.5"/><path d="M326.38376,213.85191c0,-0.69036 0.55964,-1.25 1.25,-1.25c0.69036,0 1.25,0.55964 1.25,1.25c0,0.69036 -0.55964,1.25 -1.25,1.25c-0.69036,0 -1.25,-0.55964 -1.25,-1.25z" fill="#553300" stroke-width="0.5"/><path d="M344.45644,121.98246c0,-0.69036 0.55964,-1.25 1.25,-1.25c0.69036,0 1.25,0.55964 1.25,1.25c0,0.69036 -0.55964,1.25 -1.25,1.25c-0.69036,0 -1.25,-0.55964 -1.25,-1.25z" fill="#553300" stroke-width="0.5"/><path d="M379.95771,124.04754c-0.55902,1.11803 -1.67705,0.55902 -1.67705,0.55902l-1.50606,-0.75303c0,0 -1.11803,-0.55902 -0.55902,-1.67705c0.55902,-1.11803 1.67705,-0.55902 1.67705,-0.55902l1.50606,0.75303c0,0 1.11803,0.55902 0.55902,1.67705z" fill="#553300" stroke-width="0.5"/><path d="M400.18053,128.75972c0,-0.69036 0.55964,-1.25 1.25,-1.25c0.69036,0 1.25,0.55964 1.25,1.25c0,0.69036 -0.55964,1.25 -1.25,1.25c-0.69036,0 -1.25,-0.55964 -1.25,-1.25z" fill="#553300" stroke-width="0.5"/><path d="M26.93459,137.79606c0,-1.38071 1.11929,-2.5 2.5,-2.5c1.38071,0 2.5,1.11929 2.5,2.5c0,1.38071 -1.11929,2.5 -2.5,2.5c-1.38071,0 -2.5,-1.11929 -2.5,-2.5z" fill="#553300" stroke-width="0.5"/><path d="M75.12839,134.78394c0,-1.38071 1.11929,-2.5 2.5,-2.5c1.38071,0 2.5,1.11929 2.5,2.5c0,1.38071 -1.11929,2.5 -2.5,2.5c-1.38071,0 -2.5,-1.11929 -2.5,-2.5z" fill="#553300" stroke-width="0.5"/><path d="M118.80403,136.29c0,-1.38071 1.11929,-2.5 2.5,-2.5c1.38071,0 2.5,1.11929 2.5,2.5c0,1.38071 -1.11929,2.5 -2.5,2.5c-1.38071,0 -2.5,-1.11929 -2.5,-2.5z" fill="#553300" stroke-width="0.5"/><path d="M152.6903,130.26577c0,-1.38071 1.11929,-2.5 2.5,-2.5c1.38071,0 2.5,1.11929 2.5,2.5c0,1.38071 -1.11929,2.5 -2.5,2.5c-1.38071,0 -2.5,-1.11929 -2.5,-2.5z" fill="#553300" stroke-width="0.5"/><path d="M172.26903,138.54908c0,-1.38071 1.11929,-2.5 2.5,-2.5c1.38071,0 2.5,1.11929 2.5,2.5c0,1.38071 -1.11929,2.5 -2.5,2.5c-1.38071,0 -2.5,-1.11929 -2.5,-2.5z" fill="#553300" stroke-width="0.5"/><path d="M407.21384,284.63656c0,-1.38071 1.11929,-2.5 2.5,-2.5c1.38071,0 2.5,1.11929 2.5,2.5c0,1.38071 -1.11929,2.5 -2.5,2.5c-1.38071,0 -2.5,-1.11929 -2.5,-2.5z" fill="#553300" stroke-width="0.5"/><path d="M444.11222,292.91987c0,-1.38071 1.11929,-2.5 2.5,-2.5c1.38071,0 2.5,1.11929 2.5,2.5c0,1.38071 -1.11929,2.5 -2.5,2.5c-1.38071,0 -2.5,-1.11929 -2.5,-2.5z" fill="#553300" stroke-width="0.5"/><path d="M413.99109,333.58339c0,-1.38071 1.11929,-2.5 2.5,-2.5c1.38071,0 2.5,1.11929 2.5,2.5c0,1.38071 -1.11929,2.5 -2.5,2.5c-1.38071,0 -2.5,-1.11929 -2.5,-2.5z" fill="#553300" stroke-width="0.5"/><path d="M409.47292,248.4912c0,-1.38071 1.11929,-2.5 2.5,-2.5c1.38071,0 2.5,1.11929 2.5,2.5c0,1.38071 -1.11929,2.5 -2.5,2.5c-1.38071,0 -2.5,-1.11929 -2.5,-2.5z" fill="#553300" stroke-width="0.5"/><path d="M440.34708,236.44275c0,-1.38071 1.11929,-2.5 2.5,-2.5c1.38071,0 2.5,1.11929 2.5,2.5c0,1.38071 -1.11929,2.5 -2.5,2.5c-1.38071,0 -2.5,-1.11929 -2.5,-2.5z" fill="#553300" stroke-width="0.5"/><path d="M417.0032,185.98986c0,-1.38071 1.11929,-2.5 2.5,-2.5c1.38071,0 2.5,1.11929 2.5,2.5c0,1.38071 -1.11929,2.5 -2.5,2.5c-1.38071,0 -2.5,-1.11929 -2.5,-2.5z" fill="#553300" stroke-width="0.5"/><path d="M457.66673,167.16416c0,-1.38071 1.11929,-2.5 2.5,-2.5c1.38071,0 2.5,1.11929 2.5,2.5c0,1.38071 -1.11929,2.5 -2.5,2.5c-1.38071,0 -2.5,-1.11929 -2.5,-2.5z" fill="#553300" stroke-width="0.5"/><path d="M431.31074,138.54908c0,-1.38071 1.11929,-2.5 2.5,-2.5c1.38071,0 2.5,1.11929 2.5,2.5c0,1.38071 -1.11929,2.5 -2.5,2.5c-1.38071,0 -2.5,-1.11929 -2.5,-2.5z" fill="#553300" stroke-width="0.5"/><path d="M459.92581,310.99255c0,-1.38071 1.11929,-2.5 2.5,-2.5c1.38071,0 2.5,1.11929 2.5,2.5c0,1.38071 -1.11929,2.5 -2.5,2.5c-1.38071,0 -2.5,-1.11929 -2.5,-2.5z" fill="#553300" stroke-width="0.5"/><path d="M361.27912,125.7476c0,-1.38071 1.11929,-2.5 2.5,-2.5c1.38071,0 2.5,1.11929 2.5,2.5c0,1.38071 -1.11929,2.5 -2.5,2.5c-1.38071,0 -2.5,-1.11929 -2.5,-2.5z" fill="#553300" stroke-width="0.5"/><path d="M408.97595,356.92727c0,-2.07107 1.67893,-3.75 3.75,-3.75c2.07107,0 3.75,1.67893 3.75,3.75c0,2.07107 -1.67893,3.75 -3.75,3.75c-2.07107,0 -3.75,-1.67893 -3.75,-3.75z" fill="#553300" stroke-width="0.5"/><path d="M391.22674,314.75769c0,-2.07107 1.67893,-3.75 3.75,-3.75c2.07107,0 3.75,1.67893 3.75,3.75c0,2.07107 -1.67893,3.75 -3.75,3.75c-2.07107,0 -3.75,-1.67893 -3.75,-3.75z" fill="#553300" stroke-width="0.5"/><path d="M425.54257,319.27586c0,-2.07107 1.67893,-3.75 3.75,-3.75c2.07107,0 3.75,1.67893 3.75,3.75c0,2.07107 -1.67893,3.75 -3.75,3.75c-2.07107,0 -3.75,-1.67893 -3.75,-3.75z" fill="#553300" stroke-width="0.5"/><path d="M459.42884,276.35325c0,-2.07107 1.67893,-3.75 3.75,-3.75c2.07107,0 3.75,1.67893 3.75,3.75c0,2.07107 -1.67893,3.75 -3.75,3.75c-2.07107,0 -3.75,-1.67893 -3.75,-3.75z" fill="#553300" stroke-width="0.5"/><path d="M446.62736,219.1231c0,-2.07107 1.67893,-3.75 3.75,-3.75c2.07107,0 3.75,1.67893 3.75,3.75c0,2.07107 -1.67893,3.75 -3.75,3.75c-2.07107,0 -3.75,-1.67893 -3.75,-3.75z" fill="#553300" stroke-width="0.5"/><path d="M441.35616,179.21261c0,-2.07107 1.67893,-3.75 3.75,-3.75c2.07107,0 3.75,1.67893 3.75,3.75c0,2.07107 -1.67893,3.75 -3.75,3.75c-2.07107,0 -3.75,-1.67893 -3.75,-3.75z" fill="#553300" stroke-width="0.5"/><path d="M399.93961,189.755c0,-2.07107 1.67893,-3.75 3.75,-3.75c2.07107,0 3.75,1.67893 3.75,3.75c0,2.07107 -1.67893,3.75 -3.75,3.75c-2.07107,0 -3.75,-1.67893 -3.75,-3.75z" fill="#553300" stroke-width="0.5"/><path d="M448.13342,138.54908c0,-2.07107 1.67893,-3.75 3.75,-3.75c2.07107,0 3.75,1.67893 3.75,3.75c0,2.07107 -1.67893,3.75 -3.75,3.75c-2.07107,0 -3.75,-1.67893 -3.75,-3.75z" fill="#553300" stroke-width="0.5"/><path d="M402.1987,147.58542c0,-2.07107 1.67893,-3.75 3.75,-3.75c2.07107,0 3.75,1.67893 3.75,3.75c0,2.07107 -1.67893,3.75 -3.75,3.75c-2.07107,0 -3.75,-1.67893 -3.75,-3.75z" fill="#553300" stroke-width="0.5"/><path d="M184.57354,140.05514c0,-2.07107 1.67893,-3.75 3.75,-3.75c2.07107,0 3.75,1.67893 3.75,3.75c0,2.07107 -1.67893,3.75 -3.75,3.75c-2.07107,0 -3.75,-1.67893 -3.75,-3.75z" fill="#553300" stroke-width="0.5"/><path d="M454.15764,349.39699c0,-2.07107 1.67893,-3.75 3.75,-3.75c2.07107,0 3.75,1.67893 3.75,3.75c0,2.07107 -1.67893,3.75 -3.75,3.75c-2.07107,0 -3.75,-1.67893 -3.75,-3.75z" fill="#553300" stroke-width="0.5"/><path d="M411.23503,271.83508c0,-2.07107 1.67893,-3.75 3.75,-3.75c2.07107,0 3.75,1.67893 3.75,3.75c0,2.07107 -1.67893,3.75 -3.75,3.75c-2.07107,0 -3.75,-1.67893 -3.75,-3.75z" fill="#553300" stroke-width="0.5"/><path d="M405.21081,228.91247c0,-2.07107 1.67893,-3.75 3.75,-3.75c2.07107,0 3.75,1.67893 3.75,3.75c0,2.07107 -1.67893,3.75 -3.75,3.75c-2.07107,0 -3.75,-1.67893 -3.75,-3.75z" fill="#553300" stroke-width="0.5"/><path d="M-0.68654,129.51275v-7.53028h234.9448v7.53028z" fill="#ffffff" stroke-width="0"/><path d="M338.17616,129.51275v-10.54239h145.33445v10.5424z" fill="#ffffff" stroke-width="0"/><path d="M284.71116,211.59282v-3.76514h55.72409v3.76514z" fill="#ffffff" stroke-width="0"/><g><path d="M0.36959,365.50396v-79.19522h314.79203v12.16715c-0.18664,0.76358 -0.2856,1.56155 -0.2856,2.38263c0,0.82108 0.09895,1.61904 0.2856,2.38262v62.26283z" fill="#714400" stroke-width="0"/><path d="M18.39522,339.60762c0,-0.69036 0.55964,-1.25 1.25,-1.25c0.69036,0 1.25,0.55964 1.25,1.25c0,0.69036 -0.55964,1.25 -1.25,1.25c-0.69036,0 -1.25,-0.55964 -1.25,-1.25z" fill="#553300" stroke-width="0.5"/><path d="M32.70276,352.4091c0,-0.69036 0.55964,-1.25 1.25,-1.25c0.69036,0 1.25,0.55964 1.25,1.25c0,0.69036 -0.55964,1.25 -1.25,1.25c-0.69036,0 -1.25,-0.55964 -1.25,-1.25z" fill="#553300" stroke-width="0.5"/><path d="M56.79966,310.99255c0,-0.69036 0.55964,-1.25 1.25,-1.25c0.69036,0 1.25,0.55964 1.25,1.25c0,0.69036 -0.55964,1.25 -1.25,1.25c-0.69036,0 -1.25,-0.55964 -1.25,-1.25z" fill="#553300" stroke-width="0.5"/><path d="M117.04192,323.041c0,-0.69036 0.55964,-1.25 1.25,-1.25c0.69036,0 1.25,0.55964 1.25,1.25c0,0.69036 -0.55964,1.25 -1.25,1.25c-0.69036,0 -1.25,-0.55964 -1.25,-1.25z" fill="#553300" stroke-width="0.5"/><path d="M251.08094,335.84248c0,-0.69036 0.55964,-1.25 1.25,-1.25c0.69036,0 1.25,0.55964 1.25,1.25c0,0.69036 -0.55964,1.25 -1.25,1.25c-0.69036,0 -1.25,-0.55964 -1.25,-1.25z" fill="#553300" stroke-width="0.5"/><path d="M226.23101,310.23952c0,-0.69036 0.55964,-1.25 1.25,-1.25c0.69036,0 1.25,0.55964 1.25,1.25c0,0.69036 -0.55964,1.25 -1.25,1.25c-0.69036,0 -1.25,-0.55964 -1.25,-1.25z" fill="#553300" stroke-width="0.5"/><path d="M177.28417,341.8667c0,-0.69036 0.55964,-1.25 1.25,-1.25c0.69036,0 1.25,0.55964 1.25,1.25c0,0.69036 -0.55964,1.25 -1.25,1.25c-0.69036,0 -1.25,-0.55964 -1.25,-1.25z" fill="#553300" stroke-width="0.5"/><path d="M75.62536,326.80614c0,-0.69036 0.55964,-1.25 1.25,-1.25c0.69036,0 1.25,0.55964 1.25,1.25c0,0.69036 -0.55964,1.25 -1.25,1.25c-0.69036,0 -1.25,-0.55964 -1.25,-1.25z" fill="#553300" stroke-width="0.5"/><path d="M172.766,308.73346c0,-0.69036 0.55964,-1.25 1.25,-1.25c0.69036,0 1.25,0.55964 1.25,1.25c0,0.69036 -0.55964,1.25 -1.25,1.25c-0.69036,0 -1.25,-0.55964 -1.25,-1.25z" fill="#553300" stroke-width="0.5"/><path d="M278.94298,331.32431c0,-0.69036 0.55964,-1.25 1.25,-1.25c0.69036,0 1.25,0.55964 1.25,1.25c0,0.69036 -0.55964,1.25 -1.25,1.25c-0.69036,0 -1.25,-0.55964 -1.25,-1.25z" fill="#553300" stroke-width="0.5"/><path d="M14.13311,307.2274c0,-1.38071 1.11929,-2.5 2.5,-2.5c1.38071,0 2.5,1.11929 2.5,2.5c0,1.38071 -1.11929,2.5 -2.5,2.5c-1.38071,0 -2.5,-1.11929 -2.5,-2.5z" fill="#553300" stroke-width="0.5"/><path d="M37.47698,324.54705c0,-1.38071 1.11929,-2.5 2.5,-2.5c1.38071,0 2.5,1.11929 2.5,2.5c0,1.38071 -1.11929,2.5 -2.5,2.5c-1.38071,0 -2.5,-1.11929 -2.5,-2.5z" fill="#553300" stroke-width="0.5"/><path d="M93.9541,347.1379c0,-1.38071 1.11929,-2.5 2.5,-2.5c1.38071,0 2.5,1.11929 2.5,2.5c0,1.38071 -1.11929,2.5 -2.5,2.5c-1.38071,0 -2.5,-1.11929 -2.5,-2.5z" fill="#553300" stroke-width="0.5"/><path d="M95.46016,304.21529c0,-1.38071 1.11929,-2.5 2.5,-2.5c1.38071,0 2.5,1.11929 2.5,2.5c0,1.38071 -1.11929,2.5 -2.5,2.5c-1.38071,0 -2.5,-1.11929 -2.5,-2.5z" fill="#553300" stroke-width="0.5"/><path d="M56.30269,341.8667c0,-1.38071 1.11929,-2.5 2.5,-2.5c1.38071,0 2.5,1.11929 2.5,2.5c0,1.38071 -1.11929,2.5 -2.5,2.5c-1.38071,0 -2.5,-1.11929 -2.5,-2.5z" fill="#553300" stroke-width="0.5"/><path d="M140.88276,328.07128c2.5,0 2.5,2.5 2.5,2.5l-0.41987,2.89281c-0.50202,0.75303 -1.00404,1.50606 -1.50606,2.25908c0,0 -1.38675,2.08013 -3.46688,0.69338c-2.08013,-1.38675 -0.69338,-3.46688 -0.69338,-3.46688c0.50202,-0.75303 1.00404,-1.50606 1.50606,-2.25908l-0.41987,-0.11931c0,0 0,-2.5 2.5,-2.5z" fill="#553300" stroke-width="0.5"/><path d="M145.16002,313.25163c0,-1.38071 1.11929,-2.5 2.5,-2.5c1.38071,0 2.5,1.11929 2.5,2.5c0,1.38071 -1.11929,2.5 -2.5,2.5c-1.38071,0 -2.5,-1.11929 -2.5,-2.5z" fill="#553300" stroke-width="0.5"/><path d="M184.31748,325.30008c0,-1.38071 1.11929,-2.5 2.5,-2.5c1.38071,0 2.5,1.11929 2.5,2.5c0,1.38071 -1.11929,2.5 -2.5,2.5c-1.38071,0 -2.5,-1.11929 -2.5,-2.5z" fill="#553300" stroke-width="0.5"/><path d="M206.90833,351.65607c0,-1.38071 1.11929,-2.5 2.5,-2.5c1.38071,0 2.5,1.11929 2.5,2.5c0,1.38071 -1.11929,2.5 -2.5,2.5c-1.38071,0 -2.5,-1.11929 -2.5,-2.5z" fill="#553300" stroke-width="0.5"/><path d="M222.72192,315.51072c0,-1.38071 1.11929,-2.5 2.5,-2.5c1.38071,0 2.5,1.11929 2.5,2.5c0,1.38071 -1.11929,2.5 -2.5,2.5c-1.38071,0 -2.5,-1.11929 -2.5,-2.5z" fill="#553300" stroke-width="0.5"/><path d="M252.84305,302.70924c0,-1.38071 1.11929,-2.5 2.5,-2.5c1.38071,0 2.5,1.11929 2.5,2.5c0,1.38071 -1.11929,2.5 -2.5,2.5c-1.38071,0 -2.5,-1.11929 -2.5,-2.5z" fill="#553300" stroke-width="0.5"/><path d="M272.35579,342.56405c1.56174,1.95217 -0.39043,3.51391 -0.39043,3.51391l-3.76514,3.01211c0,0 -1.95217,1.56174 -3.51391,-0.39043c-1.56174,-1.95217 0.39043,-3.51391 0.39043,-3.51391l3.76514,-3.01211c0,0 1.95217,-1.56174 3.51391,0.39043z" fill="#553300" stroke-width="0.5"/><path d="M294.2596,311.74557c0,-1.38071 1.11929,-2.5 2.5,-2.5c1.38071,0 2.5,1.11929 2.5,2.5c0,1.38071 -1.11929,2.5 -2.5,2.5c-1.38071,0 -2.5,-1.11929 -2.5,-2.5z" fill="#553300" stroke-width="0.5"/><path d="M197.87199,298.94409c0,-1.38071 1.11929,-2.5 2.5,-2.5c1.38071,0 2.5,1.11929 2.5,2.5c0,1.38071 -1.11929,2.5 -2.5,2.5c-1.38071,0 -2.5,-1.11929 -2.5,-2.5z" fill="#553300" stroke-width="0.5"/><path d="M87.92987,320.78191c0,-1.38071 1.11929,-2.5 2.5,-2.5c1.38071,0 2.5,1.11929 2.5,2.5c0,1.38071 -1.11929,2.5 -2.5,2.5c-1.38071,0 -2.5,-1.11929 -2.5,-2.5z" fill="#553300" stroke-width="0.5"/><path d="M38.48607,295.93198c0,-2.07107 1.67893,-3.75 3.75,-3.75c2.07107,0 3.75,1.67893 3.75,3.75c0,2.07107 -1.67893,3.75 -3.75,3.75c-2.07107,0 -3.75,-1.67893 -3.75,-3.75z" fill="#553300" stroke-width="0.5"/><path d="M9.11797,353.16213c0,-2.07107 1.67893,-3.75 3.75,-3.75c2.07107,0 3.75,1.67893 3.75,3.75c0,2.07107 -1.67893,3.75 -3.75,3.75c-2.07107,0 -3.75,-1.67893 -3.75,-3.75z" fill="#553300" stroke-width="0.5"/><path d="M72.37234,312.4986c0,-2.07107 1.67893,-3.75 3.75,-3.75c2.07107,0 3.75,1.67893 3.75,3.75c0,2.07107 -1.67893,3.75 -3.75,3.75c-2.07107,0 -3.75,-1.67893 -3.75,-3.75z" fill="#553300" stroke-width="0.5"/><path d="M132.61459,296.68501c0,-2.07107 1.67893,-3.75 3.75,-3.75c2.07107,0 3.75,1.67893 3.75,3.75c0,2.07107 -1.67893,3.75 -3.75,3.75c-2.07107,0 -3.75,-1.67893 -3.75,-3.75z" fill="#553300" stroke-width="0.5"/><path d="M141.65093,353.91515c0,-2.07107 1.67893,-3.75 3.75,-3.75c2.07107,0 3.75,1.67893 3.75,3.75c0,2.07107 -1.67893,3.75 -3.75,3.75c-2.07107,0 -3.75,-1.67893 -3.75,-3.75z" fill="#553300" stroke-width="0.5"/><path d="M209.42347,332.83036c0,-2.07107 1.67893,-3.75 3.75,-3.75c2.07107,0 3.75,1.67893 3.75,3.75c0,2.07107 -1.67893,3.75 -3.75,3.75c-2.07107,0 -3.75,-1.67893 -3.75,-3.75z" fill="#553300" stroke-width="0.5"/><path d="M236.53249,346.38487c0,-2.07107 1.67893,-3.75 3.75,-3.75c2.07107,0 3.75,1.67893 3.75,3.75c0,2.07107 -1.67893,3.75 -3.75,3.75c-2.07107,0 -3.75,-1.67893 -3.75,-3.75z" fill="#553300" stroke-width="0.5"/><path d="M251.59305,320.78191c0,-2.07107 1.67893,-3.75 3.75,-3.75c2.07107,0 3.75,1.67893 3.75,3.75c0,2.07107 -1.67893,3.75 -3.75,3.75c-2.07107,0 -3.75,-1.67893 -3.75,-3.75z" fill="#553300" stroke-width="0.5"/><path d="M158.21755,298.19107c0,-2.07107 1.67893,-3.75 3.75,-3.75c2.07107,0 3.75,1.67893 3.75,3.75c0,2.07107 -1.67893,3.75 -3.75,3.75c-2.07107,0 -3.75,-1.67893 -3.75,-3.75z" fill="#553300" stroke-width="0.5"/><path d="M0.06649,308.3039v-23.34388h315.62491v11.93696c-0.52465,1.21476 -0.81538,2.5542 -0.81538,3.96153c0,1.40733 0.29072,2.74677 0.81538,3.96153v3.48386z" fill="#ffffff" stroke-width="0"/><path d="M30.08153,306.96218c0,3.11915 -6.74285,5.64771 -15.06056,5.64771c-8.31772,0 -15.06056,-2.52857 -15.06056,-5.64771c0,-3.11915 6.74285,-5.64771 15.06057,-5.64771c8.31772,0 15.06057,2.52857 15.06057,5.64771z" fill="#ffffff" stroke-width="0"/><path d="M59.56637,306.80748c0,3.11915 -6.74284,5.64771 -15.06056,5.64771c-8.31772,0 -15.06056,-2.52857 -15.06056,-5.64771c0,-3.11915 6.74284,-5.64771 15.06057,-5.64771c8.31772,0 15.06056,2.52857 15.06056,5.64771z" fill="#ffffff" stroke-width="0"/><path d="M85.18518,307.08234c0,3.11915 -6.74285,5.64771 -15.06056,5.64771c-8.31772,0 -15.06057,-2.52857 -15.06057,-5.64771c0,-3.11915 6.74285,-5.64771 15.06057,-5.64771c8.31772,0 15.06056,2.52857 15.06056,5.64771z" fill="#ffffff" stroke-width="0"/><path d="M113.81089,308.64587c0,3.11915 -6.74285,5.64771 -15.06056,5.64771c-8.31772,0 -15.06056,-2.52857 -15.06056,-5.64771c0,-3.11915 6.74285,-5.64771 15.06056,-5.64771c8.31772,0 15.06056,2.52857 15.06056,5.64771z" fill="#ffffff" stroke-width="0"/><path d="M165.5871,308.36624c0,3.11915 -6.74284,5.64771 -15.06056,5.64771c-8.31772,0 -15.06056,-2.52857 -15.06056,-5.64771c0,-3.11915 6.74284,-5.64771 15.06056,-5.64771c8.31772,0 15.06056,2.52857 15.06056,5.64771z" fill="#ffffff" stroke-width="0"/><path d="M139.58667,307.65083c0,3.11915 -6.74284,5.64771 -15.06056,5.64771c-8.31772,0 -15.06056,-2.52857 -15.06056,-5.64771c0,-3.11915 6.74285,-5.64771 15.06056,-5.64771c8.31772,0 15.06056,2.52856 15.06056,5.64771z" fill="#ffffff" stroke-width="0"/><path d="M189.48767,308.6411c0,3.11915 -6.74284,5.64771 -15.06056,5.64771c-8.31772,0 -15.06056,-2.52857 -15.06056,-5.64771c0,-3.11915 6.74284,-5.64771 15.06056,-5.64771c8.31772,0 15.06056,2.52857 15.06056,5.64771z" fill="#ffffff" stroke-width="0"/><path d="M215.9656,308.05683c0,3.11915 -6.74284,5.64771 -15.06056,5.64771c-8.31772,0 -15.06056,-2.52857 -15.06056,-5.64771c0,-3.11915 6.74284,-5.64771 15.06056,-5.64771c8.31772,0 15.06056,2.52856 15.06056,5.64771z" fill="#ffffff" stroke-width="0"/><path d="M240.72529,308.76125c0,3.11915 -6.74285,5.64771 -15.06057,5.64771c-8.31772,0 -15.06056,-2.52856 -15.06056,-5.64771c0,-3.11915 6.74284,-5.64771 15.06056,-5.64771c8.31772,0 15.06057,2.52857 15.06057,5.64771z" fill="#ffffff" stroke-width="0"/><path d="M268.49189,307.74743c0,3.11915 -6.74285,5.64771 -15.06057,5.64771c-8.31772,0 -15.06056,-2.52857 -15.06056,-5.64771c0,-3.11915 6.74284,-5.64771 15.06056,-5.64771c8.31772,0 15.06057,2.52857 15.06057,5.64771z" fill="#ffffff" stroke-width="0"/><path d="M295.39937,307.59273c0,3.11915 -6.74284,5.64771 -15.06056,5.64771c-8.31772,0 -15.06056,-2.52856 -15.06056,-5.64771c0,-3.11915 6.74284,-5.64771 15.06056,-5.64771c8.31772,0 15.06056,2.52857 15.06056,5.64771z" fill="#ffffff" stroke-width="0"/><path d="M307.24629,312.65618c-8.31772,0 -15.06056,-2.52857 -15.06056,-5.64771c0,-3.11915 6.74284,-5.64771 15.06056,-5.64771c2.60172,0 5.04935,0.24739 7.18475,0.68287c-0.44761,2.34559 -0.22293,4.954 0.4259,7.56807c-0.2228,0.75217 -0.35952,1.54133 -0.39874,2.35606c-2.14179,0.43892 -4.59915,0.68842 -7.21191,0.68842z" fill="#ffffff" stroke-width="0"/><path d="M315.30971,298.28116c0,0.64342 -0.16204,1.24899 -0.44754,1.77813c0.0119,0.12161 0.01799,0.24493 0.01799,0.36966c0,2.07107 -1.67893,3.75 -3.75,3.75c-2.07107,0 -3.75,-1.67893 -3.75,-3.75c0,-0.53467 0.1119,-1.0432 0.31354,-1.50345c-0.20165,-0.46026 -0.31354,-0.96879 -0.31354,-1.50346c0,-2.07107 1.67893,-3.75 3.75,-3.75c1.63957,0 3.03339,1.05223 3.54301,2.51823c0.40197,0.59737 0.63655,1.31673 0.63655,2.09089z" fill="#ffffff" stroke-width="0.5"/><path d="M307.38015,308.16101c0,-2.07107 1.67893,-3.75 3.75,-3.75c2.07107,0 3.75,1.67893 3.75,3.75c0,2.07107 -1.67893,3.75 -3.75,3.75c-2.07107,0 -3.75,-1.67893 -3.75,-3.75z" fill="#ffffff" stroke-width="0.5"/></g></g></g></svg>