<svg version="1.1" xmlns="http://www.w3.org/2000/svg" xmlns:xlink="http://www.w3.org/1999/xlink" width="498.75" height="302.08243" viewBox="0,0,498.75,302.08243"><g transform="translate(7,-78.35888)"><g data-paper-data="{&quot;isPaintingLayer&quot;:true}" fill-rule="nonzero" stroke-linecap="butt" stroke-linejoin="miter" stroke-miterlimit="10" stroke-dasharray="" stroke-dashoffset="0" style="mix-blend-mode: normal"><g><path d="M-6,378.64078v-78.64078h324v78.64078z" fill="#714400" stroke="none" stroke-width="0"/><path d="M-6,309.5v-29h325v29z" fill="#ffffff" stroke="#ffffff" stroke-width="2"/><path d="M24.5,311.57039c0,2.20914 -6.71573,4 -15,4c-8.28427,0 -15,-1.79086 -15,-4c0,-2.20914 6.71573,-4 15,-4c8.28427,0 15,1.79086 15,4z" fill="#ffffff" stroke="#ffffff" stroke-width="2"/><path d="M53.5,312.57039c0,2.20914 -6.71573,4 -15,4c-8.28427,0 -15,-1.79086 -15,-4c0,-2.20914 6.71573,-4 15,-4c8.28427,0 15,1.79086 15,4z" fill="#ffffff" stroke="#ffffff" stroke-width="2"/><path d="M106.5,312.07039c0,2.20914 -6.71573,4 -15,4c-8.28427,0 -15,-1.79086 -15,-4c0,-2.20914 6.71573,-4 15,-4c8.28427,0 15,1.79086 15,4z" fill="#ffffff" stroke="#ffffff" stroke-width="2"/><path d="M132.99618,311.23174c0.04987,2.20857 -6.62371,4.1506 -14.90586,4.33763c-8.28216,0.18703 -15.03661,-1.45175 -15.08648,-3.66032c-0.04988,-2.20857 6.6237,-4.1506 14.90586,-4.33763c8.28216,-0.18703 15.03661,1.45175 15.08648,3.66033z" fill="#ffffff" stroke="#ffffff" stroke-width="2"/><path d="M81,311.57039c0,2.20914 -6.71573,4 -15,4c-8.28427,0 -15,-1.79086 -15,-4c0,-2.20914 6.71573,-4 15,-4c8.28427,0 15,1.79086 15,4z" fill="#ffffff" stroke="#ffffff" stroke-width="2"/><path d="M183.5,312.57039c0,2.20914 -6.71573,4 -15,4c-8.28427,0 -15,-1.79086 -15,-4c0,-2.20914 6.71573,-4 15,-4c8.28427,0 15,1.79086 15,4z" fill="#ffffff" stroke="#ffffff" stroke-width="2"/><path d="M210,312.57039c0,2.20914 -6.71573,4 -15,4c-8.28427,0 -15,-1.79086 -15,-4c0,-2.20914 6.71573,-4 15,-4c8.28427,0 15,1.79086 15,4z" fill="#ffffff" stroke="#ffffff" stroke-width="2"/><path d="M158,311.57039c0,2.20914 -6.71573,4 -15,4c-8.28427,0 -15,-1.79086 -15,-4c0,-2.20914 6.71573,-4 15,-4c8.28427,0 15,1.79086 15,4z" fill="#ffffff" stroke="#ffffff" stroke-width="2"/><path d="M267,312.57039c0,2.20914 -6.71573,4 -15,4c-8.28427,0 -15,-1.79086 -15,-4c0,-2.20914 6.71573,-4 15,-4c8.28427,0 15,1.79086 15,4z" fill="#ffffff" stroke="#ffffff" stroke-width="2"/><path d="M239,312.07039c0,2.20914 -6.71573,4 -15,4c-8.28427,0 -15,-1.79086 -15,-4c0,-2.20914 6.71573,-4 15,-4c8.28427,0 15,1.79086 15,4z" fill="#ffffff" stroke="#ffffff" stroke-width="2"/><path d="M320,312.57039c0,2.20914 -6.71573,4 -15,4c-8.28427,0 -15,-1.79086 -15,-4c0,-2.20914 6.71573,-4 15,-4c8.28427,0 15,1.79086 15,4z" fill="#ffffff" stroke="#ffffff" stroke-width="2"/><path d="M295,312.07039c0,2.20914 -6.71573,4 -15,4c-8.28427,0 -15,-1.79086 -15,-4c0,-2.20914 6.71573,-4 15,-4c8.28427,0 15,1.79086 15,4z" fill="#ffffff" stroke="#ffffff" stroke-width="2"/><path d="M318.5,380.44132v-152h164v152z" fill="#714400" stroke="none" stroke-width="NaN"/><path d="M317,266.44131v-38h165v38z" fill="#ffffff" stroke="none" stroke-width="0"/><path d="M350.25,268.89078c0,4.00407 -7.49923,7.25 -16.75,7.25c-9.25077,0 -16.75,-3.24594 -16.75,-7.25c0,-4.00406 7.49923,-7.25 16.75,-7.25c9.25077,0 16.75,3.24594 16.75,7.25z" fill="#ffffff" stroke="none" stroke-width="0"/><path d="M378.25,270.39078c0,4.00407 -7.49923,7.25 -16.75,7.25c-9.25077,0 -16.75,-3.24594 -16.75,-7.25c0,-4.00406 7.49923,-7.25 16.75,-7.25c9.25077,0 16.75,3.24594 16.75,7.25z" fill="#ffffff" stroke="none" stroke-width="0"/><path d="M466.25,270.39078c0,4.00407 -7.49923,7.25 -16.75,7.25c-9.25077,0 -16.75,-3.24594 -16.75,-7.25c0,-4.00406 7.49923,-7.25 16.75,-7.25c9.25077,0 16.75,3.24594 16.75,7.25z" fill="#ffffff" stroke="none" stroke-width="0"/><path d="M436.75,269.39077c0,4.00407 -7.49923,7.25 -16.75,7.25c-9.25077,0 -16.75,-3.24594 -16.75,-7.25c0,-4.00406 7.49923,-7.25 16.75,-7.25c9.25077,0 16.75,3.24594 16.75,7.25z" fill="#ffffff" stroke="none" stroke-width="0"/><path d="M491.75,271.89078c0,4.00407 -7.49923,7.25 -16.75,7.25c-9.25077,0 -16.75,-3.24594 -16.75,-7.25c0,-4.00406 7.49923,-7.25 16.75,-7.25c9.25077,0 16.75,3.24594 16.75,7.25z" fill="#ffffff" stroke="none" stroke-width="0"/><path d="M407.75,270.89077c0,4.00407 -7.49923,7.25 -16.75,7.25c-9.25077,0 -16.75,-3.24594 -16.75,-7.25c0,-4.00406 7.49923,-7.25 16.75,-7.25c9.25077,0 16.75,3.24594 16.75,7.25z" fill="#ffffff" stroke="none" stroke-width="0"/><path d="M331.9375,274.14078c0,-2.07107 1.67893,-3.75 3.75,-3.75c2.07107,0 3.75,1.67893 3.75,3.75c0,2.07107 -1.67893,3.75 -3.75,3.75c-2.07107,0 -3.75,-1.67893 -3.75,-3.75z" fill="#553300" stroke="none" stroke-width="0.5"/><path d="M344.9375,321.64078c0,-2.07107 1.67893,-3.75 3.75,-3.75c2.07107,0 3.75,1.67893 3.75,3.75c0,2.07107 -1.67893,3.75 -3.75,3.75c-2.07107,0 -3.75,-1.67893 -3.75,-3.75z" fill="#553300" stroke="none" stroke-width="0.5"/><path d="M363.4375,285.64078c0,-2.07107 1.67893,-3.75 3.75,-3.75c2.07107,0 3.75,1.67893 3.75,3.75c0,2.07107 -1.67893,3.75 -3.75,3.75c-2.07107,0 -3.75,-1.67893 -3.75,-3.75z" fill="#553300" stroke="none" stroke-width="0.5"/><path d="M365.4375,341.64078c0,-2.07107 1.67893,-3.75 3.75,-3.75c2.07107,0 3.75,1.67893 3.75,3.75c0,2.07107 -1.67893,3.75 -3.75,3.75c-2.07107,0 -3.75,-1.67893 -3.75,-3.75z" fill="#553300" stroke="none" stroke-width="0.5"/><path d="M405.9375,293.64078c0,-2.07107 1.67893,-3.75 3.75,-3.75c2.07107,0 3.75,1.67893 3.75,3.75c0,2.07107 -1.67893,3.75 -3.75,3.75c-2.07107,0 -3.75,-1.67893 -3.75,-3.75z" fill="#553300" stroke="none" stroke-width="0.5"/><path d="M436.9375,282.64078c0,-2.07107 1.67893,-3.75 3.75,-3.75c2.07107,0 3.75,1.67893 3.75,3.75c0,2.07107 -1.67893,3.75 -3.75,3.75c-2.07107,0 -3.75,-1.67893 -3.75,-3.75z" fill="#553300" stroke="none" stroke-width="0.5"/><path d="M466.4375,338.64078c0,-2.07107 1.67893,-3.75 3.75,-3.75c2.07107,0 3.75,1.67893 3.75,3.75c0,2.07107 -1.67893,3.75 -3.75,3.75c-2.07107,0 -3.75,-1.67893 -3.75,-3.75z" fill="#553300" stroke="none" stroke-width="0.5"/><path d="M378.9375,308.64078c0,-2.07107 1.67893,-3.75 3.75,-3.75c2.07107,0 3.75,1.67893 3.75,3.75c0,2.07107 -1.67893,3.75 -3.75,3.75c-2.07107,0 -3.75,-1.67893 -3.75,-3.75z" fill="#553300" stroke="none" stroke-width="0.5"/><path d="M408.4375,319.64078c0,-2.07107 1.67893,-3.75 3.75,-3.75c2.07107,0 3.75,1.67893 3.75,3.75c0,2.07107 -1.67893,3.75 -3.75,3.75c-2.07107,0 -3.75,-1.67893 -3.75,-3.75z" fill="#553300" stroke="none" stroke-width="0.5"/><path d="M22.4375,329.14078c0,-2.07107 1.67893,-3.75 3.75,-3.75c2.07107,0 3.75,1.67893 3.75,3.75c0,2.07107 -1.67893,3.75 -3.75,3.75c-2.07107,0 -3.75,-1.67893 -3.75,-3.75z" fill="#553300" stroke="none" stroke-width="0.5"/><path d="M55.9375,353.14078c0,3.75 -3.75,3.75 -3.75,3.75l-1.89932,-0.04842c-0.80495,0.28533 -1.60989,0.57065 -2.41483,0.85598c0,0 -3.55756,1.18586 -4.74341,-2.3717c-1.18585,-3.55756 2.37171,-4.74342 2.37171,-4.74342c1.19506,-0.38134 2.39012,-0.76268 3.58517,-1.14402l3.10068,-0.04842c0,0 3.75,0 3.75,3.75z" fill="#553300" stroke="none" stroke-width="0.5"/><path d="M141.4375,337.14078c0,-2.07107 1.67893,-3.75 3.75,-3.75c2.07107,0 3.75,1.67893 3.75,3.75c0,2.07107 -1.67893,3.75 -3.75,3.75c-2.07107,0 -3.75,-1.67893 -3.75,-3.75z" fill="#553300" stroke="none" stroke-width="0.5"/><path d="M191.4375,337.14078c0,-2.07107 1.67893,-3.75 3.75,-3.75c2.07107,0 3.75,1.67893 3.75,3.75c0,2.07107 -1.67893,3.75 -3.75,3.75c-2.07107,0 -3.75,-1.67893 -3.75,-3.75z" fill="#553300" stroke="none" stroke-width="0.5"/><path d="M245.9375,342.14078c0,-2.07107 1.67893,-3.75 3.75,-3.75c2.07107,0 3.75,1.67893 3.75,3.75c0,2.07107 -1.67893,3.75 -3.75,3.75c-2.07107,0 -3.75,-1.67893 -3.75,-3.75z" fill="#553300" stroke="none" stroke-width="0.5"/><path d="M103.9375,343.64078c0,-2.07107 1.67893,-3.75 3.75,-3.75c2.07107,0 3.75,1.67893 3.75,3.75c0,2.07107 -1.67893,3.75 -3.75,3.75c-2.07107,0 -3.75,-1.67893 -3.75,-3.75z" fill="#553300" stroke="none" stroke-width="0.5"/><path d="M65.1875,333.14078c0,-1.38071 1.11929,-2.5 2.5,-2.5c1.38071,0 2.5,1.11929 2.5,2.5c0,1.38071 -1.11929,2.5 -2.5,2.5c-1.38071,0 -2.5,-1.11929 -2.5,-2.5z" fill="#553300" stroke="none" stroke-width="0.5"/><path d="M84.6875,348.14078c0,-1.38071 1.11929,-2.5 2.5,-2.5c1.38071,0 2.5,1.11929 2.5,2.5c0,1.38071 -1.11929,2.5 -2.5,2.5c-1.38071,0 -2.5,-1.11929 -2.5,-2.5z" fill="#553300" stroke="none" stroke-width="0.5"/><path d="M22.6875,338.14078c0,-1.38071 1.11929,-2.5 2.5,-2.5c1.38071,0 2.5,1.11929 2.5,2.5c0,1.38071 -1.11929,2.5 -2.5,2.5c-1.38071,0 -2.5,-1.11929 -2.5,-2.5z" fill="#553300" stroke="none" stroke-width="0.5"/><path d="M101.1875,327.14078c0,-1.38071 1.11929,-2.5 2.5,-2.5c1.38071,0 2.5,1.11929 2.5,2.5c0,1.38071 -1.11929,2.5 -2.5,2.5c-1.38071,0 -2.5,-1.11929 -2.5,-2.5z" fill="#553300" stroke="none" stroke-width="0.5"/><path d="M131.1875,352.64078c0,-1.38071 1.11929,-2.5 2.5,-2.5c1.38071,0 2.5,1.11929 2.5,2.5c0,1.38071 -1.11929,2.5 -2.5,2.5c-1.38071,0 -2.5,-1.11929 -2.5,-2.5z" fill="#553300" stroke="none" stroke-width="0.5"/><path d="M172.1875,343.14078c0,-1.38071 1.11929,-2.5 2.5,-2.5c1.38071,0 2.5,1.11929 2.5,2.5c0,1.38071 -1.11929,2.5 -2.5,2.5c-1.38071,0 -2.5,-1.11929 -2.5,-2.5z" fill="#553300" stroke="none" stroke-width="0.5"/><path d="M175.1875,329.14078c0,-1.38071 1.11929,-2.5 2.5,-2.5c1.38071,0 2.5,1.11929 2.5,2.5c0,1.38071 -1.11929,2.5 -2.5,2.5c-1.38071,0 -2.5,-1.11929 -2.5,-2.5z" fill="#553300" stroke="none" stroke-width="0.5"/><path d="M212.6875,348.64078c0,-1.38071 1.11929,-2.5 2.5,-2.5c1.38071,0 2.5,1.11929 2.5,2.5c0,1.38071 -1.11929,2.5 -2.5,2.5c-1.38071,0 -2.5,-1.11929 -2.5,-2.5z" fill="#553300" stroke="none" stroke-width="0.5"/><path d="M228.1875,334.14078c0,-1.38071 1.11929,-2.5 2.5,-2.5c1.38071,0 2.5,1.11929 2.5,2.5c0,1.38071 -1.11929,2.5 -2.5,2.5c-1.38071,0 -2.5,-1.11929 -2.5,-2.5z" fill="#553300" stroke="none" stroke-width="0.5"/><path d="M277.1875,333.64078c0,-1.38071 1.11929,-2.5 2.5,-2.5c1.38071,0 2.5,1.11929 2.5,2.5c0,1.38071 -1.11929,2.5 -2.5,2.5c-1.38071,0 -2.5,-1.11929 -2.5,-2.5z" fill="#553300" stroke="none" stroke-width="0.5"/><path d="M289.73605,349.13107c-0.49029,-2.45145 1.96116,-2.94174 1.96116,-2.94174l2.5,-0.5c0,0 2.45145,-0.49029 2.94174,1.96116c0.49029,2.45145 -1.96116,2.94174 -1.96116,2.94174l-2.5,0.5c0,0 -2.45145,0.49029 -2.94174,-1.96116z" fill="#553300" stroke="none" stroke-width="0.5"/><path d="M262.6875,331.14078c0,-1.38071 1.11929,-2.5 2.5,-2.5c1.38071,0 2.5,1.11929 2.5,2.5c0,1.38071 -1.11929,2.5 -2.5,2.5c-1.38071,0 -2.5,-1.11929 -2.5,-2.5z" fill="#553300" stroke="none" stroke-width="0.5"/><path d="M272.1875,348.64078c0,-1.38071 1.11929,-2.5 2.5,-2.5c1.38071,0 2.5,1.11929 2.5,2.5c0,1.38071 -1.11929,2.5 -2.5,2.5c-1.38071,0 -2.5,-1.11929 -2.5,-2.5z" fill="#553300" stroke="none" stroke-width="0.5"/><path d="M332.6875,298.14078c0,-1.38071 1.11929,-2.5 2.5,-2.5c1.38071,0 2.5,1.11929 2.5,2.5c0,1.38071 -1.11929,2.5 -2.5,2.5c-1.38071,0 -2.5,-1.11929 -2.5,-2.5z" fill="#553300" stroke="none" stroke-width="0.5"/><path d="M343.1875,347.14078c0,-1.38071 1.11929,-2.5 2.5,-2.5c1.38071,0 2.5,1.11929 2.5,2.5c0,1.38071 -1.11929,2.5 -2.5,2.5c-1.38071,0 -2.5,-1.11929 -2.5,-2.5z" fill="#553300" stroke="none" stroke-width="0.5"/><path d="M358.6875,301.64078c0,-1.38071 1.11929,-2.5 2.5,-2.5c1.38071,0 2.5,1.11929 2.5,2.5c0,1.38071 -1.11929,2.5 -2.5,2.5c-1.38071,0 -2.5,-1.11929 -2.5,-2.5z" fill="#553300" stroke="none" stroke-width="0.5"/><path d="M389.1875,339.14078c0,-1.38071 1.11929,-2.5 2.5,-2.5c1.38071,0 2.5,1.11929 2.5,2.5c0,1.38071 -1.11929,2.5 -2.5,2.5c-1.38071,0 -2.5,-1.11929 -2.5,-2.5z" fill="#553300" stroke="none" stroke-width="0.5"/><path d="M379.1875,267.64078c0,-1.38071 1.11929,-2.5 2.5,-2.5c1.38071,0 2.5,1.11929 2.5,2.5c0,1.38071 -1.11929,2.5 -2.5,2.5c-1.38071,0 -2.5,-1.11929 -2.5,-2.5z" fill="#553300" stroke="none" stroke-width="0.5"/><path d="M393.6875,291.14078c0,-1.38071 1.11929,-2.5 2.5,-2.5c1.38071,0 2.5,1.11929 2.5,2.5c0,1.38071 -1.11929,2.5 -2.5,2.5c-1.38071,0 -2.5,-1.11929 -2.5,-2.5z" fill="#553300" stroke="none" stroke-width="0.5"/><path d="M450.1875,318.14078c0,-1.38071 1.11929,-2.5 2.5,-2.5c1.38071,0 2.5,1.11929 2.5,2.5c0,1.38071 -1.11929,2.5 -2.5,2.5c-1.38071,0 -2.5,-1.11929 -2.5,-2.5z" fill="#553300" stroke="none" stroke-width="0.5"/><path d="M408.1875,275.14078c0,-1.38071 1.11929,-2.5 2.5,-2.5c1.38071,0 2.5,1.11929 2.5,2.5c0,1.38071 -1.11929,2.5 -2.5,2.5c-1.38071,0 -2.5,-1.11929 -2.5,-2.5z" fill="#553300" stroke="none" stroke-width="0.5"/><path d="M456.6875,296.64078c0,-1.38071 1.11929,-2.5 2.5,-2.5c1.38071,0 2.5,1.11929 2.5,2.5c0,1.38071 -1.11929,2.5 -2.5,2.5c-1.38071,0 -2.5,-1.11929 -2.5,-2.5z" fill="#553300" stroke="none" stroke-width="0.5"/><path d="M441.1875,302.64078c0,-1.38071 1.11929,-2.5 2.5,-2.5c1.38071,0 2.5,1.11929 2.5,2.5c0,1.38071 -1.11929,2.5 -2.5,2.5c-1.38071,0 -2.5,-1.11929 -2.5,-2.5z" fill="#553300" stroke="none" stroke-width="0.5"/><path d="M437.6875,331.14078c0,-1.38071 1.11929,-2.5 2.5,-2.5c1.38071,0 2.5,1.11929 2.5,2.5c0,1.38071 -1.11929,2.5 -2.5,2.5c-1.38071,0 -2.5,-1.11929 -2.5,-2.5z" fill="#553300" stroke="none" stroke-width="0.5"/><path d="M420.6875,339.64078c0,-1.38071 1.11929,-2.5 2.5,-2.5c1.38071,0 2.5,1.11929 2.5,2.5c0,1.38071 -1.11929,2.5 -2.5,2.5c-1.38071,0 -2.5,-1.11929 -2.5,-2.5z" fill="#553300" stroke="none" stroke-width="0.5"/><path d="M46.6875,345.57039c0,-0.69036 0.55965,-1.25 1.25,-1.25c0.69035,0 1.25,0.55964 1.25,1.25c0,0.69036 -0.55965,1.25 -1.25,1.25c-0.69035,0 -1.25,-0.55964 -1.25,-1.25z" fill="#553300" stroke="none" stroke-width="0.5"/><path d="M9.16588,338.8019c-0.23151,1.22838 -1.45988,0.99687 -1.45988,0.99687l-1.88461,-0.57672c-0.58925,-0.58925 -1.17851,-1.17852 -1.76777,-1.76777c0,0 -0.88389,-0.88388 0,-1.76776c0.88388,-0.88389 1.76777,0 1.76777,0c0.58925,0.58925 1.17851,1.17851 1.76777,1.76776l0.57986,-0.11226c0,0 1.22837,0.2315 0.99687,1.45988z" fill="#553300" stroke="none" stroke-width="0.5"/><path d="M37.6875,327.57039c0,-0.69036 0.55965,-1.25 1.25,-1.25c0.69035,0 1.25,0.55964 1.25,1.25c0,0.69036 -0.55965,1.25 -1.25,1.25c-0.69035,0 -1.25,-0.55964 -1.25,-1.25z" fill="#553300" stroke="none" stroke-width="0.5"/><path d="M74.6875,348.57039c0,-0.69036 0.55965,-1.25 1.25,-1.25c0.69035,0 1.25,0.55964 1.25,1.25c0,0.69036 -0.55965,1.25 -1.25,1.25c-0.69035,0 -1.25,-0.55964 -1.25,-1.25z" fill="#553300" stroke="none" stroke-width="0.5"/><path d="M126.6875,338.57039c0,-0.69036 0.55964,-1.25 1.25,-1.25c0.69036,0 1.25,0.55964 1.25,1.25c0,0.69036 -0.55964,1.25 -1.25,1.25c-0.69036,0 -1.25,-0.55964 -1.25,-1.25z" fill="#553300" stroke="none" stroke-width="0.5"/><path d="M153.6875,344.57039c0,-0.69036 0.55964,-1.25 1.25,-1.25c0.69036,0 1.25,0.55964 1.25,1.25c0,0.69036 -0.55964,1.25 -1.25,1.25c-0.69036,0 -1.25,-0.55964 -1.25,-1.25z" fill="#553300" stroke="none" stroke-width="0.5"/><path d="M208.6875,330.57039c0,-0.69036 0.55964,-1.25 1.25,-1.25c0.69036,0 1.25,0.55964 1.25,1.25c0,0.69036 -0.55964,1.25 -1.25,1.25c-0.69036,0 -1.25,-0.55964 -1.25,-1.25z" fill="#553300" stroke="none" stroke-width="0.5"/><path d="M235.6875,346.57039c0,-0.69036 0.55964,-1.25 1.25,-1.25c0.69036,0 1.25,0.55964 1.25,1.25c0,0.69036 -0.55964,1.25 -1.25,1.25c-0.69036,0 -1.25,-0.55964 -1.25,-1.25z" fill="#553300" stroke="none" stroke-width="0.5"/><path d="M303.6875,334.57039c0,-0.69036 0.55964,-1.25 1.25,-1.25c0.69036,0 1.25,0.55964 1.25,1.25c0,0.69036 -0.55964,1.25 -1.25,1.25c-0.69036,0 -1.25,-0.55964 -1.25,-1.25z" fill="#553300" stroke="none" stroke-width="0.5"/><path d="M324.6875,325.57039c0,-0.69036 0.55964,-1.25 1.25,-1.25c0.69036,0 1.25,0.55964 1.25,1.25c0,0.69036 -0.55964,1.25 -1.25,1.25c-0.69036,0 -1.25,-0.55964 -1.25,-1.25z" fill="#553300" stroke="none" stroke-width="0.5"/><path d="M369.6875,323.57039c0,-0.69036 0.55964,-1.25 1.25,-1.25c0.69036,0 1.25,0.55964 1.25,1.25c0,0.69036 -0.55964,1.25 -1.25,1.25c-0.69036,0 -1.25,-0.55964 -1.25,-1.25z" fill="#553300" stroke="none" stroke-width="0.5"/><path d="M390.6875,350.57039c0,-0.69036 0.55964,-1.25 1.25,-1.25c0.69036,0 1.25,0.55964 1.25,1.25c0,0.69036 -0.55964,1.25 -1.25,1.25c-0.69036,0 -1.25,-0.55964 -1.25,-1.25z" fill="#553300" stroke="none" stroke-width="0.5"/><path d="M390.9375,324.82039c-1.25,0 -1.25,-1.25 -1.25,-1.25v-2c0,0 0,-1.25 1.25,-1.25c1.25,0 1.25,1.25 1.25,1.25v2c0,0 0,1.25 -1.25,1.25z" fill="#553300" stroke="none" stroke-width="0.5"/><path d="M439.6875,349.57039c0,-0.69036 0.55964,-1.25 1.25,-1.25c0.69036,0 1.25,0.55964 1.25,1.25c0,0.69036 -0.55964,1.25 -1.25,1.25c-0.69036,0 -1.25,-0.55964 -1.25,-1.25z" fill="#553300" stroke="none" stroke-width="0.5"/><path d="M427.6875,316.57039c0,-0.69036 0.55964,-1.25 1.25,-1.25c0.69036,0 1.25,0.55964 1.25,1.25c0,0.69036 -0.55964,1.25 -1.25,1.25c-0.69036,0 -1.25,-0.55964 -1.25,-1.25z" fill="#553300" stroke="none" stroke-width="0.5"/><path d="M398.6875,298.57039c0,-0.69036 0.55964,-1.25 1.25,-1.25c0.69036,0 1.25,0.55964 1.25,1.25c0,0.69036 -0.55964,1.25 -1.25,1.25c-0.69036,0 -1.25,-0.55964 -1.25,-1.25z" fill="#553300" stroke="none" stroke-width="0.5"/><path d="M377.6875,292.57039c0,-0.69036 0.55964,-1.25 1.25,-1.25c0.69036,0 1.25,0.55964 1.25,1.25c0,0.69036 -0.55964,1.25 -1.25,1.25c-0.69036,0 -1.25,-0.55964 -1.25,-1.25z" fill="#553300" stroke="none" stroke-width="0.5"/><path d="M344.6875,265.57039c0,-0.69036 0.55964,-1.25 1.25,-1.25c0.69036,0 1.25,0.55964 1.25,1.25c0,0.69036 -0.55964,1.25 -1.25,1.25c-0.69036,0 -1.25,-0.55964 -1.25,-1.25z" fill="#553300" stroke="none" stroke-width="0.5"/><path d="M346.6875,289.57039c0,-0.69036 0.55964,-1.25 1.25,-1.25c0.69036,0 1.25,0.55964 1.25,1.25c0,0.69036 -0.55964,1.25 -1.25,1.25c-0.69036,0 -1.25,-0.55964 -1.25,-1.25z" fill="#553300" stroke="none" stroke-width="0.5"/><path d="M451.6875,275.57039c0,-0.69036 0.55964,-1.25 1.25,-1.25c0.69036,0 1.25,0.55964 1.25,1.25c0,0.69036 -0.55964,1.25 -1.25,1.25c-0.69036,0 -1.25,-0.55964 -1.25,-1.25z" fill="#553300" stroke="none" stroke-width="0.5"/><path d="M462.6875,294.57039c0,-0.69036 0.55964,-1.25 1.25,-1.25c0.69036,0 1.25,0.55964 1.25,1.25c0,0.69036 -0.55964,1.25 -1.25,1.25c-0.69036,0 -1.25,-0.55964 -1.25,-1.25z" fill="#553300" stroke="none" stroke-width="0.5"/><path d="M422.6875,289.57039c0,-0.69036 0.55964,-1.25 1.25,-1.25c0.69036,0 1.25,0.55964 1.25,1.25c0,0.69036 -0.55964,1.25 -1.25,1.25c-0.69036,0 -1.25,-0.55964 -1.25,-1.25z" fill="#553300" stroke="none" stroke-width="0.5"/><path d="M421.9375,270.82039c-1.25,0 -1.25,-1.25 -1.25,-1.25l0.13196,-0.44098c-0.33333,-0.66667 -0.66667,-1.33333 -1,-2c0,0 -0.55901,-1.11804 0.55902,-1.67705c1.11804,-0.55901 1.67705,0.55901 1.67705,0.55901c0.33333,0.66667 0.66667,1.33333 1,2l0.13196,1.55901c0,0 0,1.25 -1.25,1.25z" fill="#553300" stroke="none" stroke-width="0.5"/><path d="M331.1875,276.19131c0,0 -1.25,0 -1.25,-1.25c0,-0.19362 0.02999,-0.35725 0.08068,-0.49554c-0.19158,-0.08323 -0.37548,-0.16837 -0.55046,-0.25446h-1.28023c-0.69036,0 -1.25,-0.55964 -1.25,-1.25c0,-0.44077 0.22813,-0.82825 0.57276,-1.05082l1.48387,-0.98925l0.03441,0.05162c0.09491,-0.07412 0.19358,-0.14371 0.29673,-0.20792c0.47224,-0.29397 1.02224,-0.39259 1.61377,-0.36613c0.02152,-0.43701 0.26746,-0.81501 0.62499,-1.02115l2.12409,-1.27445l0.03913,0.06521c1.52081,-1.28302 3.29949,-2.41698 4.43779,-1.8623c0.50727,0.24719 0.69587,0.82526 0.88157,1.40634c0.13954,-0.03366 0.28189,-0.02824 0.42809,0.03229c0.71275,0.2951 1.13384,0.77306 1.34198,1.34462c-0.02578,-0.70759 0.41722,-1.34592 1.11786,-1.90246c-0.07986,0.01601 -0.16246,0.0244 -0.24703,0.0244c-0.69036,0 -1.25,-0.55964 -1.25,-1.25c0,-0.44077 0.22813,-0.82825 0.57276,-1.05082l1.48387,-0.98925l0.00288,0.00432c0.00733,-0.00686 0.01468,-0.0137 0.02206,-0.02052c1.71508,-1.58483 2.10419,-1.29534 3.9193,-1.66866c0.76928,-0.15822 1.51591,-0.60518 2.2971,-0.52416c2.41022,0.24999 3.23851,1.20173 2.64839,3.61131c-0.00958,0.03912 -0.01976,0.0779 -0.03052,0.11633c0.07448,0.17868 0.10897,0.40077 0.0745,0.67648c-0.10893,0.87142 -0.75356,1.05409 -1.12739,1.08566c-1.22786,1.26908 -3.14239,2.0423 -4.45579,2.82261c-1.19317,0.70889 -1.74022,2.80299 -3.88805,0.95074c-0.50737,-0.43754 -0.82866,-0.85803 -0.99674,-1.25953c0.09527,0.85706 -0.15744,1.83143 -0.55594,2.69392c0.06813,0.04699 0.12466,0.10245 0.16745,0.16767c2.98812,4.55495 -4.75754,4.23296 -7.05712,3.63388c-0.85311,0 -1.75398,0 -2.32677,0zM335.03473,269.81154c0.17808,0.09132 0.35865,0.17816 0.54137,0.26021c0.33139,-0.21139 0.65898,-0.40932 0.94867,-0.58124c0.02479,-0.06838 0.04471,-0.1082 0.04471,-0.1082l0.16858,-0.01783c0.10737,-0.06321 0.20728,-0.12174 0.29753,-0.17479c0.11127,-0.6695 -0.79174,0.14116 -2.00085,0.62186zM347.60375,264.40312c0.53831,0.04789 1.07854,0.10331 1.62467,0.16498c0.05656,-0.14228 0.05164,-0.27805 -0.05497,-0.3959c-0.36853,-0.4074 -0.97873,-0.05852 -1.5697,0.23092z" fill="#ffffff" stroke="none" stroke-width="0.5"/><path d="M419.62948,271.2237c0.00631,-0.00959 0.01274,-0.01901 0.01928,-0.02826c-0.09947,0.00703 -0.19743,0.00631 -0.29206,-0.00425l-0.1692,0.00001v0.00011v0c0.14132,0.0003 0.28959,0.01288 0.44198,0.03238zM425.55544,270.63628l-0.9889,0.32963c-0.11607,0.64987 -0.01447,1.43353 -0.49516,1.85928c-1.17096,1.03713 -3.4286,1.17132 -5.60822,1.09611c0.35974,1.67023 -2.79841,2.6065 -3.57543,2.75386c-2.25861,0.42835 -5.11537,0.07275 -6.58411,-1.84998c-0.51547,-0.6748 -1.59673,-1.36402 -1.33268,-2.17107c0.07491,-0.22897 0.18801,-0.42321 0.33083,-0.58787l-0.17759,-0.2821c0.14936,-0.00415 0.29986,-0.0085 0.45128,-0.01298c-0.06144,-0.19472 -0.09103,-0.38904 -0.07349,-0.58141c-0.10484,0.00075 -0.20966,0.00127 -0.31448,0.00155c-2.06098,-0.00206 -4.5666,0.62874 -6.57534,0.49773c-2.52271,-0.16453 -2.59981,-1.80903 -4.62488,-2.01387c-1.38556,-0.14015 -2.76776,0.31444 -4.14704,0.50678c-1.85379,0.25851 -3.89777,0.21377 -5.87786,0.06302c-0.01482,0.24673 -0.02487,0.48054 -0.02487,0.69634c-0.07865,1.07696 0.4266,2.3782 -0.23595,3.23089c-2.87448,3.69942 -4.72984,-1.07866 -5.18343,-4.53785c-0.03574,-0.00611 -0.07158,-0.01233 -0.10752,-0.01865c-3.9568,0.49892 -8.05154,0.57217 -11.7231,0.5756h-1.5c-0.69036,0 -1.25,-0.55964 -1.25,-1.25c0,-0.44077 0.22813,-0.82825 0.57276,-1.05082l1.48387,-0.98925l0.26536,0.39804c3.96534,-2.69935 9.53696,-3.31176 14.22101,-4.09071c0.15199,-0.02527 4.90361,-0.80595 4.91497,-0.79745c0.85087,0.63679 0.98419,1.70473 0.69412,2.78019h1.09792v0c0.69036,0 1.25,0.55964 1.25,1.25c0,0.40436 -0.192,0.76388 -0.48981,0.99236c2.1963,-0.24279 4.39319,-0.51445 6.44004,-0.22622c2.01579,0.28386 2.43074,1.96657 4.37512,1.98613c2.11307,0.02125 4.27886,-0.50026 6.42466,-0.50227c2.07538,0.00633 4.15997,-0.08986 6.25025,-0.22483c-0.00017,-0.00837 -0.00025,-0.01676 -0.00025,-0.02517c0,-0.47329 0.26303,-0.88514 0.65089,-1.09734l2.14954,-1.22831l0.05051,0.08839c1.45664,-1.27255 3.04921,-2.36135 4.91699,-2.91925l1.90055,-0.95028c0.1737,-0.09145 0.37156,-0.14321 0.58151,-0.14321c0.69036,0 1.25,0.55964 1.25,1.25c0,0.26266 -0.08101,0.5064 -0.21942,0.7076l-0.1705,0.25576c1.58535,-0.34227 3.34384,-0.34445 4.75398,-0.20814c1.70532,0.16484 3.32219,0.84311 4.99873,1.19593c4.73057,0.99552 9.71558,1.32979 14.50855,1.97064c1.56734,0.20956 5.78855,0.37637 6.89271,1.84733c1.11768,1.48896 0.68117,2.9512 -0.24903,4.02596l0.00395,0.01185l1.29434,0.03592c-0.20843,0.36979 -0.37079,0.77784 -0.54161,1.17887l0.36218,0.36218l-1,1l-0.07127,-0.07127c-0.05086,0.06276 -0.10438,0.12329 -0.16097,0.18129l0.09836,0.5061c0,0 0,1.25 -1.25,1.25c-0.63135,0 -0.94382,-0.31888 -1.09846,-0.63452l-1.10177,-0.38162c-0.34513,0.00429 -0.68706,-0.03136 -1.02558,-0.09601c-0.03386,0.00464 -0.06754,0.00976 -0.10102,0.01537l-0.01368,-0.0384c-0.01879,-0.00395 -0.03756,-0.00799 -0.05633,-0.01211l0.00326,0.05618l-0.10642,0.00617v0.08493h-1.5c-0.69036,0 -1.25,-0.55964 -1.25,-1.25c0,-0.66894 0.52546,-1.21515 1.18614,-1.2484l1.32597,-0.07693c-0.00798,-0.05708 -0.01211,-0.11539 -0.01211,-0.17467c0,-0.5623 0.37128,-1.03788 0.88206,-1.19497l1.47266,-0.49089c0.66711,-0.03409 1.4097,-0.87622 0.88123,-1.58326c-0.56491,-0.75579 -1.85608,-0.34104 -2.78415,-0.51146c-2.42482,-0.44525 -4.92608,-0.6502 -7.36951,-0.98073c-3.60305,-0.4874 -7.23178,-1.36816 -10.83426,-1.98597c-0.15651,0.20719 -0.37605,0.36411 -0.63009,0.44224l-1.47266,0.49089l-0.00314,-0.00943l-0.0246,0.01832c-0.24588,0.06948 -0.49916,0.14629 -0.75855,0.22794c0.09008,0.17269 0.14101,0.36906 0.14101,0.57732c0,0.69036 -0.55964,1.25 -1.25,1.25h-1.5c-0.24866,0 -0.4973,0.00136 -0.74591,0.00397c-0.10502,0.02476 -0.2099,0.04832 -0.31473,0.07074c-0.15072,0.17154 -0.34769,0.30146 -0.57142,0.37026zM417.41864,271.188c0.07695,0.00012 0.15391,0.00024 0.23086,0.00037c-0.08158,-0.00558 -0.16102,-0.01899 -0.23755,-0.03948c0.00239,0.01287 0.00462,0.0259 0.0067,0.03912zM420.7397,271.171c-0.02911,0.00217 -0.05816,0.00415 -0.08715,0.00596l-0.00511,0.07097c0.03191,-0.02662 0.06265,-0.05225 0.09226,-0.07693zM383.4323,270.00392c-0.05544,-0.00608 -0.11073,-0.01217 -0.16587,-0.01828c0.27765,2.07582 0.60202,4.18693 0.17106,0.95566c0,-0.31244 -0.00277,-0.62491 -0.0052,-0.93738zM385.67948,265.09659c-0.04008,0.03006 -0.08354,0.05806 -0.12999,0.08419c0.03395,0.00088 0.06778,0.00172 0.10147,0.00252c0.00966,-0.02912 0.01917,-0.05806 0.02852,-0.08671z" fill="#ffffff" stroke="none" stroke-width="0.5"/></g><g stroke="none"><path d="M0.97525,178.87375v-97.68915h183v97.68915z" fill="#714400" stroke-width="NaN"/><path d="M-0.52475,112.26751v-33.90863h185v33.90863z" fill="#ffffff" stroke-width="0"/><path d="M28.10025,113.47854c0,2.67532 -7.3873,4.84409 -16.5,4.84409c-9.1127,0 -16.5,-2.16877 -16.5,-4.84409c0,-2.67532 7.3873,-4.84409 16.5,-4.84409c9.1127,0 16.5,2.16877 16.5,4.84409z" fill="#ffffff" stroke-width="0"/><path d="M55.60025,113.88221c0,2.67532 -7.3873,4.84409 -16.5,4.84409c-9.1127,0 -16.5,-2.16877 -16.5,-4.84409c0,-2.67532 7.3873,-4.84409 16.5,-4.84409c9.1127,0 16.5,2.16877 16.5,4.84409z" fill="#ffffff" stroke-width="0"/><path d="M109.10025,115.09323c0,2.67532 -7.3873,4.84409 -16.5,4.84409c-9.1127,0 -16.5,-2.16877 -16.5,-4.84409c0,-2.67532 7.3873,-4.84409 16.5,-4.84409c9.1127,0 16.5,2.16877 16.5,4.84409z" fill="#ffffff" stroke-width="0"/><path d="M82.60025,114.68956c0,2.67532 -7.3873,4.84409 -16.5,4.84409c-9.1127,0 -16.5,-2.16877 -16.5,-4.84409c0,-2.67532 7.3873,-4.84409 16.5,-4.84409c9.1127,0 16.5,2.16877 16.5,4.84409z" fill="#ffffff" stroke-width="0"/><path d="M164.60025,115.09323c0,2.67532 -7.3873,4.84409 -16.5,4.84409c-9.1127,0 -16.5,-2.16877 -16.5,-4.84409c0,-2.67532 7.3873,-4.84409 16.5,-4.84409c9.1127,0 16.5,2.16877 16.5,4.84409z" fill="#ffffff" stroke-width="0"/><path d="M135.60025,114.28589c0,2.67532 -7.3873,4.84409 -16.5,4.84409c-9.1127,0 -16.5,-2.16877 -16.5,-4.84409c0,-2.67532 7.3873,-4.84409 16.5,-4.84409c9.1127,0 16.5,2.16877 16.5,4.84409z" fill="#ffffff" stroke-width="0"/><path d="M171.60025,120.74467c-9.1127,0 -16.5,-2.16877 -16.5,-4.84409c0,-2.67532 7.3873,-4.84409 16.5,-4.84409c5.08246,0 9.62819,0.67463 12.65492,1.73551c-0.15546,0.47689 -0.23826,0.97759 -0.23826,1.49389c0,0.45407 0.06404,0.89607 0.18524,1.32043c-0.33452,0.67324 -0.51856,1.40831 -0.51856,2.17809c0,0.46548 0.0673,0.91828 0.19447,1.35238c-3.0206,0.98707 -7.40225,1.60789 -12.27781,1.60789z" fill="#ffffff" stroke-width="0"/><path d="M12.60025,133.13396c0,-0.55735 0.55964,-1.00919 1.25,-1.00919c0.69036,0 1.25,0.45183 1.25,1.00919c0,0.55735 -0.55964,1.00919 -1.25,1.00919c-0.69036,0 -1.25,-0.45183 -1.25,-1.00919z" fill="#553300" stroke-width="0.5"/><path d="M16.60025,150.08828c0,-0.55735 0.55964,-1.00919 1.25,-1.00919c0.69036,0 1.25,0.45183 1.25,1.00919c0,0.55735 -0.55964,1.00919 -1.25,1.00919c-0.69036,0 -1.25,-0.45183 -1.25,-1.00919z" fill="#553300" stroke-width="0.5"/><path d="M41.60025,128.28987c0,-0.55735 0.55965,-1.00919 1.25,-1.00919c0.69035,0 1.25,0.45183 1.25,1.00919c0,0.55735 -0.55965,1.00919 -1.25,1.00919c-0.69035,0 -1.25,-0.45183 -1.25,-1.00919z" fill="#553300" stroke-width="0.5"/><path d="M42.60025,148.47358c0,-0.55735 0.55965,-1.00919 1.25,-1.00919c0.69035,0 1.25,0.45183 1.25,1.00919c0,0.55735 -0.55965,1.00919 -1.25,1.00919c-0.69035,0 -1.25,-0.45183 -1.25,-1.00919z" fill="#553300" stroke-width="0.5"/><path d="M36.60025,137.97805c0,-0.55735 0.55965,-1.00919 1.25,-1.00919c0.69035,0 1.25,0.45183 1.25,1.00919c0,0.55735 -0.55965,1.00919 -1.25,1.00919c-0.69035,0 -1.25,-0.45183 -1.25,-1.00919z" fill="#553300" stroke-width="0.5"/><path d="M30.60025,165.4279c0,-0.55736 0.55964,-1.00919 1.25,-1.00919c0.69036,0 1.25,0.45182 1.25,1.00919c0,0.55736 -0.55964,1.00919 -1.25,1.00919c-0.69036,0 -1.25,-0.45182 -1.25,-1.00919z" fill="#553300" stroke-width="0.5"/><path d="M82.60025,137.97805c0,-0.55736 0.55964,-1.00919 1.25,-1.00919c0.69036,0 1.25,0.45182 1.25,1.00919c0,0.55736 -0.55964,1.00919 -1.25,1.00919c-0.69036,0 -1.25,-0.45182 -1.25,-1.00919z" fill="#553300" stroke-width="0.5"/><path d="M152.60025,164.62055c0,-0.55736 0.55964,-1.00919 1.25,-1.00919c0.69036,0 1.25,0.45182 1.25,1.00919c0,0.55736 -0.55964,1.00919 -1.25,1.00919c-0.69036,0 -1.25,-0.45182 -1.25,-1.00919z" fill="#553300" stroke-width="0.5"/><path d="M85.60025,161.39116c0,-0.55736 0.55964,-1.00919 1.25,-1.00919c0.69036,0 1.25,0.45182 1.25,1.00919c0,0.55736 -0.55964,1.00919 -1.25,1.00919c-0.69036,0 -1.25,-0.45182 -1.25,-1.00919z" fill="#553300" stroke-width="0.5"/><path d="M122.60025,137.97805c0,-0.55736 0.55964,-1.00919 1.25,-1.00919c0.69036,0 1.25,0.45182 1.25,1.00919c0,0.55736 -0.55964,1.00919 -1.25,1.00919c-0.69036,0 -1.25,-0.45182 -1.25,-1.00919z" fill="#553300" stroke-width="0.5"/><path d="M125.60025,157.35441c0,-0.55736 0.55964,-1.00919 1.25,-1.00919c0.69036,0 1.25,0.45182 1.25,1.00919c0,0.55736 -0.55964,1.00919 -1.25,1.00919c-0.69036,0 -1.25,-0.45182 -1.25,-1.00919z" fill="#553300" stroke-width="0.5"/><path d="M154.60025,136.36336c0,-0.55736 0.55964,-1.00919 1.25,-1.00919c0.69036,0 1.25,0.45182 1.25,1.00919c0,0.55736 -0.55964,1.00919 -1.25,1.00919c-0.69036,0 -1.25,-0.45182 -1.25,-1.00919z" fill="#553300" stroke-width="0.5"/><path d="M66.60025,150.08828c0,-0.55736 0.55964,-1.00919 1.25,-1.00919c0.69036,0 1.25,0.45182 1.25,1.00919c0,0.55736 -0.55964,1.00919 -1.25,1.00919c-0.69036,0 -1.25,-0.45182 -1.25,-1.00919z" fill="#553300" stroke-width="0.5"/><path d="M98.60025,132.32662c0,-0.55736 0.55964,-1.00919 1.25,-1.00919c0.69036,0 1.25,0.45182 1.25,1.00919c0,0.55736 -0.55964,1.00919 -1.25,1.00919c-0.69036,0 -1.25,-0.45182 -1.25,-1.00919z" fill="#553300" stroke-width="0.5"/><path d="M102.60025,150.89563c0,-0.55736 0.55964,-1.00919 1.25,-1.00919c0.69036,0 1.25,0.45182 1.25,1.00919c0,0.55736 -0.55964,1.00919 -1.25,1.00919c-0.69036,0 -1.25,-0.45182 -1.25,-1.00919z" fill="#553300" stroke-width="0.5"/><path d="M170.60025,154.12502c0,-0.55736 0.55964,-1.00919 1.25,-1.00919c0.69036,0 1.25,0.45182 1.25,1.00919c0,0.55736 -0.55964,1.00919 -1.25,1.00919c-0.69036,0 -1.25,-0.45182 -1.25,-1.00919z" fill="#553300" stroke-width="0.5"/><path d="M53.35025,136.36336c0,-1.11471 1.11929,-2.01837 2.5,-2.01837c1.38071,0 2.5,0.90366 2.5,2.01837c0,1.11471 -1.11929,2.01837 -2.5,2.01837c-1.38071,0 -2.5,-0.90366 -2.5,-2.01837z" fill="#553300" stroke-width="0.5"/><path d="M47.35025,159.77646c0,-1.11471 1.11929,-2.01837 2.5,-2.01837c1.38071,0 2.5,0.90366 2.5,2.01837c0,1.11471 -1.11929,2.01837 -2.5,2.01837c-1.38071,0 -2.5,-0.90366 -2.5,-2.01837z" fill="#553300" stroke-width="0.5"/><path d="M28.35025,142.82214c0,-1.11471 1.11929,-2.01837 2.5,-2.01837c1.38071,0 2.5,0.90366 2.5,2.01837c0,1.11471 -1.11929,2.01837 -2.5,2.01837c-1.38071,0 -2.5,-0.90366 -2.5,-2.01837z" fill="#553300" stroke-width="0.5"/><path d="M5.35025,167.04259c0,-1.11471 1.11929,-2.01837 2.5,-2.01837c1.38071,0 2.5,0.90366 2.5,2.01837c0,1.11471 -1.11929,2.01837 -2.5,2.01837c-1.38071,0 -2.5,-0.90366 -2.5,-2.01837z" fill="#553300" stroke-width="0.5"/><path d="M72.35025,170.27199c0,-1.11471 1.11929,-2.01837 2.5,-2.01837c1.38071,0 2.5,0.90366 2.5,2.01837c0,1.11471 -1.11929,2.01837 -2.5,2.01837c-1.38071,0 -2.5,-0.90366 -2.5,-2.01837z" fill="#553300" stroke-width="0.5"/><path d="M81.35025,146.05154c0,-1.11471 1.11929,-2.01837 2.5,-2.01837c1.38071,0 2.5,0.90366 2.5,2.01837c0,1.11471 -1.11929,2.01837 -2.5,2.01837c-1.38071,0 -2.5,-0.90366 -2.5,-2.01837z" fill="#553300" stroke-width="0.5"/><path d="M99.35025,167.04259c0,-1.11471 1.11929,-2.01837 2.5,-2.01837c1.38071,0 2.5,0.90366 2.5,2.01837c0,1.11471 -1.11929,2.01837 -2.5,2.01837c-1.38071,0 -2.5,-0.90366 -2.5,-2.01837z" fill="#553300" stroke-width="0.5"/><path d="M139.35025,146.85889c0,-1.11471 1.11929,-2.01837 2.5,-2.01837c1.38071,0 2.5,0.90366 2.5,2.01837c0,1.11471 -1.11929,2.01837 -2.5,2.01837c-1.38071,0 -2.5,-0.90366 -2.5,-2.01837z" fill="#553300" stroke-width="0.5"/><path d="M103.35025,142.0148c0,-1.11471 1.11929,-2.01837 2.5,-2.01837c1.38071,0 2.5,0.90366 2.5,2.01837c0,1.11471 -1.11929,2.01837 -2.5,2.01837c-1.38071,0 -2.5,-0.90366 -2.5,-2.01837z" fill="#553300" stroke-width="0.5"/><path d="M133.35025,129.90457c0,-1.11471 1.11929,-2.01837 2.5,-2.01837c1.38071,0 2.5,0.90366 2.5,2.01837c0,1.11471 -1.11929,2.01837 -2.5,2.01837c-1.38071,0 -2.5,-0.90366 -2.5,-2.01837z" fill="#553300" stroke-width="0.5"/><path d="M113.35025,171.07934c0,-1.11471 1.11929,-2.01837 2.5,-2.01837c1.38071,0 2.5,0.90366 2.5,2.01837c0,1.11471 -1.11929,2.01837 -2.5,2.01837c-1.38071,0 -2.5,-0.90366 -2.5,-2.01837z" fill="#553300" stroke-width="0.5"/><path d="M168.35025,169.46464c0,-1.11471 1.11929,-2.01837 2.5,-2.01837c1.38071,0 2.5,0.90366 2.5,2.01837c0,1.11471 -1.11929,2.01837 -2.5,2.01837c-1.38071,0 -2.5,-0.90366 -2.5,-2.01837z" fill="#553300" stroke-width="0.5"/><path d="M9.10025,142.82214c0,-1.67207 1.67893,-3.02756 3.75,-3.02756c2.07107,0 3.75,1.35548 3.75,3.02756c0,1.67207 -1.67893,3.02756 -3.75,3.02756c-2.07107,0 -3.75,-1.35548 -3.75,-3.02756z" fill="#553300" stroke-width="0.5"/><path d="M15.10025,165.4279c0,-1.67207 1.67893,-3.02756 3.75,-3.02756c2.07107,0 3.75,1.35548 3.75,3.02756c0,1.67207 -1.67893,3.02756 -3.75,3.02756c-2.07107,0 -3.75,-1.35548 -3.75,-3.02756z" fill="#553300" stroke-width="0.5"/><path d="M72.10025,131.51927c0,-1.67207 1.67893,-3.02756 3.75,-3.02756c2.07107,0 3.75,1.35548 3.75,3.02756c0,1.67207 -1.67893,3.02756 -3.75,3.02756c-2.07107,0 -3.75,-1.35548 -3.75,-3.02756z" fill="#553300" stroke-width="0.5"/><path d="M49.10025,171.88668c0,-1.67207 1.67893,-3.02756 3.75,-3.02756c2.07107,0 3.75,1.35548 3.75,3.02756c0,1.67207 -1.67893,3.02756 -3.75,3.02756c-2.07107,0 -3.75,-1.35548 -3.75,-3.02756z" fill="#553300" stroke-width="0.5"/><path d="M115.10025,150.89563c0,-1.67207 1.67893,-3.02756 3.75,-3.02756c2.07107,0 3.75,1.35548 3.75,3.02756c0,1.67207 -1.67893,3.02756 -3.75,3.02756c-2.07107,0 -3.75,-1.35548 -3.75,-3.02756z" fill="#553300" stroke-width="0.5"/><path d="M161.10025,146.05154c0,-1.67207 1.67893,-3.02756 3.75,-3.02756c2.07107,0 3.75,1.35548 3.75,3.02756c0,1.67207 -1.67893,3.02756 -3.75,3.02756c-2.07107,0 -3.75,-1.35548 -3.75,-3.02756z" fill="#553300" stroke-width="0.5"/><path d="M135.10025,168.65729c0,-1.67207 1.67893,-3.02756 3.75,-3.02756c2.07107,0 3.75,1.35548 3.75,3.02756c0,1.67207 -1.67893,3.02756 -3.75,3.02756c-2.07107,0 -3.75,-1.35548 -3.75,-3.02756z" fill="#553300" stroke-width="0.5"/><path d="M72.10025,157.35441c0,-1.67207 1.67893,-3.02756 3.75,-3.02756c2.07107,0 3.75,1.35548 3.75,3.02756c0,1.67207 -1.67893,3.02756 -3.75,3.02756c-2.07107,0 -3.75,-1.35548 -3.75,-3.02756z" fill="#553300" stroke-width="0.5"/></g></g></g></svg>