<svg version="1.1" xmlns="http://www.w3.org/2000/svg" xmlns:xlink="http://www.w3.org/1999/xlink" width="529.61886" height="96.17333" viewBox="0,0,529.61886,96.17333"><g transform="translate(5.5,-284.23594)"><g data-paper-data="{&quot;isPaintingLayer&quot;:true}" fill-rule="nonzero" stroke="none" stroke-linecap="butt" stroke-linejoin="miter" stroke-miterlimit="10" stroke-dasharray="" stroke-dashoffset="0" style="mix-blend-mode: normal"><path d="" fill="#ffffff" stroke-width="0"/><g fill="#ff0000" stroke-width="0"><path d="M162.45467,359.67981l24.46141,-27.39229l24.37936,27.73111l-24.46141,17.98005z"/><path d="M189.94122,360.91491l24.46141,-27.39229l24.37936,27.73111l-24.46141,17.98005z"/><path d="M217.4278,360.26756l24.46141,-27.3923l24.37936,27.73111l-24.46141,17.98005z"/><path d="M249.41735,360.56143l24.46141,-27.39229l24.37936,27.73111l-24.46141,17.98005z"/><path d="M281.4069,360.85531l24.46141,-27.39229l24.37936,27.73111l-24.46141,17.98004z"/><path d="M308.89347,362.09041l24.46141,-27.39229l24.37936,27.73111l-24.46141,17.98005z"/></g><g><path d="M-1.733,378.50004v-92.0513h174.78898v92.0513z" fill="#714400" stroke-width="0"/><path d="M-2.10969,312.55942v-28.32348h175.91907v28.32348z" fill="#ffffff" stroke-width="0"/><path d="M29.15644,314.77218c0,5.13274 -7.75811,9.29364 -17.32822,9.29364c-9.57011,0 -17.32822,-4.1609 -17.32822,-9.29364c0,-5.13274 7.75811,-9.29364 17.32822,-9.29364c9.57011,0 17.32822,4.1609 17.32822,9.29364z" fill="#ffffff" stroke-width="0"/><path d="M58.91577,315.21477c0,5.13274 -7.75811,9.29364 -17.32822,9.29364c-9.57011,0 -17.32822,-4.16091 -17.32822,-9.29364c0,-5.13274 7.75811,-9.29364 17.32822,-9.29364c9.57011,0 17.32822,4.1609 17.32822,9.29364z" fill="#ffffff" stroke-width="0"/><path d="M86.41489,316.09988c0,5.13274 -7.7581,9.29364 -17.32821,9.29364c-9.57011,0 -17.32822,-4.16091 -17.32822,-9.29364c0,-5.13274 7.75811,-9.29364 17.32822,-9.29364c9.57011,0 17.32821,4.1609 17.32821,9.29364z" fill="#ffffff" stroke-width="0"/><path d="M111.65382,316.09988c0,5.13274 -7.75811,9.29364 -17.32822,9.29364c-9.57011,0 -17.32822,-4.16091 -17.32822,-9.29364c0,-5.13274 7.75811,-9.29364 17.32822,-9.29364c9.57011,0 17.32822,4.1609 17.32822,9.29364z" fill="#ffffff" stroke-width="0"/><path d="M160.62487,316.98499c0,5.13274 -7.7581,9.29364 -17.32821,9.29364c-9.57011,0 -17.32822,-4.1609 -17.32822,-9.29364c0,-5.13274 7.75811,-9.29365 17.32822,-9.29365c9.57011,0 17.32821,4.16091 17.32821,9.29365z" fill="#ffffff" stroke-width="0"/><path d="M138.77624,316.09988c0,5.13274 -7.75811,9.29364 -17.32822,9.29364c-9.57011,0 -17.32822,-4.16091 -17.32822,-9.29364c0,-5.13274 7.7581,-9.29364 17.32822,-9.29364c9.57011,0 17.32822,4.1609 17.32822,9.29364z" fill="#ffffff" stroke-width="0"/><path d="M168.15887,325.39349c-9.57011,0 -17.32821,-4.16091 -17.32821,-9.29364c0,-5.13274 7.7581,-9.29364 17.32821,-9.29364c1.8151,0 3.56502,0.14968 5.20919,0.42727c0.02426,0.03078 0.03784,0.04673 0.03784,0.04673c0.07478,0.08785 0.1546,0.17025 0.23802,0.24867c-0.37226,0.68625 -0.58795,1.50114 -0.58795,2.37521c0,1.42274 0.57146,2.68868 1.45944,3.49828c-0.21161,0.55315 -0.32935,1.16661 -0.32935,1.81236c0,0.77391 0.1691,1.50143 0.46624,2.13434c-0.05862,0.31018 -0.08954,0.63262 -0.08954,0.96355c0,0.33092 0.03092,0.65335 0.08954,0.96355c-0.29715,0.6329 -0.46624,1.36042 -0.46624,2.13433c0,0.54774 0.0847,1.07224 0.23955,1.55641c-0.31463,0.56269 -0.52297,1.21472 -0.59152,1.91669c-1.77806,0.33041 -3.68758,0.5099 -5.67524,0.5099z" fill="#ffffff" stroke-width="0"/><path d="M6.36606,334.24458c0,-1.83312 1.2649,-3.31916 2.82525,-3.31916c1.56035,0 2.82525,1.48604 2.82525,3.31916c0,1.83312 -1.2649,3.31916 -2.82525,3.31916c-1.56034,0 -2.82525,-1.48604 -2.82525,-3.31916z" fill="#553300" stroke-width="0.5"/><path d="M33.11179,357.25743c0,-1.83312 1.2649,-3.31915 2.82525,-3.31915c1.56035,0 2.82525,1.48603 2.82525,3.31915c0,1.83312 -1.2649,3.31916 -2.82525,3.31916c-1.56035,0 -2.82525,-1.48604 -2.82525,-3.31916z" fill="#553300" stroke-width="0.5"/><path d="M46.2963,338.67015c0,-1.83312 1.26491,-3.31916 2.82526,-3.31916c1.56034,0 2.82525,1.48604 2.82525,3.31916c0,1.83312 -1.26491,3.31916 -2.82525,3.31916c-1.56034,0 -2.82525,-1.48604 -2.82525,-3.31916z" fill="#553300" stroke-width="0.5"/><path d="M97.90425,352.83189c0,-1.83312 1.26491,-3.31916 2.82525,-3.31916c1.56034,0 2.82525,1.48604 2.82525,3.31916c0,1.83312 -1.26491,3.31916 -2.82525,3.31916c-1.56034,0 -2.82525,-1.48604 -2.82525,-3.31916z" fill="#553300" stroke-width="0.5"/><path d="M140.4714,343.0957c0,-1.83312 1.26491,-3.31916 2.82525,-3.31916c1.56034,0 2.82525,1.48604 2.82525,3.31916c0,1.83312 -1.26491,3.31915 -2.82525,3.31915c-1.56034,0 -2.82525,-1.48603 -2.82525,-3.31915z" fill="#553300" stroke-width="0.5"/><path d="M115.60917,334.68712c0,-1.83312 1.2649,-3.31915 2.82525,-3.31915c1.56034,0 2.82526,1.48603 2.82526,3.31915c0,1.83312 -1.26491,3.31916 -2.82526,3.31916c-1.56034,0 -2.82525,-1.48604 -2.82525,-3.31916z" fill="#553300" stroke-width="0.5"/><path d="M23.88263,337.78504c0,-1.22208 0.84328,-2.21277 1.88351,-2.21277c1.04023,0 1.8835,0.99069 1.8835,2.21277c0,1.22208 -0.84327,2.21277 -1.8835,2.21277c-1.04023,0 -1.88351,-0.99069 -1.88351,-2.21277z" fill="#553300" stroke-width="0.5"/><path d="M15.59522,351.94678c0,-1.22208 0.84327,-2.21277 1.8835,-2.21277c1.04023,0 1.88351,0.99069 1.88351,2.21277c0,1.22208 -0.84328,2.21277 -1.88351,2.21277c-1.04023,0 -1.8835,-0.99069 -1.8835,-2.21277z" fill="#553300" stroke-width="0.5"/><path d="M66.44977,352.83189c0,-1.22208 0.84328,-2.21277 1.8835,-2.21277c1.04022,0 1.8835,0.99069 1.8835,2.21277c0,1.22208 -0.84328,2.21277 -1.8835,2.21277c-1.04022,0 -1.8835,-0.99069 -1.8835,-2.21277z" fill="#553300" stroke-width="0.5"/><path d="M87.92169,337.78504c0,-1.22208 0.84327,-2.21277 1.8835,-2.21277c1.04022,0 1.8835,0.99069 1.8835,2.21277c0,1.22208 -0.84328,2.21277 -1.8835,2.21277c-1.04022,0 -1.8835,-0.99069 -1.8835,-2.21277z" fill="#553300" stroke-width="0.5"/><path d="M122.57813,356.37233c0,-1.22208 0.84328,-2.21277 1.8835,-2.21277c1.04023,0 1.8835,0.99069 1.8835,2.21277c0,1.22208 -0.84328,2.21277 -1.8835,2.21277c-1.04023,0 -1.8835,-0.99069 -1.8835,-2.21277z" fill="#553300" stroke-width="0.5"/><path d="M157.98796,340.88292c0,-1.22208 0.84327,-2.21277 1.8835,-2.21277c1.04023,0 1.8835,0.99069 1.8835,2.21277c0,1.22208 -0.84327,2.21278 -1.8835,2.21278c-1.04023,0 -1.8835,-0.9907 -1.8835,-2.21278z" fill="#553300" stroke-width="0.5"/><path d="M39.139,329.81906c0,-0.61104 0.42163,-1.10638 0.94175,-1.10638c0.52011,0 0.94175,0.49534 0.94175,1.10638c0,0.61104 -0.42163,1.10638 -0.94175,1.10638c-0.52011,0 -0.94175,-0.49534 -0.94175,-1.10638z" fill="#553300" stroke-width="0.5"/><path d="M45.91961,345.30847c0,-0.61104 0.42163,-1.10638 0.94175,-1.10638c0.52011,0 0.94175,0.49534 0.94175,1.10638c0,0.61104 -0.42164,1.10638 -0.94175,1.10638c-0.52011,0 -0.94175,-0.49534 -0.94175,-1.10638z" fill="#553300" stroke-width="0.5"/><path d="M23.69428,343.0957c0,-0.61104 0.42164,-1.10639 0.94176,-1.10639c0.52012,0 0.94175,0.49534 0.94175,1.10639c0,0.61104 -0.42163,1.10638 -0.94175,1.10638c-0.52012,0 -0.94176,-0.49534 -0.94176,-1.10638z" fill="#553300" stroke-width="0.5"/><path d="M61.74102,335.57227c0,-0.61104 0.42164,-1.10638 0.94175,-1.10638c0.52011,0 0.94175,0.49534 0.94175,1.10638c0,0.61104 -0.42163,1.10638 -0.94175,1.10638c-0.52011,0 -0.94175,-0.49534 -0.94175,-1.10638z" fill="#553300" stroke-width="0.5"/><path d="M83.21294,352.38933c0,-0.61104 0.42163,-1.10638 0.94175,-1.10638c0.52011,0 0.94175,0.49534 0.94175,1.10638c0,0.61104 -0.42164,1.10638 -0.94175,1.10638c-0.52011,0 -0.94175,-0.49534 -0.94175,-1.10638z" fill="#553300" stroke-width="0.5"/><path d="M58.72741,353.27445c0,-0.61104 0.42164,-1.10639 0.94175,-1.10639c0.52011,0 0.94175,0.49534 0.94175,1.10639c0,0.61104 -0.42163,1.10638 -0.94175,1.10638c-0.52011,0 -0.94175,-0.49534 -0.94175,-1.10638z" fill="#553300" stroke-width="0.5"/><path d="M78.31583,337.78504c0,-0.61104 0.42163,-1.10639 0.94175,-1.10639c0.52011,0 0.94175,0.49534 0.94175,1.10639c0,0.61104 -0.42164,1.10638 -0.94175,1.10638c-0.52011,0 -0.94175,-0.49534 -0.94175,-1.10638z" fill="#553300" stroke-width="0.5"/><path d="M100.91786,347.96379c0,-0.61104 0.42163,-1.10638 0.94175,-1.10638c0.52011,0 0.94175,0.49534 0.94175,1.10638c0,0.61104 -0.42163,1.10638 -0.94175,1.10638c-0.52011,0 -0.94175,-0.49534 -0.94175,-1.10638z" fill="#553300" stroke-width="0.5"/><path d="M114.47907,343.0957c0,-0.61104 0.42163,-1.10639 0.94175,-1.10639c0.52011,0 0.94175,0.49534 0.94175,1.10639c0,0.61104 -0.42163,1.10638 -0.94175,1.10638c-0.52011,0 -0.94175,-0.49534 -0.94175,-1.10638z" fill="#553300" stroke-width="0.5"/><path d="M133.69079,338.67015c0,-0.61104 0.42163,-1.10639 0.94175,-1.10639c0.52011,0 0.94175,0.49534 0.94175,1.10639c0,0.61104 -0.42163,1.10638 -0.94175,1.10638c-0.52011,0 -0.94175,-0.49534 -0.94175,-1.10638z" fill="#553300" stroke-width="0.5"/><path d="M136.70439,355.04466c0,-0.61104 0.42163,-1.10638 0.94175,-1.10638c0.52011,0 0.94175,0.49534 0.94175,1.10638c0,0.61104 -0.42163,1.10638 -0.94175,1.10638c-0.52011,0 -0.94175,-0.49534 -0.94175,-1.10638z" fill="#553300" stroke-width="0.5"/><path d="M157.42291,356.37233c0,-0.61104 0.42164,-1.10638 0.94176,-1.10638c0.52011,0 0.94175,0.49534 0.94175,1.10638c0,0.61104 -0.42163,1.10639 -0.94175,1.10639c-0.52011,0 -0.94176,-0.49534 -0.94176,-1.10639z" fill="#553300" stroke-width="0.5"/><path d="M29.34478,349.29146c0,-1.10638 0.94175,-1.10638 0.94175,-1.10638h1.1301c0,0 0.94175,0 0.94175,1.10638c0,1.10638 -0.94175,1.10639 -0.94175,1.10639h-1.1301c0,0 -0.94175,0 -0.94175,-1.10639z" fill="#553300" stroke-width="0.5"/><path d="M6.74276,343.0957c0,-0.61104 0.42164,-1.10639 0.94175,-1.10639c0.52011,0 0.94175,0.49534 0.94175,1.10639c0,0.61104 -0.42164,1.10638 -0.94175,1.10638c-0.52011,0 -0.94175,-0.49534 -0.94175,-1.10638z" fill="#553300" stroke-width="0.5"/></g><path d="M350.42498,379.00004v-90.21304h172.49027v90.21304z" fill="#714400" stroke-width="0"/><path d="M350.05323,314.37627v-27.75786h173.60551v27.75786z" fill="#ffffff" stroke-width="0"/><path d="M380.90818,316.54483c0,5.03024 -6.60429,9.10805 -14.7511,9.10805c-8.14681,0 -14.7511,-4.07781 -14.7511,-9.10805c0,-5.03024 6.6043,-9.10805 14.7511,-9.10805c8.14681,0 14.7511,4.07781 14.7511,9.10805z" fill="#ffffff" stroke-width="0"/><path d="M410.27613,316.97855c0,5.03024 -7.65608,9.10805 -17.10033,9.10805c-9.44425,0 -17.10033,-4.07781 -17.10033,-9.10805c0,-5.03024 7.65608,-9.10805 17.10033,-9.10805c9.44425,0 17.10033,4.07781 17.10033,9.10805z" fill="#ffffff" stroke-width="0"/><path d="M437.41361,317.84601c0,5.03024 -7.65608,9.10805 -17.10033,9.10805c-9.44425,0 -17.10033,-4.07781 -17.10033,-9.10805c0,-5.03024 7.65608,-9.10805 17.10033,-9.10805c9.44425,0 17.10033,4.07782 17.10033,9.10805z" fill="#ffffff" stroke-width="0"/><path d="M462.32061,317.84601c0,5.03024 -7.65608,9.10805 -17.10033,9.10805c-9.44425,0 -17.10033,-4.07781 -17.10033,-9.10805c0,-5.03024 7.65608,-9.10805 17.10033,-9.10805c9.44425,0 17.10033,4.07782 17.10033,9.10805z" fill="#ffffff" stroke-width="0"/><path d="M510.27587,316.97855c0,5.03024 -7.65608,9.10805 -17.10033,9.10805c-9.44425,0 -17.10033,-4.07781 -17.10033,-9.10805c0,-5.03024 7.65608,-9.10805 17.10033,-9.10805c9.44425,0 17.10033,4.07781 17.10033,9.10805z" fill="#ffffff" stroke-width="0"/><path d="M489.08634,316.54483c0,5.03024 -7.65608,9.10805 -17.10033,9.10805c-9.44425,0 -17.10033,-4.07781 -17.10033,-9.10805c0,-5.03024 7.65608,-9.10805 17.10033,-9.10805c9.44425,0 17.10033,4.07781 17.10033,9.10805z" fill="#ffffff" stroke-width="0"/><path d="M517.71081,327.38777c-9.44425,0 -17.10033,-4.07781 -17.10033,-9.10805c0,-5.03024 7.65608,-9.10805 17.10033,-9.10805c1.79123,0 3.51815,0.1467 5.1407,0.41874c0.02393,0.03016 0.03734,0.0458 0.03734,0.0458c0.0738,0.0861 0.15256,0.16685 0.2349,0.24371c-0.36736,0.67255 -0.58022,1.47116 -0.58022,2.32777c0,1.39433 0.56395,2.635 1.44025,3.42843c-0.20883,0.5421 -0.32502,1.14331 -0.32502,1.77617c0,0.75846 0.16687,1.47145 0.46011,2.09171c-0.05785,0.30399 -0.08837,0.61999 -0.08837,0.9443c0,0.3243 0.03051,0.64031 0.08837,0.9443c-0.29324,0.62027 -0.46011,1.33326 -0.46011,2.09172c0,0.5368 0.08358,1.05083 0.2364,1.52532c-0.31049,0.55145 -0.51609,1.19046 -0.58374,1.87841c-1.75468,0.32382 -3.63908,0.49971 -5.6006,0.49971z" fill="#ffffff" stroke-width="0"/><path d="M384.81151,358.18165c0,-1.79651 1.24827,-3.25288 2.7881,-3.25288c1.53982,0 2.7881,1.45636 2.7881,3.25288c0,1.79651 -1.24827,3.25288 -2.7881,3.25288c-1.53982,0 -2.7881,-1.45636 -2.7881,-3.25288z" fill="#553300" stroke-width="0.5"/><path d="M397.82263,339.96555c0,-1.79651 1.24828,-3.25287 2.7881,-3.25287c1.53982,0 2.7881,1.45635 2.7881,3.25287c0,1.79651 -1.24827,3.25288 -2.7881,3.25288c-1.53982,0 -2.7881,-1.45636 -2.7881,-3.25288z" fill="#553300" stroke-width="0.5"/><path d="M448.75187,353.84448c0,-1.79651 1.24827,-3.25288 2.7881,-3.25288c1.53982,0 2.7881,1.45636 2.7881,3.25288c0,1.79651 -1.24827,3.25287 -2.7881,3.25287c-1.53982,0 -2.7881,-1.45636 -2.7881,-3.25287z" fill="#553300" stroke-width="0.5"/><path d="M490.7592,344.30272c0,-1.79651 1.24827,-3.25287 2.7881,-3.25287c1.53982,0 2.7881,1.45636 2.7881,3.25287c0,1.79651 -1.24827,3.25287 -2.7881,3.25287c-1.53982,0 -2.7881,-1.45636 -2.7881,-3.25287z" fill="#553300" stroke-width="0.5"/><path d="M466.22394,336.06211c0,-1.79651 1.24827,-3.25288 2.7881,-3.25288c1.53982,0 2.7881,1.45636 2.7881,3.25288c0,1.79651 -1.24828,3.25287 -2.7881,3.25287c-1.53982,0 -2.7881,-1.45635 -2.7881,-3.25287z" fill="#553300" stroke-width="0.5"/><path d="M375.70373,339.09812c0,-1.19768 0.83218,-2.16859 1.85873,-2.16859c1.02655,0 1.85873,0.97091 1.85873,2.16859c0,1.19768 -0.83218,2.16858 -1.85873,2.16858c-1.02655,0 -1.85873,-0.97091 -1.85873,-2.16858z" fill="#553300" stroke-width="0.5"/><path d="M417.71106,353.84448c0,-1.19768 0.83218,-2.16858 1.85873,-2.16858c1.02655,0 1.85873,0.97091 1.85873,2.16858c0,1.19768 -0.83218,2.16859 -1.85873,2.16859c-1.02655,0 -1.85873,-0.97091 -1.85873,-2.16859z" fill="#553300" stroke-width="0.5"/><path d="M438.9006,339.09812c0,-1.19768 0.83218,-2.16859 1.85873,-2.16859c1.02655,0 1.85873,0.97091 1.85873,2.16859c0,1.19768 -0.83219,2.16858 -1.85873,2.16858c-1.02655,0 -1.85873,-0.97091 -1.85873,-2.16858z" fill="#553300" stroke-width="0.5"/><path d="M473.10125,357.31422c0,-1.19768 0.83218,-2.16858 1.85873,-2.16858c1.02655,0 1.85873,0.97091 1.85873,2.16858c0,1.19768 -0.83218,2.16858 -1.85873,2.16858c-1.02655,0 -1.85873,-0.97091 -1.85873,-2.16858z" fill="#553300" stroke-width="0.5"/><path d="M508.0454,342.13414c0,-1.19768 0.83218,-2.16859 1.85873,-2.16859c1.02655,0 1.85873,0.97091 1.85873,2.16859c0,1.19768 -0.83218,2.16858 -1.85873,2.16858c-1.02655,0 -1.85873,-0.97091 -1.85873,-2.16858z" fill="#553300" stroke-width="0.5"/><path d="M390.75945,331.29121c0,-0.59884 0.41609,-1.08429 0.92937,-1.08429c0.51327,0 0.92937,0.48545 0.92937,1.08429c0,0.59884 -0.41609,1.08429 -0.92937,1.08429c-0.51327,0 -0.92937,-0.48545 -0.92937,-1.08429z" fill="#553300" stroke-width="0.5"/><path d="M397.45088,346.4713c0,-0.59884 0.41609,-1.08429 0.92937,-1.08429c0.51327,0 0.92937,0.48545 0.92937,1.08429c0,0.59884 -0.41609,1.08429 -0.92937,1.08429c-0.51327,0 -0.92937,-0.48545 -0.92937,-1.08429z" fill="#553300" stroke-width="0.5"/><path d="M375.51786,344.30272c0,-0.59884 0.41609,-1.08429 0.92937,-1.08429c0.51327,0 0.92937,0.48545 0.92937,1.08429c0,0.59884 -0.41609,1.08429 -0.92937,1.08429c-0.51327,0 -0.92937,-0.48546 -0.92937,-1.08429z" fill="#553300" stroke-width="0.5"/><path d="M413.06423,336.92954c0,-0.59884 0.41609,-1.08429 0.92937,-1.08429c0.51327,0 0.92937,0.48545 0.92937,1.08429c0,0.59884 -0.41609,1.08429 -0.92937,1.08429c-0.51327,0 -0.92937,-0.48545 -0.92937,-1.08429z" fill="#553300" stroke-width="0.5"/><path d="M434.25377,353.41077c0,-0.59884 0.41609,-1.08429 0.92937,-1.08429c0.51327,0 0.92937,0.48545 0.92937,1.08429c0,0.59884 -0.41609,1.08429 -0.92937,1.08429c-0.51327,0 -0.92937,-0.48545 -0.92937,-1.08429z" fill="#553300" stroke-width="0.5"/><path d="M410.09026,354.2782c0,-0.59884 0.41609,-1.08429 0.92937,-1.08429c0.51327,0 0.92937,0.48545 0.92937,1.08429c0,0.59884 -0.41609,1.08429 -0.92937,1.08429c-0.51327,0 -0.92937,-0.48546 -0.92937,-1.08429z" fill="#553300" stroke-width="0.5"/><path d="M429.42107,339.09812c0,-0.59884 0.41609,-1.08429 0.92937,-1.08429c0.51327,0 0.92937,0.48546 0.92937,1.08429c0,0.59884 -0.41609,1.08429 -0.92937,1.08429c-0.51327,0 -0.92937,-0.48545 -0.92937,-1.08429z" fill="#553300" stroke-width="0.5"/><path d="M451.72584,349.0736c0,-0.59884 0.41609,-1.08429 0.92937,-1.08429c0.51327,0 0.92937,0.48545 0.92937,1.08429c0,0.59884 -0.41609,1.08429 -0.92937,1.08429c-0.51327,0 -0.92937,-0.48545 -0.92937,-1.08429z" fill="#553300" stroke-width="0.5"/><path d="M465.10871,344.30272c0,-0.59884 0.41609,-1.08429 0.92937,-1.08429c0.51327,0 0.92937,0.48545 0.92937,1.08429c0,0.59884 -0.41609,1.08429 -0.92937,1.08429c-0.51327,0 -0.92937,-0.48546 -0.92937,-1.08429z" fill="#553300" stroke-width="0.5"/><path d="M484.06777,339.96555c0,-0.59884 0.41609,-1.08429 0.92937,-1.08429c0.51327,0 0.92937,0.48545 0.92937,1.08429c0,0.59884 -0.41609,1.08429 -0.92937,1.08429c-0.51327,0 -0.92937,-0.48546 -0.92937,-1.08429z" fill="#553300" stroke-width="0.5"/><path d="M487.04173,356.01307c0,-0.59884 0.41609,-1.0843 0.92937,-1.0843c0.51327,0 0.92937,0.48546 0.92937,1.0843c0,0.59884 -0.41609,1.08429 -0.92937,1.08429c-0.51327,0 -0.92937,-0.48545 -0.92937,-1.08429z" fill="#553300" stroke-width="0.5"/><path d="M507.48778,357.31422c0,-0.59884 0.41609,-1.08429 0.92937,-1.08429c0.51327,0 0.92937,0.48546 0.92937,1.08429c0,0.59884 -0.41609,1.08429 -0.92937,1.08429c-0.51327,0 -0.92937,-0.48545 -0.92937,-1.08429z" fill="#553300" stroke-width="0.5"/><path d="M381.09405,350.37474c0,-1.08429 0.92937,-1.08429 0.92937,-1.08429h1.11524c0,0 0.92937,0 0.92937,1.08429c0,1.08429 -0.92937,1.08429 -0.92937,1.08429h-1.11524c0,0 -0.92937,0 -0.92937,-1.08429z" fill="#553300" stroke-width="0.5"/></g></g></svg>