<svg version="1.1" xmlns="http://www.w3.org/2000/svg" xmlns:xlink="http://www.w3.org/1999/xlink" width="550.33709" height="312.82317" viewBox="0,0,550.33709,312.82317"><g transform="translate(0.03959,-81.40637)"><g data-paper-data="{&quot;isPaintingLayer&quot;:true}" fill-rule="nonzero" stroke="none" stroke-linecap="butt" stroke-linejoin="miter" stroke-miterlimit="10" stroke-dasharray="" stroke-dashoffset="0" style="mix-blend-mode: normal"><g><path d="M1.37628,365.504v-53.41136h118.08217v8.20585c-0.07001,0.51498 -0.10713,1.05315 -0.10713,1.60691c0,0.55376 0.03712,1.09192 0.10713,1.6069v41.99171z" fill="#714400" stroke-width="0"/><path d="M8.1379,348.0388c0,-0.4656 0.20993,-0.84303 0.46889,-0.84303c0.25896,0 0.46889,0.37744 0.46889,0.84303c0,0.4656 -0.20993,0.84303 -0.46889,0.84303c-0.25896,0 -0.46889,-0.37744 -0.46889,-0.84303z" fill="#553300" stroke-width="0.5"/><path d="M13.50483,356.67248c0,-0.4656 0.20993,-0.84303 0.46889,-0.84303c0.25896,0 0.46889,0.37744 0.46889,0.84303c0,0.4656 -0.20993,0.84303 -0.46889,0.84303c-0.25896,0 -0.46889,-0.37744 -0.46889,-0.84303z" fill="#553300" stroke-width="0.5"/><path d="M22.54386,328.74003c0,-0.4656 0.20993,-0.84303 0.46889,-0.84303c0.25896,0 0.46889,0.37744 0.46889,0.84303c0,0.4656 -0.20993,0.84303 -0.46889,0.84303c-0.25896,0 -0.46889,-0.37744 -0.46889,-0.84303z" fill="#553300" stroke-width="0.5"/><path d="M45.14143,336.86585c0,-0.4656 0.20993,-0.84303 0.46889,-0.84303c0.25896,0 0.46889,0.37744 0.46889,0.84303c0,0.4656 -0.20993,0.84303 -0.46889,0.84303c-0.25896,0 -0.46889,-0.37744 -0.46889,-0.84303z" fill="#553300" stroke-width="0.5"/><path d="M95.42104,345.49949c0,-0.4656 0.20993,-0.84303 0.46889,-0.84303c0.25896,0 0.46889,0.37744 0.46889,0.84303c0,0.4656 -0.20993,0.84303 -0.46889,0.84303c-0.25896,0 -0.46889,-0.37744 -0.46889,-0.84303z" fill="#553300" stroke-width="0.5"/><path d="M86.09954,328.23215c0,-0.4656 0.20993,-0.84303 0.46889,-0.84303c0.25896,0 0.46889,0.37744 0.46889,0.84303c0,0.4656 -0.20993,0.84303 -0.46889,0.84303c-0.25896,0 -0.46889,-0.37744 -0.46889,-0.84303z" fill="#553300" stroke-width="0.5"/><path d="M67.73901,349.56241c0,-0.4656 0.20993,-0.84303 0.46889,-0.84303c0.25896,0 0.46889,0.37744 0.46889,0.84303c0,0.4656 -0.20993,0.84303 -0.46889,0.84303c-0.25896,0 -0.46889,-0.37744 -0.46889,-0.84303z" fill="#553300" stroke-width="0.5"/><path d="M29.6056,339.40516c0,-0.4656 0.20993,-0.84303 0.46889,-0.84303c0.25896,0 0.46889,0.37744 0.46889,0.84303c0,0.4656 -0.20993,0.84303 -0.46889,0.84303c-0.25896,0 -0.46889,-0.37744 -0.46889,-0.84303z" fill="#553300" stroke-width="0.5"/><path d="M66.04419,327.21646c0,-0.4656 0.20993,-0.84303 0.46889,-0.84303c0.25896,0 0.46889,0.37744 0.46889,0.84303c0,0.4656 -0.20993,0.84303 -0.46889,0.84303c-0.25896,0 -0.46889,-0.37744 -0.46889,-0.84303z" fill="#553300" stroke-width="0.5"/><path d="M105.87242,342.45234c0,-0.4656 0.20993,-0.84303 0.46889,-0.84303c0.25896,0 0.46889,0.37744 0.46889,0.84303c0,0.4656 -0.20993,0.84303 -0.46889,0.84303c-0.25896,0 -0.46889,-0.37744 -0.46889,-0.84303z" fill="#553300" stroke-width="0.5"/><path d="M6.53914,326.20072c0,-0.93119 0.41986,-1.68607 0.93778,-1.68607c0.51792,0 0.93778,0.75488 0.93778,1.68607c0,0.93119 -0.41986,1.68607 -0.93778,1.68607c-0.51792,0 -0.93778,-0.75488 -0.93778,-1.68607z" fill="#553300" stroke-width="0.5"/><path d="M15.29569,337.88156c0,-0.93119 0.41986,-1.68607 0.93778,-1.68607c0.51792,0 0.93778,0.75488 0.93778,1.68607c0,0.93119 -0.41986,1.68607 -0.93778,1.68607c-0.51792,0 -0.93778,-0.75488 -0.93778,-1.68607z" fill="#553300" stroke-width="0.5"/><path d="M36.48092,353.11742c0,-0.93119 0.41986,-1.68607 0.93778,-1.68607c0.51792,0 0.93778,0.75488 0.93778,1.68607c0,0.93119 -0.41986,1.68607 -0.93778,1.68607c-0.51792,0 -0.93778,-0.75488 -0.93778,-1.68607z" fill="#553300" stroke-width="0.5"/><path d="M37.04586,324.16927c0,-0.93119 0.41986,-1.68607 0.93778,-1.68607c0.51792,0 0.93778,0.75488 0.93778,1.68607c0,0.93119 -0.41986,1.68607 -0.93778,1.68607c-0.51792,0 -0.93778,-0.75488 -0.93778,-1.68607z" fill="#553300" stroke-width="0.5"/><path d="M22.35744,349.56241c0,-0.93119 0.41986,-1.68607 0.93778,-1.68607c0.51792,0 0.93778,0.75488 0.93778,1.68607c0,0.93119 -0.41986,1.68607 -0.93778,1.68607c-0.51792,0 -0.93778,-0.75488 -0.93778,-1.68607z" fill="#553300" stroke-width="0.5"/><path d="M54.08441,340.25841c0.93778,0 0.93778,1.68607 0.93778,1.68607l-0.1575,1.95099c-0.18831,0.50786 -0.37663,1.01573 -0.56494,1.52358c0,0 -0.52019,1.4029 -1.30047,0.46763c-0.78028,-0.93526 -0.26009,-2.33816 -0.26009,-2.33816c0.18831,-0.50786 0.37663,-1.01573 0.56494,-1.52358l-0.1575,-0.08047c0,0 0,-1.68607 0.93778,-1.68607z" fill="#553300" stroke-width="0.5"/><path d="M55.68886,330.26364c0,-0.93119 0.41986,-1.68607 0.93778,-1.68607c0.51792,0 0.93778,0.75488 0.93778,1.68607c0,0.93119 -0.41986,1.68607 -0.93778,1.68607c-0.51792,0 -0.93778,-0.75488 -0.93778,-1.68607z" fill="#553300" stroke-width="0.5"/><path d="M70.37728,338.38944c0,-0.93119 0.41986,-1.68607 0.93778,-1.68607c0.51792,0 0.93778,0.75488 0.93778,1.68607c0,0.93119 -0.41986,1.68607 -0.93778,1.68607c-0.51792,0 -0.93778,-0.75488 -0.93778,-1.68607z" fill="#553300" stroke-width="0.5"/><path d="M78.85138,356.16462c0,-0.93119 0.41986,-1.68607 0.93778,-1.68607c0.51792,0 0.93778,0.75488 0.93778,1.68607c0,0.93119 -0.41986,1.68607 -0.93778,1.68607c-0.51792,0 -0.93778,-0.75488 -0.93778,-1.68607z" fill="#553300" stroke-width="0.5"/><path d="M84.78324,331.7872c0,-0.93119 0.41986,-1.68607 0.93778,-1.68607c0.51792,0 0.93778,0.75488 0.93778,1.68607c0,0.93119 -0.41986,1.68607 -0.93778,1.68607c-0.51792,0 -0.93778,-0.75488 -0.93778,-1.68607z" fill="#553300" stroke-width="0.5"/><path d="M96.08203,323.15353c0,-0.93119 0.41986,-1.68607 0.93778,-1.68607c0.51792,0 0.93778,0.75488 0.93778,1.68607c0,0.93119 -0.41986,1.68607 -0.93778,1.68607c-0.51792,0 -0.93778,-0.75488 -0.93778,-1.68607z" fill="#553300" stroke-width="0.5"/><path d="M103.40149,350.03272c0.58583,1.3166 -0.14645,2.36987 -0.14645,2.36987l-1.41235,2.03145c0,0 -0.73228,1.05328 -1.31811,-0.26332c-0.58583,-1.3166 0.14645,-2.36987 0.14645,-2.36987l1.41235,-2.03145c0,0 0.73228,-1.05328 1.31811,0.26332z" fill="#553300" stroke-width="0.5"/><path d="M111.61786,329.24789c0,-0.93119 0.41986,-1.68607 0.93778,-1.68607c0.51792,0 0.93778,0.75488 0.93778,1.68607c0,0.93119 -0.41986,1.68607 -0.93778,1.68607c-0.51792,0 -0.93778,-0.75488 -0.93778,-1.68607z" fill="#553300" stroke-width="0.5"/><path d="M75.46174,320.61422c0,-0.93119 0.41986,-1.68607 0.93778,-1.68607c0.51792,0 0.93778,0.75488 0.93778,1.68607c0,0.93119 -0.41986,1.68607 -0.93778,1.68607c-0.51792,0 -0.93778,-0.75488 -0.93778,-1.68607z" fill="#553300" stroke-width="0.5"/><path d="M34.22116,335.34225c0,-0.93119 0.41986,-1.68607 0.93778,-1.68607c0.51792,0 0.93778,0.75488 0.93778,1.68607c0,0.93119 -0.41986,1.68607 -0.93778,1.68607c-0.51792,0 -0.93778,-0.75488 -0.93778,-1.68607z" fill="#553300" stroke-width="0.5"/><path d="M15.67422,318.58279c0,-1.39678 0.62979,-2.5291 1.40667,-2.5291c0.77688,0 1.40667,1.13232 1.40667,2.5291c0,1.39678 -0.62979,2.5291 -1.40667,2.5291c-0.77688,0 -1.40667,-1.13232 -1.40667,-2.5291z" fill="#553300" stroke-width="0.5"/><path d="M4.6579,357.18034c0,-1.39678 0.62979,-2.5291 1.40667,-2.5291c0.77688,0 1.40667,1.13232 1.40667,2.5291c0,1.39678 -0.62979,2.5291 -1.40667,2.5291c-0.77688,0 -1.40667,-1.13232 -1.40667,-2.5291z" fill="#553300" stroke-width="0.5"/><path d="M28.38535,329.75577c0,-1.39678 0.62979,-2.5291 1.40667,-2.5291c0.77688,0 1.40667,1.13232 1.40667,2.5291c0,1.39678 -0.62979,2.5291 -1.40667,2.5291c-0.77688,0 -1.40667,-1.13232 -1.40667,-2.5291z" fill="#553300" stroke-width="0.5"/><path d="M50.98293,319.09065c0,-1.39678 0.62979,-2.5291 1.40667,-2.5291c0.77688,0 1.40667,1.13232 1.40667,2.5291c0,1.39678 -0.62979,2.5291 -1.40667,2.5291c-0.77688,0 -1.40667,-1.13232 -1.40667,-2.5291z" fill="#553300" stroke-width="0.5"/><path d="M54.37256,357.6882c0,-1.39678 0.62979,-2.5291 1.40667,-2.5291c0.77688,0 1.40667,1.13232 1.40667,2.5291c0,1.39678 -0.62979,2.5291 -1.40667,2.5291c-0.77688,0 -1.40667,-1.13232 -1.40667,-2.5291z" fill="#553300" stroke-width="0.5"/><path d="M79.79484,343.46806c0,-1.39678 0.62979,-2.5291 1.40667,-2.5291c0.77688,0 1.40667,1.13232 1.40667,2.5291c0,1.39678 -0.62979,2.5291 -1.40667,2.5291c-0.77688,0 -1.40667,-1.13232 -1.40667,-2.5291z" fill="#553300" stroke-width="0.5"/><path d="M89.96375,352.60958c0,-1.39678 0.62979,-2.5291 1.40667,-2.5291c0.77688,0 1.40667,1.13232 1.40667,2.5291c0,1.39678 -0.62979,2.5291 -1.40667,2.5291c-0.77688,0 -1.40667,-1.13232 -1.40667,-2.5291z" fill="#553300" stroke-width="0.5"/><path d="M95.61314,335.34225c0,-1.39678 0.62979,-2.5291 1.40667,-2.5291c0.77688,0 1.40667,1.13232 1.40667,2.5291c0,1.39678 -0.62979,2.5291 -1.40667,2.5291c-0.77688,0 -1.40667,-1.13232 -1.40667,-2.5291z" fill="#553300" stroke-width="0.5"/><path d="M60.5869,320.1064c0,-1.39678 0.62979,-2.5291 1.40667,-2.5291c0.77688,0 1.40667,1.13232 1.40667,2.5291c0,1.39678 -0.62979,2.5291 -1.40667,2.5291c-0.77688,0 -1.40667,-1.13232 -1.40667,-2.5291z" fill="#553300" stroke-width="0.5"/><path d="M1.26258,326.92672v-15.74373h118.3946v8.0506c-0.1968,0.81927 -0.30586,1.72262 -0.30586,2.67176c0,0.94914 0.10905,1.85249 0.30586,2.67176v2.34961z" fill="#ffffff" stroke-width="0"/><path d="M12.52157,326.02182c0,2.10364 -2.52932,3.80897 -5.64939,3.80897c-3.12007,0 -5.64939,-1.70533 -5.64939,-3.80897c0,-2.10364 2.52932,-3.80897 5.6494,-3.80897c3.12007,0 5.6494,1.70533 5.6494,3.80897z" fill="#ffffff" stroke-width="0"/><path d="M23.58168,325.91749c0,2.10364 -2.52932,3.80897 -5.64939,3.80897c-3.12007,0 -5.64939,-1.70533 -5.64939,-3.80897c0,-2.10364 2.52932,-3.80897 5.6494,-3.80897c3.12007,0 5.64939,1.70533 5.64939,3.80897z" fill="#ffffff" stroke-width="0"/><path d="M33.1916,326.10291c0,2.10364 -2.52932,3.80897 -5.64939,3.80897c-3.12007,0 -5.6494,-1.70533 -5.6494,-3.80897c0,-2.10364 2.52932,-3.80897 5.6494,-3.80897c3.12007,0 5.64939,1.70533 5.64939,3.80897z" fill="#ffffff" stroke-width="0"/><path d="M43.92944,327.15738c0,2.10364 -2.52932,3.80897 -5.64939,3.80897c-3.12007,0 -5.64939,-1.70533 -5.64939,-3.80897c0,-2.10364 2.52932,-3.80897 5.64939,-3.80897c3.12007,0 5.64939,1.70533 5.64939,3.80897z" fill="#ffffff" stroke-width="0"/><path d="M63.3513,326.96878c0,2.10364 -2.52932,3.80897 -5.64939,3.80897c-3.12007,0 -5.64939,-1.70533 -5.64939,-3.80897c0,-2.10364 2.52932,-3.80897 5.64939,-3.80897c3.12007,0 5.64939,1.70533 5.64939,3.80897z" fill="#ffffff" stroke-width="0"/><path d="M53.59823,326.48627c0,2.10364 -2.52932,3.80897 -5.64939,3.80897c-3.12007,0 -5.64939,-1.70533 -5.64939,-3.80897c0,-2.10364 2.52932,-3.80897 5.64939,-3.80897c3.12007,0 5.64939,1.70533 5.64939,3.80897z" fill="#ffffff" stroke-width="0"/><path d="M72.31668,327.15416c0,2.10364 -2.52932,3.80897 -5.64939,3.80897c-3.12007,0 -5.64939,-1.70533 -5.64939,-3.80897c0,-2.10364 2.52932,-3.80897 5.64939,-3.80897c3.12007,0 5.64939,1.70533 5.64939,3.80897z" fill="#ffffff" stroke-width="0"/><path d="M82.24886,326.76009c0,2.10364 -2.52932,3.80897 -5.64939,3.80897c-3.12007,0 -5.64939,-1.70533 -5.64939,-3.80897c0,-2.10364 2.52932,-3.80897 5.64939,-3.80897c3.12007,0 5.64939,1.70533 5.64939,3.80897z" fill="#ffffff" stroke-width="0"/><path d="M91.53651,327.23519c0,2.10364 -2.52932,3.80897 -5.6494,3.80897c-3.12007,0 -5.64939,-1.70533 -5.64939,-3.80897c0,-2.10364 2.52932,-3.80897 5.64939,-3.80897c3.12007,0 5.6494,1.70533 5.6494,3.80897z" fill="#ffffff" stroke-width="0"/><path d="M101.95209,326.55145c0,2.10364 -2.52932,3.80897 -5.6494,3.80897c-3.12007,0 -5.64939,-1.70533 -5.64939,-3.80897c0,-2.10364 2.52932,-3.80897 5.64939,-3.80897c3.12007,0 5.6494,1.70533 5.6494,3.80897z" fill="#ffffff" stroke-width="0"/><path d="M112.0454,326.44712c0,2.10364 -2.52932,3.80897 -5.64939,3.80897c-3.12007,0 -5.64939,-1.70533 -5.64939,-3.80897c0,-2.10364 2.52932,-3.80897 5.64939,-3.80897c3.12007,0 5.64939,1.70533 5.64939,3.80897z" fill="#ffffff" stroke-width="0"/><path d="M116.48932,329.86204c-3.12007,0 -5.64939,-1.70533 -5.64939,-3.80897c0,-2.10364 2.52932,-3.80897 5.64939,-3.80897c0.97594,0 1.89407,0.16685 2.69508,0.46055c-0.1679,1.58193 -0.08362,3.34111 0.15976,5.10411c-0.08357,0.50728 -0.13486,1.03951 -0.14957,1.58899c-0.80341,0.29602 -1.72519,0.46429 -2.70527,0.46429z" fill="#ffffff" stroke-width="0"/><path d="M119.514,320.16713c0,0.43394 -0.06078,0.84235 -0.16788,1.19922c0.00446,0.08202 0.00675,0.16519 0.00675,0.24931c0,1.39678 -0.62979,2.5291 -1.40667,2.5291c-0.77688,0 -1.40667,-1.13232 -1.40667,-2.5291c0,-0.3606 0.04197,-0.70356 0.11761,-1.01397c-0.07564,-0.31041 -0.11761,-0.65338 -0.11761,-1.01397c0,-1.39678 0.62979,-2.5291 1.40667,-2.5291c0.61502,0 1.13786,0.70965 1.32902,1.69836c0.15078,0.40288 0.23878,0.88804 0.23878,1.41015z" fill="#ffffff" stroke-width="0.5"/><path d="M116.53953,326.83036c0,-1.39678 0.62979,-2.5291 1.40667,-2.5291c0.77688,0 1.40667,1.13232 1.40667,2.5291c0,1.39678 -0.62979,2.5291 -1.40667,2.5291c-0.77688,0 -1.40667,-1.13232 -1.40667,-2.5291z" fill="#ffffff" stroke-width="0.5"/></g><g><path d="M183.67334,394.22954v-79.19522h113.10218v12.16715c-0.06706,0.76358 -0.10261,1.56155 -0.10261,2.38263c0,0.82108 0.03555,1.61904 0.10261,2.38262v62.26283z" fill="#714400" stroke-width="0"/><path d="M190.1498,368.3332c0,-0.69036 0.20107,-1.25 0.44911,-1.25c0.24804,0 0.44911,0.55964 0.44911,1.25c0,0.69036 -0.20107,1.25 -0.44911,1.25c-0.24804,0 -0.44911,-0.55964 -0.44911,-1.25z" fill="#553300" stroke-width="0.5"/><path d="M195.29038,381.13468c0,-0.69036 0.20107,-1.25 0.44911,-1.25c0.24804,0 0.44911,0.55964 0.44911,1.25c0,0.69036 -0.20107,1.25 -0.44911,1.25c-0.24804,0 -0.44911,-0.55964 -0.44911,-1.25z" fill="#553300" stroke-width="0.5"/><path d="M203.94819,339.71813c0,-0.69036 0.20107,-1.25 0.44911,-1.25c0.24804,0 0.44911,0.55964 0.44911,1.25c0,0.69036 -0.20107,1.25 -0.44911,1.25c-0.24804,0 -0.44911,-0.55964 -0.44911,-1.25z" fill="#553300" stroke-width="0.5"/><path d="M225.59274,351.76658c0,-0.69036 0.20107,-1.25 0.44911,-1.25c0.24804,0 0.44911,0.55964 0.44911,1.25c0,0.69036 -0.20107,1.25 -0.44911,1.25c-0.24804,0 -0.44911,-0.55964 -0.44911,-1.25z" fill="#553300" stroke-width="0.5"/><path d="M273.75185,364.56806c0,-0.69036 0.20107,-1.25 0.44911,-1.25c0.24804,0 0.44911,0.55964 0.44911,1.25c0,0.69036 -0.20107,1.25 -0.44911,1.25c-0.24804,0 -0.44911,-0.55964 -0.44911,-1.25z" fill="#553300" stroke-width="0.5"/><path d="M264.82348,338.9651c0,-0.69036 0.20107,-1.25 0.44911,-1.25c0.24804,0 0.44911,0.55964 0.44911,1.25c0,0.69036 -0.20107,1.25 -0.44911,1.25c-0.24804,0 -0.44911,-0.55964 -0.44911,-1.25z" fill="#553300" stroke-width="0.5"/><path d="M247.23728,370.59228c0,-0.69036 0.20107,-1.25 0.44911,-1.25c0.24804,0 0.44911,0.55964 0.44911,1.25c0,0.69036 -0.20107,1.25 -0.44911,1.25c-0.24804,0 -0.44911,-0.55964 -0.44911,-1.25z" fill="#553300" stroke-width="0.5"/><path d="M210.71211,355.53172c0,-0.69036 0.20107,-1.25 0.44911,-1.25c0.24804,0 0.44911,0.55964 0.44911,1.25c0,0.69036 -0.20107,1.25 -0.44911,1.25c-0.24804,0 -0.44911,-0.55964 -0.44911,-1.25z" fill="#553300" stroke-width="0.5"/><path d="M245.61394,337.45904c0,-0.69036 0.20107,-1.25 0.44911,-1.25c0.24804,0 0.44911,0.55964 0.44911,1.25c0,0.69036 -0.20107,1.25 -0.44911,1.25c-0.24804,0 -0.44911,-0.55964 -0.44911,-1.25z" fill="#553300" stroke-width="0.5"/><path d="M283.76246,360.04989c0,-0.69036 0.20107,-1.25 0.44911,-1.25c0.24804,0 0.44911,0.55964 0.44911,1.25c0,0.69036 -0.20107,1.25 -0.44911,1.25c-0.24804,0 -0.44911,-0.55964 -0.44911,-1.25z" fill="#553300" stroke-width="0.5"/><path d="M188.61845,335.95298c0,-1.38071 0.40215,-2.5 0.89823,-2.5c0.49608,0 0.89823,1.11929 0.89823,2.5c0,1.38071 -0.40215,2.5 -0.89823,2.5c-0.49608,0 -0.89823,-1.11929 -0.89823,-2.5z" fill="#553300" stroke-width="0.5"/><path d="M197.00571,353.27263c0,-1.38071 0.40215,-2.5 0.89823,-2.5c0.49608,0 0.89823,1.11929 0.89823,2.5c0,1.38071 -0.40215,2.5 -0.89823,2.5c-0.49608,0 -0.89823,-1.11929 -0.89823,-2.5z" fill="#553300" stroke-width="0.5"/><path d="M217.29748,375.86348c0,-1.38071 0.40215,-2.5 0.89823,-2.5c0.49608,0 0.89823,1.11929 0.89823,2.5c0,1.38071 -0.40215,2.5 -0.89823,2.5c-0.49608,0 -0.89823,-1.11929 -0.89823,-2.5z" fill="#553300" stroke-width="0.5"/><path d="M217.83859,332.94086c0,-1.38071 0.40215,-2.5 0.89823,-2.5c0.49608,0 0.89823,1.11929 0.89823,2.5c0,1.38071 -0.40215,2.5 -0.89823,2.5c-0.49608,0 -0.89823,-1.11929 -0.89823,-2.5z" fill="#553300" stroke-width="0.5"/><path d="M203.76964,370.59228c0,-1.38071 0.40215,-2.5 0.89823,-2.5c0.49608,0 0.89823,1.11929 0.89823,2.5c0,1.38071 -0.40215,2.5 -0.89823,2.5c-0.49608,0 -0.89823,-1.11929 -0.89823,-2.5z" fill="#553300" stroke-width="0.5"/><path d="M234.15856,356.79686c0.89823,0 0.89823,2.5 0.89823,2.5l-0.15086,2.89281c-0.18037,0.75303 -0.36074,1.50606 -0.54111,2.25908c0,0 -0.49825,2.08013 -1.24562,0.69338c-0.74737,-1.38675 -0.24913,-3.46688 -0.24913,-3.46688c0.18037,-0.75303 0.36074,-1.50606 0.54111,-2.25908l-0.15086,-0.11931c0,0 0,-2.5 0.89823,-2.5z" fill="#553300" stroke-width="0.5"/><path d="M235.69534,341.97721c0,-1.38071 0.40215,-2.5 0.89823,-2.5c0.49608,0 0.89823,1.11929 0.89823,2.5c0,1.38071 -0.40215,2.5 -0.89823,2.5c-0.49608,0 -0.89823,-1.11929 -0.89823,-2.5z" fill="#553300" stroke-width="0.5"/><path d="M249.76429,354.02566c0,-1.38071 0.40215,-2.5 0.89823,-2.5c0.49608,0 0.89823,1.11929 0.89823,2.5c0,1.38071 -0.40215,2.5 -0.89823,2.5c-0.49608,0 -0.89823,-1.11929 -0.89823,-2.5z" fill="#553300" stroke-width="0.5"/><path d="M257.881,380.38165c0,-1.38071 0.40215,-2.5 0.89823,-2.5c0.49608,0 0.89823,1.11929 0.89823,2.5c0,1.38071 -0.40215,2.5 -0.89823,2.5c-0.49608,0 -0.89823,-1.11929 -0.89823,-2.5z" fill="#553300" stroke-width="0.5"/><path d="M263.56269,344.2363c0,-1.38071 0.40215,-2.5 0.89823,-2.5c0.49608,0 0.89823,1.11929 0.89823,2.5c0,1.38071 -0.40215,2.5 -0.89823,2.5c-0.49608,0 -0.89823,-1.11929 -0.89823,-2.5z" fill="#553300" stroke-width="0.5"/><path d="M274.38497,331.43478c0,-1.38071 0.40215,-2.5 0.89823,-2.5c0.49608,0 0.89823,1.11929 0.89823,2.5c0,1.38071 -0.40215,2.5 -0.89823,2.5c-0.49608,0 -0.89823,-1.11929 -0.89823,-2.5z" fill="#553300" stroke-width="0.5"/><path d="M281.39573,371.28963c0.56112,1.95217 -0.14028,3.51391 -0.14028,3.51391l-1.35278,3.01211c0,0 -0.7014,1.56174 -1.26252,-0.39043c-0.56112,-1.95217 0.14028,-3.51391 0.14028,-3.51391l1.35278,-3.01211c0,0 0.7014,-1.56174 1.26252,0.39043z" fill="#553300" stroke-width="0.5"/><path d="M289.26559,340.47115c0,-1.38071 0.40215,-2.5 0.89823,-2.5c0.49608,0 0.89823,1.11929 0.89823,2.5c0,1.38071 -0.40215,2.5 -0.89823,2.5c-0.49608,0 -0.89823,-1.11929 -0.89823,-2.5z" fill="#553300" stroke-width="0.5"/><path d="M254.63432,327.66965c0,-1.38071 0.40215,-2.5 0.89823,-2.5c0.49608,0 0.89823,1.11929 0.89823,2.5c0,1.38071 -0.40215,2.5 -0.89823,2.5c-0.49608,0 -0.89823,-1.11929 -0.89823,-2.5z" fill="#553300" stroke-width="0.5"/><path d="M215.13302,349.50749c0,-1.38071 0.40215,-2.5 0.89823,-2.5c0.49608,0 0.89823,1.11929 0.89823,2.5c0,1.38071 -0.40215,2.5 -0.89823,2.5c-0.49608,0 -0.89823,-1.11929 -0.89823,-2.5z" fill="#553300" stroke-width="0.5"/><path d="M197.36827,324.65754c0,-2.07107 0.60323,-3.75 1.34734,-3.75c0.74412,0 1.34734,1.67893 1.34734,3.75c0,2.07107 -0.60323,3.75 -1.34734,3.75c-0.74412,0 -1.34734,-1.67893 -1.34734,-3.75z" fill="#553300" stroke-width="0.5"/><path d="M186.81656,381.88771c0,-2.07107 0.60323,-3.75 1.34734,-3.75c0.74412,0 1.34734,1.67893 1.34734,3.75c0,2.07107 -0.60323,3.75 -1.34734,3.75c-0.74412,0 -1.34734,-1.67893 -1.34734,-3.75z" fill="#553300" stroke-width="0.5"/><path d="M209.54333,341.22418c0,-2.07107 0.60323,-3.75 1.34734,-3.75c0.74412,0 1.34734,1.67893 1.34734,3.75c0,2.07107 -0.60323,3.75 -1.34734,3.75c-0.74412,0 -1.34734,-1.67893 -1.34734,-3.75z" fill="#553300" stroke-width="0.5"/><path d="M231.18787,325.41058c0,-2.07107 0.60323,-3.75 1.34734,-3.75c0.74412,0 1.34734,1.67893 1.34734,3.75c0,2.07107 -0.60323,3.75 -1.34734,3.75c-0.74412,0 -1.34734,-1.67893 -1.34734,-3.75z" fill="#553300" stroke-width="0.5"/><path d="M234.43455,382.64073c0,-2.07107 0.60323,-3.75 1.34734,-3.75c0.74412,0 1.34734,1.67893 1.34734,3.75c0,2.07107 -0.60323,3.75 -1.34734,3.75c-0.74412,0 -1.34734,-1.67893 -1.34734,-3.75z" fill="#553300" stroke-width="0.5"/><path d="M258.78467,361.55594c0,-2.07107 0.60323,-3.75 1.34734,-3.75c0.74412,0 1.34734,1.67893 1.34734,3.75c0,2.07107 -0.60323,3.75 -1.34734,3.75c-0.74412,0 -1.34734,-1.67893 -1.34734,-3.75z" fill="#553300" stroke-width="0.5"/><path d="M268.52472,375.11045c0,-2.07107 0.60323,-3.75 1.34734,-3.75c0.74412,0 1.34734,1.67893 1.34734,3.75c0,2.07107 -0.60323,3.75 -1.34734,3.75c-0.74412,0 -1.34734,-1.67893 -1.34734,-3.75z" fill="#553300" stroke-width="0.5"/><path d="M273.93585,349.50749c0,-2.07107 0.60323,-3.75 1.34734,-3.75c0.74412,0 1.34734,1.67893 1.34734,3.75c0,2.07107 -0.60323,3.75 -1.34734,3.75c-0.74412,0 -1.34734,-1.67893 -1.34734,-3.75z" fill="#553300" stroke-width="0.5"/><path d="M240.3868,326.91661c0,-2.07107 0.60323,-3.75 1.34734,-3.75c0.74412,0 1.34734,1.67893 1.34734,3.75c0,2.07107 -0.60323,3.75 -1.34734,3.75c-0.74412,0 -1.34734,-1.67893 -1.34734,-3.75z" fill="#553300" stroke-width="0.5"/><path d="M183.56443,337.02948v-23.34388h113.40143v11.93696c-0.1885,1.21476 -0.29296,2.5542 -0.29296,3.96153c0,1.40733 0.10445,2.74677 0.29296,3.96153v3.48386z" fill="#ffffff" stroke-width="0"/><path d="M194.34859,335.68776c0,3.11915 -2.42265,5.64771 -5.41113,5.64771c-2.98849,0 -5.41113,-2.52857 -5.41113,-5.64771c0,-3.11915 2.42265,-5.64771 5.41114,-5.64771c2.98849,0 5.41114,2.52857 5.41114,5.64771z" fill="#ffffff" stroke-width="0"/><path d="M204.94225,335.53301c0,3.11915 -2.42265,5.64771 -5.41113,5.64771c-2.98849,0 -5.41113,-2.52857 -5.41113,-5.64771c0,-3.11915 2.42265,-5.64771 5.41114,-5.64771c2.98849,0 5.41113,2.52857 5.41113,5.64771z" fill="#ffffff" stroke-width="0"/><path d="M214.14688,335.80792c0,3.11915 -2.42265,5.64771 -5.41113,5.64771c-2.98849,0 -5.41114,-2.52857 -5.41114,-5.64771c0,-3.11915 2.42265,-5.64771 5.41114,-5.64771c2.98849,0 5.41113,2.52857 5.41113,5.64771z" fill="#ffffff" stroke-width="0"/><path d="M224.43186,337.37145c0,3.11915 -2.42265,5.64771 -5.41113,5.64771c-2.98849,0 -5.41113,-2.52857 -5.41113,-5.64771c0,-3.11915 2.42265,-5.64771 5.41113,-5.64771c2.98849,0 5.41113,2.52857 5.41113,5.64771z" fill="#ffffff" stroke-width="0"/><path d="M243.03462,337.09182c0,3.11915 -2.42265,5.64771 -5.41113,5.64771c-2.98849,0 -5.41113,-2.52857 -5.41113,-5.64771c0,-3.11915 2.42265,-5.64771 5.41113,-5.64771c2.98849,0 5.41113,2.52857 5.41113,5.64771z" fill="#ffffff" stroke-width="0"/><path d="M233.69288,336.37641c0,3.11915 -2.42265,5.64771 -5.41113,5.64771c-2.98849,0 -5.41113,-2.52857 -5.41113,-5.64771c0,-3.11915 2.42265,-5.64771 5.41113,-5.64771c2.98849,0 5.41113,2.52856 5.41113,5.64771z" fill="#ffffff" stroke-width="0"/><path d="M251.6219,337.36668c0,3.11915 -2.42265,5.64771 -5.41113,5.64771c-2.98849,0 -5.41113,-2.52857 -5.41113,-5.64771c0,-3.11915 2.42265,-5.64771 5.41113,-5.64771c2.98849,0 5.41113,2.52857 5.41113,5.64771z" fill="#ffffff" stroke-width="0"/><path d="M261.1352,336.78241c0,3.11915 -2.42265,5.64771 -5.41113,5.64771c-2.98849,0 -5.41113,-2.52857 -5.41113,-5.64771c0,-3.11915 2.42265,-5.64771 5.41113,-5.64771c2.98849,0 5.41113,2.52856 5.41113,5.64771z" fill="#ffffff" stroke-width="0"/><path d="M270.03115,337.48683c0,3.11915 -2.42265,5.64771 -5.41114,5.64771c-2.98849,0 -5.41113,-2.52856 -5.41113,-5.64771c0,-3.11915 2.42265,-5.64771 5.41113,-5.64771c2.98849,0 5.41114,2.52857 5.41114,5.64771z" fill="#ffffff" stroke-width="0"/><path d="M280.00747,336.47299c0,3.11915 -2.42265,5.64771 -5.41114,5.64771c-2.98849,0 -5.41113,-2.52857 -5.41113,-5.64771c0,-3.11915 2.42265,-5.64771 5.41113,-5.64771c2.98849,0 5.41114,2.52857 5.41114,5.64771z" fill="#ffffff" stroke-width="0"/><path d="M289.6751,336.31831c0,3.11915 -2.42265,5.64771 -5.41113,5.64771c-2.98849,0 -5.41113,-2.52856 -5.41113,-5.64771c0,-3.11915 2.42265,-5.64771 5.41113,-5.64771c2.98849,0 5.41113,2.52857 5.41113,5.64771z" fill="#ffffff" stroke-width="0"/><path d="M293.9316,341.38174c-2.98849,0 -5.41113,-2.52857 -5.41113,-5.64771c0,-3.11915 2.42265,-5.64771 5.41113,-5.64771c0.93478,0 1.81419,0.24739 2.58142,0.68287c-0.16082,2.34559 -0.0801,4.954 0.15302,7.56807c-0.08005,0.75217 -0.12917,1.54133 -0.14326,2.35606c-0.76953,0.43892 -1.65244,0.68842 -2.59118,0.68842z" fill="#ffffff" stroke-width="0"/><path d="M296.82872,327.00669c0,0.64342 -0.05822,1.24899 -0.1608,1.77813c0.00428,0.12161 0.00646,0.24493 0.00646,0.36966c0,2.07107 -0.60323,3.75 -1.34734,3.75c-0.74412,0 -1.34734,-1.67893 -1.34734,-3.75c0,-0.53467 0.0402,-1.0432 0.11265,-1.50345c-0.07245,-0.46026 -0.11265,-0.96879 -0.11265,-1.50346c0,-2.07107 0.60323,-3.75 1.34734,-3.75c0.58908,0 1.08987,1.05223 1.27297,2.51823c0.14442,0.59737 0.22871,1.31673 0.22871,2.09089z" fill="#ffffff" stroke-width="0.5"/><path d="M293.9797,336.88658c0,-2.07107 0.60323,-3.75 1.34734,-3.75c0.74412,0 1.34734,1.67893 1.34734,3.75c0,2.07107 -0.60323,3.75 -1.34734,3.75c-0.74412,0 -1.34734,-1.67893 -1.34734,-3.75z" fill="#ffffff" stroke-width="0.5"/></g><path d="M263.62684,369.26044v-79.19522h136.75716v12.16715c-0.08108,0.76358 -0.12408,1.56155 -0.12408,2.38263c0,0.82108 0.04299,1.61904 0.12408,2.38262v62.26283z" fill="#714400" stroke-width="0"/><path d="M271.45783,343.3641c0,-0.69036 0.24313,-1.25 0.54305,-1.25c0.29992,0 0.54305,0.55964 0.54305,1.25c0,0.69036 -0.24313,1.25 -0.54305,1.25c-0.29992,0 -0.54305,-0.55964 -0.54305,-1.25z" fill="#553300" stroke-width="0.5"/><path d="M277.67355,356.16558c0,-0.69036 0.24313,-1.25 0.54305,-1.25c0.29992,0 0.54305,0.55964 0.54305,1.25c0,0.69036 -0.24313,1.25 -0.54305,1.25c-0.29992,0 -0.54305,-0.55964 -0.54305,-1.25z" fill="#553300" stroke-width="0.5"/><path d="M288.14213,314.74899c0,-0.69036 0.24313,-1.25 0.54305,-1.25c0.29992,0 0.54305,0.55964 0.54305,1.25c0,0.69036 -0.24313,1.25 -0.54305,1.25c-0.29992,0 -0.54305,-0.55964 -0.54305,-1.25z" fill="#553300" stroke-width="0.5"/><path d="M314.31357,326.79748c0,-0.69036 0.24313,-1.25 0.54305,-1.25c0.29992,0 0.54305,0.55964 0.54305,1.25c0,0.69036 -0.24313,1.25 -0.54305,1.25c-0.29992,0 -0.54305,-0.55964 -0.54305,-1.25z" fill="#553300" stroke-width="0.5"/><path d="M372.54501,339.59896c0,-0.69036 0.24313,-1.25 0.54305,-1.25c0.29992,0 0.54305,0.55964 0.54305,1.25c0,0.69036 -0.24313,1.25 -0.54305,1.25c-0.29992,0 -0.54305,-0.55964 -0.54305,-1.25z" fill="#553300" stroke-width="0.5"/><path d="M361.7493,313.99595c0,-0.69036 0.24313,-1.25 0.54305,-1.25c0.29992,0 0.54305,0.55964 0.54305,1.25c0,0.69036 -0.24313,1.25 -0.54305,1.25c-0.29992,0 -0.54305,-0.55964 -0.54305,-1.25z" fill="#553300" stroke-width="0.5"/><path d="M340.485,345.62318c0,-0.69036 0.24313,-1.25 0.54305,-1.25c0.29992,0 0.54305,0.55964 0.54305,1.25c0,0.69036 -0.24313,1.25 -0.54305,1.25c-0.29992,0 -0.54305,-0.55964 -0.54305,-1.25z" fill="#553300" stroke-width="0.5"/><path d="M296.3207,330.56257c0,-0.69036 0.24313,-1.25 0.54305,-1.25c0.29992,0 0.54305,0.55964 0.54305,1.25c0,0.69036 -0.24313,1.25 -0.54305,1.25c-0.29992,0 -0.54305,-0.55964 -0.54305,-1.25z" fill="#553300" stroke-width="0.5"/><path d="M338.52214,312.48992c0,-0.69036 0.24313,-1.25 0.54305,-1.25c0.29992,0 0.54305,0.55964 0.54305,1.25c0,0.69036 -0.24313,1.25 -0.54305,1.25c-0.29992,0 -0.54305,-0.55964 -0.54305,-1.25z" fill="#553300" stroke-width="0.5"/><path d="M384.6493,335.08074c0,-0.69036 0.24313,-1.25 0.54305,-1.25c0.29992,0 0.54305,0.55964 0.54305,1.25c0,0.69036 -0.24313,1.25 -0.54305,1.25c-0.29992,0 -0.54305,-0.55964 -0.54305,-1.25z" fill="#553300" stroke-width="0.5"/><path d="M269.60622,310.98384c0,-1.38071 0.48626,-2.5 1.08609,-2.5c0.59983,0 1.08609,1.11929 1.08609,2.5c0,1.38071 -0.48626,2.5 -1.08609,2.5c-0.59983,0 -1.08609,-1.11929 -1.08609,-2.5z" fill="#553300" stroke-width="0.5"/><path d="M279.74765,328.3035c0,-1.38071 0.48626,-2.5 1.08609,-2.5c0.59983,0 1.08609,1.11929 1.08609,2.5c0,1.38071 -0.48626,2.5 -1.08609,2.5c-0.59983,0 -1.08609,-1.11929 -1.08609,-2.5z" fill="#553300" stroke-width="0.5"/><path d="M304.28337,350.89437c0,-1.38071 0.48626,-2.5 1.08609,-2.5c0.59983,0 1.08609,1.11929 1.08609,2.5c0,1.38071 -0.48626,2.5 -1.08609,2.5c-0.59983,0 -1.08609,-1.11929 -1.08609,-2.5z" fill="#553300" stroke-width="0.5"/><path d="M304.93766,307.97175c0,-1.38071 0.48626,-2.5 1.08609,-2.5c0.59983,0 1.08609,1.11929 1.08609,2.5c0,1.38071 -0.48626,2.5 -1.08609,2.5c-0.59983,0 -1.08609,-1.11929 -1.08609,-2.5z" fill="#553300" stroke-width="0.5"/><path d="M287.92623,345.62318c0,-1.38071 0.48626,-2.5 1.08609,-2.5c0.59983,0 1.08609,1.11929 1.08609,2.5c0,1.38071 -0.48626,2.5 -1.08609,2.5c-0.59983,0 -1.08609,-1.11929 -1.08609,-2.5z" fill="#553300" stroke-width="0.5"/><path d="M324.6709,331.82775c1.08609,0 1.08609,2.5 1.08609,2.5l-0.18241,2.89281c-0.2181,0.75303 -0.43619,1.50606 -0.65429,2.25908c0,0 -0.60245,2.08013 -1.50614,0.69338c-0.90368,-1.38675 -0.30123,-3.46688 -0.30123,-3.46688c0.2181,-0.75303 0.43619,-1.50606 0.65429,-2.25908l-0.18241,-0.11931c0,0 0,-2.5 1.08609,-2.5z" fill="#553300" stroke-width="0.5"/><path d="M326.5291,317.00809c0,-1.38071 0.48626,-2.5 1.08609,-2.5c0.59983,0 1.08609,1.11929 1.08609,2.5c0,1.38071 -0.48626,2.5 -1.08609,2.5c-0.59983,0 -1.08609,-1.11929 -1.08609,-2.5z" fill="#553300" stroke-width="0.5"/><path d="M343.54053,329.05654c0,-1.38071 0.48626,-2.5 1.08609,-2.5c0.59983,0 1.08609,1.11929 1.08609,2.5c0,1.38071 -0.48626,2.5 -1.08609,2.5c-0.59983,0 -1.08609,-1.11929 -1.08609,-2.5z" fill="#553300" stroke-width="0.5"/><path d="M353.35482,355.41254c0,-1.38071 0.48626,-2.5 1.08609,-2.5c0.59983,0 1.08609,1.11929 1.08609,2.5c0,1.38071 -0.48626,2.5 -1.08609,2.5c-0.59983,0 -1.08609,-1.11929 -1.08609,-2.5z" fill="#553300" stroke-width="0.5"/><path d="M360.22482,319.26716c0,-1.38071 0.48626,-2.5 1.08609,-2.5c0.59983,0 1.08609,1.11929 1.08609,2.5c0,1.38071 -0.48626,2.5 -1.08609,2.5c-0.59983,0 -1.08609,-1.11929 -1.08609,-2.5z" fill="#553300" stroke-width="0.5"/><path d="M373.31054,306.46567c0,-1.38071 0.48626,-2.5 1.08609,-2.5c0.59983,0 1.08609,1.11929 1.08609,2.5c0,1.38071 -0.48626,2.5 -1.08609,2.5c-0.59983,0 -1.08609,-1.11929 -1.08609,-2.5z" fill="#553300" stroke-width="0.5"/><path d="M381.78759,346.32053c0.67848,1.95217 -0.16962,3.51391 -0.16962,3.51391l-1.63571,3.01211c0,0 -0.84809,1.56174 -1.52657,-0.39043c-0.67848,-1.95217 0.16962,-3.51391 0.16962,-3.51391l1.63571,-3.01211c0,0 0.84809,-1.56174 1.52657,0.39043z" fill="#553300" stroke-width="0.5"/><path d="M391.3034,315.50201c0,-1.38071 0.48626,-2.5 1.08609,-2.5c0.59983,0 1.08609,1.11929 1.08609,2.5c0,1.38071 -0.48626,2.5 -1.08609,2.5c-0.59983,0 -1.08609,-1.11929 -1.08609,-2.5z" fill="#553300" stroke-width="0.5"/><path d="M349.4291,302.70054c0,-1.38071 0.48626,-2.5 1.08609,-2.5c0.59983,0 1.08609,1.11929 1.08609,2.5c0,1.38071 -0.48626,2.5 -1.08609,2.5c-0.59983,0 -1.08609,-1.11929 -1.08609,-2.5z" fill="#553300" stroke-width="0.5"/><path d="M301.66623,324.53837c0,-1.38071 0.48626,-2.5 1.08609,-2.5c0.59983,0 1.08609,1.11929 1.08609,2.5c0,1.38071 -0.48626,2.5 -1.08609,2.5c-0.59983,0 -1.08609,-1.11929 -1.08609,-2.5z" fill="#553300" stroke-width="0.5"/><path d="M280.18603,299.68845c0,-2.07107 0.72939,-3.75 1.62914,-3.75c0.89975,0 1.62914,1.67893 1.62914,3.75c0,2.07107 -0.72939,3.75 -1.62914,3.75c-0.89975,0 -1.62914,-1.67893 -1.62914,-3.75z" fill="#553300" stroke-width="0.5"/><path d="M267.42746,356.91861c0,-2.07107 0.72939,-3.75 1.62914,-3.75c0.89975,0 1.62914,1.67893 1.62914,3.75c0,2.07107 -0.72939,3.75 -1.62914,3.75c-0.89975,0 -1.62914,-1.67893 -1.62914,-3.75z" fill="#553300" stroke-width="0.5"/><path d="M294.90747,316.25507c0,-2.07107 0.72939,-3.75 1.62914,-3.75c0.89975,0 1.62914,1.67893 1.62914,3.75c0,2.07107 -0.72939,3.75 -1.62914,3.75c-0.89975,0 -1.62914,-1.67893 -1.62914,-3.75z" fill="#553300" stroke-width="0.5"/><path d="M321.0789,300.44147c0,-2.07107 0.72939,-3.75 1.62914,-3.75c0.89975,0 1.62914,1.67893 1.62914,3.75c0,2.07107 -0.72939,3.75 -1.62914,3.75c-0.89975,0 -1.62914,-1.67893 -1.62914,-3.75z" fill="#553300" stroke-width="0.5"/><path d="M325.00462,357.67163c0,-2.07107 0.72939,-3.75 1.62914,-3.75c0.89975,0 1.62914,1.67893 1.62914,3.75c0,2.07107 -0.72939,3.75 -1.62914,3.75c-0.89975,0 -1.62914,-1.67893 -1.62914,-3.75z" fill="#553300" stroke-width="0.5"/><path d="M354.44749,336.58684c0,-2.07107 0.72939,-3.75 1.62914,-3.75c0.89975,0 1.62914,1.67893 1.62914,3.75c0,2.07107 -0.72939,3.75 -1.62914,3.75c-0.89975,0 -1.62914,-1.67893 -1.62914,-3.75z" fill="#553300" stroke-width="0.5"/><path d="M366.22464,350.14135c0,-2.07107 0.72939,-3.75 1.62914,-3.75c0.89975,0 1.62914,1.67893 1.62914,3.75c0,2.07107 -0.72939,3.75 -1.62914,3.75c-0.89975,0 -1.62914,-1.67893 -1.62914,-3.75z" fill="#553300" stroke-width="0.5"/><path d="M372.76749,324.53837c0,-2.07107 0.72939,-3.75 1.62914,-3.75c0.89975,0 1.62914,1.67893 1.62914,3.75c0,2.07107 -0.72939,3.75 -1.62914,3.75c-0.89975,0 -1.62914,-1.67893 -1.62914,-3.75z" fill="#553300" stroke-width="0.5"/><path d="M332.20176,301.9475c0,-2.07107 0.72939,-3.75 1.62914,-3.75c0.89975,0 1.62914,1.67893 1.62914,3.75c0,2.07107 -0.72939,3.75 -1.62914,3.75c-0.89975,0 -1.62914,-1.67893 -1.62914,-3.75z" fill="#553300" stroke-width="0.5"/><path d="M263.49516,312.06038v-23.34388h137.11899v11.93696c-0.22793,1.21476 -0.35423,2.5542 -0.35423,3.96153c0,1.40733 0.1263,2.74677 0.35423,3.96153v3.48386z" fill="#ffffff" stroke-width="0"/><path d="M276.5348,310.71862c0,3.11915 -2.92934,5.64771 -6.54286,5.64771c-3.61352,0 -6.54286,-2.52857 -6.54286,-5.64771c0,-3.11915 2.92934,-5.64771 6.54286,-5.64771c3.61352,0 6.54286,2.52857 6.54286,5.64771z" fill="#ffffff" stroke-width="0"/><path d="M289.34409,310.56396c0,3.11915 -2.92934,5.64771 -6.54286,5.64771c-3.61352,0 -6.54286,-2.52857 -6.54286,-5.64771c0,-3.11915 2.92934,-5.64771 6.54286,-5.64771c3.61352,0 6.54286,2.52857 6.54286,5.64771z" fill="#ffffff" stroke-width="0"/><path d="M300.47383,310.83878c0,3.11915 -2.92934,5.64771 -6.54286,5.64771c-3.61352,0 -6.54286,-2.52857 -6.54286,-5.64771c0,-3.11915 2.92934,-5.64771 6.54286,-5.64771c3.61352,0 6.54286,2.52857 6.54286,5.64771z" fill="#ffffff" stroke-width="0"/><path d="M312.90989,312.40234c0,3.11915 -2.92934,5.64771 -6.54286,5.64771c-3.61352,0 -6.54286,-2.52857 -6.54286,-5.64771c0,-3.11915 2.92934,-5.64771 6.54286,-5.64771c3.61352,0 6.54286,2.52857 6.54286,5.64771z" fill="#ffffff" stroke-width="0"/><path d="M335.40337,312.12271c0,3.11915 -2.92934,5.64771 -6.54286,5.64771c-3.61352,0 -6.54286,-2.52857 -6.54286,-5.64771c0,-3.11915 2.92934,-5.64771 6.54286,-5.64771c3.61352,0 6.54286,2.52857 6.54286,5.64771z" fill="#ffffff" stroke-width="0"/><path d="M324.10783,311.40729c0,3.11915 -2.92934,5.64771 -6.54286,5.64771c-3.61352,0 -6.54286,-2.52857 -6.54286,-5.64771c0,-3.11915 2.92934,-5.64771 6.54286,-5.64771c3.61352,0 6.54286,2.52856 6.54286,5.64771z" fill="#ffffff" stroke-width="0"/><path d="M345.78665,312.39754c0,3.11915 -2.92934,5.64771 -6.54286,5.64771c-3.61352,0 -6.54286,-2.52857 -6.54286,-5.64771c0,-3.11915 2.92934,-5.64771 6.54286,-5.64771c3.61352,0 6.54286,2.52857 6.54286,5.64771z" fill="#ffffff" stroke-width="0"/><path d="M357.28963,311.81327c0,3.11915 -2.92934,5.64771 -6.54286,5.64771c-3.61352,0 -6.54286,-2.52857 -6.54286,-5.64771c0,-3.11915 2.92934,-5.64771 6.54286,-5.64771c3.61352,0 6.54286,2.52856 6.54286,5.64771z" fill="#ffffff" stroke-width="0"/><path d="M368.04614,312.51768c0,3.11915 -2.92934,5.64771 -6.54286,5.64771c-3.61352,0 -6.54286,-2.52856 -6.54286,-5.64771c0,-3.11915 2.92934,-5.64771 6.54286,-5.64771c3.61352,0 6.54286,2.52857 6.54286,5.64771z" fill="#ffffff" stroke-width="0"/><path d="M380.10897,311.5039c0,3.11915 -2.92934,5.64771 -6.54286,5.64771c-3.61352,0 -6.54286,-2.52857 -6.54286,-5.64771c0,-3.11915 2.92934,-5.64771 6.54286,-5.64771c3.61352,0 6.54286,2.52857 6.54286,5.64771z" fill="#ffffff" stroke-width="0"/><path d="M391.79856,311.34918c0,3.11915 -2.92934,5.64771 -6.54286,5.64771c-3.61352,0 -6.54286,-2.52856 -6.54286,-5.64771c0,-3.11915 2.92934,-5.64771 6.54286,-5.64771c3.61352,0 6.54286,2.52857 6.54286,5.64771z" fill="#ffffff" stroke-width="0"/><path d="M396.9453,316.41265c-3.61352,0 -6.54286,-2.52857 -6.54286,-5.64771c0,-3.11915 2.92934,-5.64771 6.54286,-5.64771c1.13028,0 2.19362,0.24739 3.12132,0.68287c-0.19446,2.34559 -0.09685,4.954 0.18503,7.56807c-0.09679,0.75217 -0.15619,1.54133 -0.17323,2.35606c-0.93047,0.43892 -1.99804,0.68842 -3.13312,0.68842z" fill="#ffffff" stroke-width="0"/><path d="M400.44834,302.03763c0,0.64342 -0.0704,1.24899 -0.19443,1.77813c0.00517,0.12161 0.00782,0.24493 0.00782,0.36966c0,2.07107 -0.72939,3.75 -1.62914,3.75c-0.89975,0 -1.62914,-1.67893 -1.62914,-3.75c0,-0.53467 0.04861,-1.0432 0.13621,-1.50345c-0.0876,-0.46026 -0.13621,-0.96879 -0.13621,-1.50346c0,-2.07107 0.72939,-3.75 1.62914,-3.75c0.71229,0 1.31782,1.05223 1.53921,2.51823c0.17463,0.59737 0.27654,1.31673 0.27654,2.09089z" fill="#ffffff" stroke-width="0.5"/><path d="M397.00345,311.91747c0,-2.07107 0.72939,-3.75 1.62914,-3.75c0.89975,0 1.62914,1.67893 1.62914,3.75c0,2.07107 -0.72939,3.75 -1.62914,3.75c-0.89975,0 -1.62914,-1.67893 -1.62914,-3.75z" fill="#ffffff" stroke-width="0.5"/><path d="M173.01917,191.5102c0,-0.41208 0.34716,-0.74614 0.77541,-0.74614c0.42825,0 0.7754,0.33406 0.7754,0.74614c0,0.41208 -0.34716,0.74614 -0.7754,0.74614c-0.42825,0 -0.77541,-0.33406 -0.77541,-0.74614z" fill="#553300" stroke-width="0.5"/><path d="M8.75203,177.12654c0,-0.82416 0.69432,-1.49228 1.5508,-1.49228c0.85648,0 1.55081,0.66812 1.55081,1.49228c0,0.82416 -0.69432,1.49228 -1.55081,1.49228c-0.85648,0 -1.5508,-0.66812 -1.5508,-1.49228z" fill="#553300" stroke-width="0.5"/><path d="M182.52039,179.82347c0,-0.82416 0.69432,-1.49227 1.5508,-1.49227c0.85648,0 1.5508,0.66811 1.5508,1.49227c0,0.82416 -0.69432,1.49228 -1.5508,1.49228c-0.85648,0 -1.5508,-0.66812 -1.5508,-1.49228z" fill="#553300" stroke-width="0.5"/><path d="M5.64104,204.54539c0,-1.23624 1.04148,-2.23841 2.32621,-2.23841c1.28473,0 2.32621,1.00217 2.32621,2.23841c0,1.23624 -1.04148,2.23841 -2.3262,2.23841c-1.28473,0 -2.32621,-1.00217 -2.32621,-2.23841z" fill="#553300" stroke-width="0.5"/><path d="M190.57631,180.36701c-5.15965,0 -9.34238,-1.50933 -9.34238,-3.37117c0,-1.86185 4.18273,-3.37117 9.34238,-3.37117c1.6139,0 3.13222,0.14767 4.45685,0.40761c-0.27766,1.4001 -0.13829,2.95709 0.2642,4.51745c-0.13821,0.44897 -0.22302,0.92004 -0.24734,1.40636c-1.3286,0.262 -2.85295,0.41092 -4.4737,0.41092z" fill="#ffffff" stroke-width="0"/><path d="M195.57822,171.78643c0,0.38406 -0.10052,0.74553 -0.27762,1.06139c0.00738,0.07259 0.01116,0.14621 0.01116,0.22066c0,1.23624 -1.04148,2.23841 -2.32621,2.23841c-1.28473,0 -2.3262,-1.00216 -2.3262,-2.23841c0,-0.31915 0.06942,-0.6227 0.1945,-0.89742c-0.12509,-0.27473 -0.1945,-0.57828 -0.1945,-0.89743c0,-1.23624 1.04147,-2.23841 2.3262,-2.23841c1.01706,0 1.88168,0.62808 2.19781,1.50315c0.24935,0.35657 0.39486,0.78596 0.39486,1.24807z" fill="#ffffff" stroke-width="0.5"/><path d="M190.65934,177.68381c0,-1.23624 1.04148,-2.23841 2.32621,-2.23841c1.28473,0 2.3262,1.00217 2.3262,2.23841c0,1.23624 -1.04147,2.23841 -2.3262,2.23841c-1.28473,0 -2.32621,-1.00217 -2.32621,-2.23841z" fill="#ffffff" stroke-width="0.5"/><path d="M550.2975,86.0155c0,0.64342 -0.07104,1.24899 -0.1962,1.77813c0.00522,0.12161 0.00788,0.24493 0.00788,0.36966c0,2.07107 -0.73602,3.75 -1.64396,3.75c-0.90794,0 -1.64397,-1.67893 -1.64397,-3.75c0,-0.53467 0.04906,-1.0432 0.13746,-1.50345c-0.0884,-0.46026 -0.13746,-0.96879 -0.13746,-1.50346c0,-2.07107 0.73603,-3.75 1.64397,-3.75c0.71878,0 1.32981,1.05223 1.55322,2.51823c0.17622,0.59737 0.27906,1.31673 0.27906,2.09089z" fill="#ffffff" stroke-width="0.5"/><path d="M546.82125,95.89535c0,-2.07107 0.73603,-3.75 1.64397,-3.75c0.90794,0 1.64397,1.67893 1.64397,3.75c0,2.07107 -0.73603,3.75 -1.64397,3.75c-0.90794,0 -1.64397,-1.67893 -1.64397,-3.75z" fill="#ffffff" stroke-width="0.5"/><g><path d="M347.18996,228.50734v-16.92791h63.30221v2.60072c-0.03753,0.16322 -0.05743,0.33378 -0.05743,0.50929c0,0.1755 0.01989,0.34607 0.05743,0.50928v13.30863z" fill="#714400" stroke-width="0"/><path d="M350.81477,222.97204c0,-0.14756 0.11254,-0.26718 0.25136,-0.26718c0.13882,0 0.25137,0.11962 0.25137,0.26718c0,0.14756 -0.11255,0.26719 -0.25137,0.26719c-0.13882,0 -0.25136,-0.11963 -0.25136,-0.26719z" fill="#553300" stroke-width="0.5"/><path d="M353.69191,225.70834c0,-0.14756 0.11254,-0.26719 0.25136,-0.26719c0.13882,0 0.25137,0.11962 0.25137,0.26719c0,0.14756 -0.11254,0.26719 -0.25137,0.26719c-0.13882,0 -0.25136,-0.11963 -0.25136,-0.26719z" fill="#553300" stroke-width="0.5"/><path d="M358.53761,216.85557c0,-0.14756 0.11254,-0.26718 0.25137,-0.26718c0.13882,0 0.25137,0.11962 0.25137,0.26718c0,0.14756 -0.11254,0.26719 -0.25137,0.26719c-0.13882,0 -0.25137,-0.11962 -0.25137,-0.26719z" fill="#553300" stroke-width="0.5"/><path d="M370.65185,219.43094c0,-0.14756 0.11254,-0.26718 0.25136,-0.26718c0.13882,0 0.25137,0.11962 0.25137,0.26718c0,0.14756 -0.11255,0.26719 -0.25137,0.26719c-0.13882,0 -0.25136,-0.11963 -0.25136,-0.26719z" fill="#553300" stroke-width="0.5"/><path d="M397.60605,222.16724c0,-0.14756 0.11254,-0.26719 0.25137,-0.26719c0.13882,0 0.25137,0.11962 0.25137,0.26719c0,0.14756 -0.11254,0.26719 -0.25137,0.26719c-0.13882,0 -0.25137,-0.11963 -0.25137,-0.26719z" fill="#553300" stroke-width="0.5"/><path d="M392.60893,216.69463c0,-0.14756 0.11254,-0.26719 0.25137,-0.26719c0.13882,0 0.25136,0.11962 0.25136,0.26719c0,0.14756 -0.11254,0.26719 -0.25136,0.26719c-0.13882,0 -0.25137,-0.11963 -0.25137,-0.26719z" fill="#553300" stroke-width="0.5"/><path d="M382.7661,223.45492c0,-0.14756 0.11253,-0.26719 0.25136,-0.26719c0.13882,0 0.25137,0.11963 0.25137,0.26719c0,0.14756 -0.11254,0.26719 -0.25137,0.26719c-0.13882,0 -0.25136,-0.11962 -0.25136,-0.26719z" fill="#553300" stroke-width="0.5"/><path d="M362.32331,220.23573c0,-0.14756 0.11254,-0.26719 0.25137,-0.26719c0.13882,0 0.25136,0.11962 0.25136,0.26719c0,0.14756 -0.11254,0.26719 -0.25136,0.26719c-0.13882,0 -0.25137,-0.11963 -0.25137,-0.26719z" fill="#553300" stroke-width="0.5"/><path d="M381.85753,216.37272c0,-0.14756 0.11255,-0.26719 0.25137,-0.26719c0.13882,0 0.25136,0.11963 0.25136,0.26719c0,0.14756 -0.11254,0.26719 -0.25136,0.26719c-0.13882,0 -0.25137,-0.11962 -0.25137,-0.26719z" fill="#553300" stroke-width="0.5"/><path d="M403.20889,221.20149c0,-0.14756 0.11254,-0.26719 0.25137,-0.26719c0.13882,0 0.25136,0.11962 0.25136,0.26719c0,0.14756 -0.11254,0.26719 -0.25136,0.26719c-0.13882,0 -0.25137,-0.11963 -0.25137,-0.26719z" fill="#553300" stroke-width="0.5"/><path d="M349.9577,216.0508c0,-0.29513 0.22508,-0.53438 0.50273,-0.53438c0.27765,0 0.50273,0.23925 0.50273,0.53438c0,0.29513 -0.22508,0.53437 -0.50273,0.53437c-0.27765,0 -0.50273,-0.23924 -0.50273,-0.53437z" fill="#553300" stroke-width="0.5"/><path d="M354.65197,219.75286c0,-0.29513 0.22508,-0.53438 0.50273,-0.53438c0.27765,0 0.50273,0.23925 0.50273,0.53438c0,0.29513 -0.22508,0.53437 -0.50273,0.53437c-0.27765,0 -0.50273,-0.23924 -0.50273,-0.53437z" fill="#553300" stroke-width="0.5"/><path d="M366.00907,224.58163c0,-0.29513 0.22508,-0.53437 0.50273,-0.53437c0.27765,0 0.50273,0.23924 0.50273,0.53437c0,0.29513 -0.22508,0.53438 -0.50273,0.53438c-0.27765,0 -0.50273,-0.23925 -0.50273,-0.53438z" fill="#553300" stroke-width="0.5"/><path d="M366.31193,215.40695c0,-0.29513 0.22508,-0.53437 0.50273,-0.53437c0.27765,0 0.50273,0.23925 0.50273,0.53437c0,0.29513 -0.22508,0.53437 -0.50273,0.53437c-0.27765,0 -0.50273,-0.23925 -0.50273,-0.53437z" fill="#553300" stroke-width="0.5"/><path d="M358.43767,223.45492c0,-0.29513 0.22508,-0.53437 0.50273,-0.53437c0.27765,0 0.50272,0.23925 0.50272,0.53437c0,0.29513 -0.22508,0.53437 -0.50272,0.53437c-0.27765,0 -0.50273,-0.23925 -0.50273,-0.53437z" fill="#553300" stroke-width="0.5"/><path d="M375.44606,220.50616c0.50273,0 0.50273,0.53437 0.50273,0.53437l-0.08443,0.61834c-0.10095,0.16096 -0.2019,0.32192 -0.30285,0.48288c0,0 -0.27886,0.44463 -0.69716,0.14821c-0.4183,-0.29641 -0.13944,-0.74104 -0.13944,-0.74104c0.10095,-0.16096 0.2019,-0.32192 0.30286,-0.48288l-0.08443,-0.02551c0,0 0,-0.53437 0.50273,-0.53437z" fill="#553300" stroke-width="0.5"/><path d="M376.30618,217.33846c0,-0.29513 0.22508,-0.53437 0.50273,-0.53437c0.27765,0 0.50273,0.23924 0.50273,0.53437c0,0.29513 -0.22508,0.53438 -0.50273,0.53438c-0.27765,0 -0.50273,-0.23925 -0.50273,-0.53438z" fill="#553300" stroke-width="0.5"/><path d="M384.18044,219.91382c0,-0.29513 0.22509,-0.53437 0.50274,-0.53437c0.27765,0 0.50272,0.23925 0.50272,0.53437c0,0.29513 -0.22508,0.53437 -0.50272,0.53437c-0.27765,0 -0.50274,-0.23925 -0.50274,-0.53437z" fill="#553300" stroke-width="0.5"/><path d="M388.72329,225.54738c0,-0.29513 0.22508,-0.53437 0.50273,-0.53437c0.27765,0 0.50273,0.23924 0.50273,0.53437c0,0.29513 -0.22508,0.53438 -0.50273,0.53438c-0.27765,0 -0.50273,-0.23925 -0.50273,-0.53438z" fill="#553300" stroke-width="0.5"/><path d="M391.90327,217.82135c0,-0.29513 0.22508,-0.53437 0.50273,-0.53437c0.27765,0 0.50273,0.23924 0.50273,0.53437c0,0.29513 -0.22508,0.53438 -0.50273,0.53438c-0.27765,0 -0.50273,-0.23925 -0.50273,-0.53438z" fill="#553300" stroke-width="0.5"/><path d="M397.9604,215.08504c0,-0.29513 0.22508,-0.53437 0.50272,-0.53437c0.27765,0 0.50273,0.23924 0.50273,0.53437c0,0.29513 -0.22508,0.53437 -0.50273,0.53437c-0.27765,0 -0.50272,-0.23925 -0.50272,-0.53437z" fill="#553300" stroke-width="0.5"/><path d="M401.88426,223.60395c0.31405,0.41727 -0.07851,0.7511 -0.07851,0.7511l-0.75714,0.64383c0,0 -0.39256,0.33382 -0.70661,-0.08346c-0.31405,-0.41727 0.07851,-0.75109 0.07851,-0.75109l0.75714,-0.64383c0,0 0.39257,-0.33382 0.70662,0.08345z" fill="#553300" stroke-width="0.5"/><path d="M406.28894,217.01655c0,-0.29513 0.22508,-0.53438 0.50273,-0.53438c0.27765,0 0.50273,0.23925 0.50273,0.53438c0,0.29513 -0.22508,0.53437 -0.50273,0.53437c-0.27765,0 -0.50273,-0.23924 -0.50273,-0.53437z" fill="#553300" stroke-width="0.5"/><path d="M386.90615,214.28025c0,-0.29513 0.22509,-0.53437 0.50274,-0.53437c0.27765,0 0.50273,0.23925 0.50273,0.53437c0,0.29513 -0.22508,0.53437 -0.50273,0.53437c-0.27765,0 -0.50274,-0.23924 -0.50274,-0.53437z" fill="#553300" stroke-width="0.5"/><path d="M364.79765,218.94806c0,-0.29513 0.22508,-0.53437 0.50273,-0.53437c0.27765,0 0.50273,0.23925 0.50273,0.53437c0,0.29513 -0.22508,0.53437 -0.50273,0.53437c-0.27765,0 -0.50273,-0.23925 -0.50273,-0.53437z" fill="#553300" stroke-width="0.5"/><path d="M354.85489,213.63641c0,-0.44269 0.33762,-0.80156 0.75409,-0.80156c0.41647,0 0.7541,0.35887 0.7541,0.80156c0,0.44269 -0.33762,0.80156 -0.7541,0.80156c-0.41647,0 -0.75409,-0.35887 -0.75409,-0.80156z" fill="#553300" stroke-width="0.5"/><path d="M348.94919,225.8693c0,-0.44269 0.33762,-0.80156 0.7541,-0.80156c0.41647,0 0.7541,0.35887 0.7541,0.80156c0,0.44269 -0.33762,0.80156 -0.7541,0.80156c-0.41647,0 -0.7541,-0.35887 -0.7541,-0.80156z" fill="#553300" stroke-width="0.5"/><path d="M361.66915,217.17751c0,-0.44269 0.33762,-0.80156 0.7541,-0.80156c0.41647,0 0.7541,0.35887 0.7541,0.80156c0,0.44269 -0.33762,0.80156 -0.7541,0.80156c-0.41647,0 -0.7541,-0.35887 -0.7541,-0.80156z" fill="#553300" stroke-width="0.5"/><path d="M373.7834,213.79735c0,-0.44269 0.33762,-0.80156 0.7541,-0.80156c0.41647,0 0.7541,0.35887 0.7541,0.80156c0,0.44269 -0.33762,0.80156 -0.7541,0.80156c-0.41647,0 -0.7541,-0.35887 -0.7541,-0.80156z" fill="#553300" stroke-width="0.5"/><path d="M375.60053,226.03026c0,-0.44269 0.33762,-0.80156 0.7541,-0.80156c0.41647,0 0.7541,0.35887 0.7541,0.80156c0,0.44269 -0.33762,0.80156 -0.7541,0.80156c-0.41647,0 -0.7541,-0.35887 -0.7541,-0.80156z" fill="#553300" stroke-width="0.5"/><path d="M389.22906,221.52341c0,-0.44269 0.33762,-0.80156 0.7541,-0.80156c0.41647,0 0.7541,0.35887 0.7541,0.80156c0,0.44269 -0.33762,0.80155 -0.7541,0.80155c-0.41647,0 -0.7541,-0.35886 -0.7541,-0.80155z" fill="#553300" stroke-width="0.5"/><path d="M394.68047,224.42066c0,-0.44269 0.33763,-0.80156 0.7541,-0.80156c0.41647,0 0.75409,0.35887 0.75409,0.80156c0,0.44269 -0.33762,0.80156 -0.75409,0.80156c-0.41647,0 -0.7541,-0.35887 -0.7541,-0.80156z" fill="#553300" stroke-width="0.5"/><path d="M397.70903,218.94806c0,-0.44269 0.33762,-0.80156 0.7541,-0.80156c0.41647,0 0.7541,0.35887 0.7541,0.80156c0,0.44269 -0.33763,0.80156 -0.7541,0.80156c-0.41647,0 -0.7541,-0.35887 -0.7541,-0.80156z" fill="#553300" stroke-width="0.5"/><path d="M378.93195,214.11929c0,-0.44269 0.33762,-0.80156 0.7541,-0.80156c0.41647,0 0.7541,0.35887 0.7541,0.80156c0,0.44269 -0.33762,0.80156 -0.7541,0.80156c-0.41647,0 -0.7541,-0.35887 -0.7541,-0.80156z" fill="#553300" stroke-width="0.5"/><path d="M347.12901,216.28089v-4.98973h63.4697v2.55151c-0.1055,0.25966 -0.16396,0.54596 -0.16396,0.84678c0,0.30082 0.05846,0.58712 0.16396,0.84677v0.74467z" fill="#ffffff" stroke-width="0"/><path d="M353.1648,215.99411c0,0.66672 -1.35594,1.20719 -3.02857,1.20719c-1.67263,0 -3.02856,-0.54047 -3.02856,-1.20719c0,-0.66672 1.35593,-1.2072 3.02857,-1.2072c1.67263,0 3.02856,0.54048 3.02856,1.2072z" fill="#ffffff" stroke-width="0"/><path d="M359.09397,215.96103c0,0.66672 -1.35593,1.2072 -3.02857,1.2072c-1.67263,0 -3.02856,-0.54048 -3.02856,-1.2072c0,-0.66672 1.35593,-1.20719 3.02856,-1.20719c1.67263,0 3.02856,0.54047 3.02856,1.20719z" fill="#ffffff" stroke-width="0"/><path d="M364.24571,216.01977c0,0.66672 -1.35593,1.2072 -3.02856,1.2072c-1.67263,0 -3.02856,-0.54048 -3.02856,-1.2072c0,-0.66672 1.35593,-1.20719 3.02856,-1.20719c1.67263,0 3.02856,0.54047 3.02856,1.20719z" fill="#ffffff" stroke-width="0"/><path d="M370.00212,216.35399c0,0.66672 -1.35594,1.2072 -3.02856,1.2072c-1.67263,0 -3.02856,-0.54048 -3.02856,-1.2072c0,-0.66672 1.35593,-1.20719 3.02856,-1.20719c1.67263,0 3.02856,0.54048 3.02856,1.20719z" fill="#ffffff" stroke-width="0"/><path d="M380.41391,216.29422c0,0.66672 -1.35593,1.20719 -3.02857,1.20719c-1.67263,0 -3.02856,-0.54048 -3.02856,-1.20719c0,-0.66672 1.35593,-1.2072 3.02856,-1.2072c1.67263,0 3.02857,0.54048 3.02857,1.2072z" fill="#ffffff" stroke-width="0"/><path d="M375.18543,216.14128c0,0.66672 -1.35593,1.2072 -3.02856,1.2072c-1.67263,0 -3.02856,-0.54048 -3.02856,-1.2072c0,-0.66672 1.35593,-1.20719 3.02856,-1.20719c1.67263,0 3.02856,0.54047 3.02856,1.20719z" fill="#ffffff" stroke-width="0"/><path d="M385.22013,216.35296c0,0.66672 -1.35593,1.2072 -3.02856,1.2072c-1.67263,0 -3.02856,-0.54048 -3.02856,-1.2072c0,-0.66672 1.35593,-1.20719 3.02856,-1.20719c1.67263,0 3.02856,0.54047 3.02856,1.20719z" fill="#ffffff" stroke-width="0"/><path d="M390.54463,216.22809c0,0.66672 -1.35593,1.20719 -3.02856,1.20719c-1.67263,0 -3.02856,-0.54047 -3.02856,-1.20719c0,-0.66672 1.35593,-1.2072 3.02856,-1.2072c1.67263,0 3.02856,0.54048 3.02856,1.2072z" fill="#ffffff" stroke-width="0"/><path d="M395.52361,216.37865c0,0.66672 -1.35593,1.20719 -3.02856,1.20719c-1.67263,0 -3.02857,-0.54047 -3.02857,-1.20719c0,-0.66672 1.35593,-1.20719 3.02857,-1.20719c1.67263,0 3.02856,0.54048 3.02856,1.20719z" fill="#ffffff" stroke-width="0"/><path d="M401.10726,216.16195c0,0.66672 -1.35593,1.20719 -3.02856,1.20719c-1.67263,0 -3.02856,-0.54047 -3.02856,-1.20719c0,-0.66672 1.35593,-1.2072 3.02856,-1.2072c1.67263,0 3.02856,0.54048 3.02856,1.2072z" fill="#ffffff" stroke-width="0"/><path d="M406.51814,216.12889c0,0.66672 -1.35593,1.20719 -3.02856,1.20719c-1.67263,0 -3.02856,-0.54047 -3.02856,-1.20719c0,-0.66672 1.35593,-1.2072 3.02856,-1.2072c1.67263,0 3.02856,0.54048 3.02856,1.2072z" fill="#ffffff" stroke-width="0"/><path d="M408.90046,217.21119c-1.67263,0 -3.02855,-0.54047 -3.02855,-1.20719c0,-0.66672 1.35592,-1.2072 3.02855,-1.2072c0.52319,0 1.01538,0.05288 1.4448,0.14596c-0.09001,0.50137 -0.04483,1.05892 0.08564,1.61767c-0.0448,0.16078 -0.07229,0.32945 -0.08018,0.5036c-0.4307,0.09382 -0.92486,0.14715 -1.45027,0.14715z" fill="#ffffff" stroke-width="0"/><path d="M410.52196,214.13855c0,0.13753 -0.03258,0.26696 -0.09,0.38007c0.00239,0.02599 0.00362,0.05236 0.00362,0.07901c0,0.44269 -0.33762,0.80156 -0.75409,0.80156c-0.41647,0 -0.7541,-0.35887 -0.7541,-0.80156c0,-0.11428 0.0225,-0.22298 0.06305,-0.32136c-0.04055,-0.09838 -0.06305,-0.20708 -0.06305,-0.32136c0,-0.44269 0.33762,-0.80156 0.7541,-0.80156c0.3297,0 0.60999,0.22491 0.71247,0.53826c0.08083,0.12769 0.128,0.28146 0.128,0.44693z" fill="#ffffff" stroke-width="0.5"/><path d="M408.92738,216.25034c0,-0.44269 0.33762,-0.80156 0.75409,-0.80156c0.41647,0 0.7541,0.35887 0.7541,0.80156c0,0.44269 -0.33763,0.80156 -0.7541,0.80156c-0.41647,0 -0.75409,-0.35887 -0.75409,-0.80156z" fill="#ffffff" stroke-width="0.5"/></g><g><path d="M250.88055,141.85811v-15.34948h63.50196v2.35822c-0.03765,0.148 -0.05761,0.30265 -0.05761,0.46179c0,0.15914 0.01997,0.3138 0.05761,0.46179v12.06768z" fill="#714400" stroke-width="0"/><path d="M254.5168,136.83891c0,-0.1338 0.11289,-0.24227 0.25216,-0.24227c0.13927,0 0.25215,0.10847 0.25215,0.24227c0,0.1338 -0.11289,0.24228 -0.25215,0.24228c-0.13927,0 -0.25216,-0.10847 -0.25216,-0.24228z" fill="#553300" stroke-width="0.5"/><path d="M257.40301,139.32008c0,-0.1338 0.11289,-0.24227 0.25216,-0.24227c0.13927,0 0.25216,0.10846 0.25216,0.24227c0,0.1338 -0.11289,0.24228 -0.25216,0.24228c-0.13927,0 -0.25216,-0.10847 -0.25216,-0.24228z" fill="#553300" stroke-width="0.5"/><path d="M262.264,131.2928c0,-0.1338 0.11289,-0.24227 0.25216,-0.24227c0.13927,0 0.25216,0.10846 0.25216,0.24227c0,0.1338 -0.11289,0.24228 -0.25216,0.24228c-0.13927,0 -0.25216,-0.10847 -0.25216,-0.24228z" fill="#553300" stroke-width="0.5"/><path d="M274.41647,133.62801c0,-0.1338 0.11289,-0.24227 0.25216,-0.24227c0.13927,0 0.25216,0.10847 0.25216,0.24227c0,0.1338 -0.11289,0.24228 -0.25216,0.24228c-0.13927,0 -0.25216,-0.10847 -0.25216,-0.24228z" fill="#553300" stroke-width="0.5"/><path d="M301.45572,136.10915c0,-0.1338 0.11289,-0.24228 0.25216,-0.24228c0.13927,0 0.25216,0.10847 0.25216,0.24228c0,0.1338 -0.11289,0.24227 -0.25216,0.24227c-0.13927,0 -0.25216,-0.10846 -0.25216,-0.24227z" fill="#553300" stroke-width="0.5"/><path d="M296.44282,131.14684c0,-0.1338 0.11289,-0.24227 0.25216,-0.24227c0.13927,0 0.25216,0.10846 0.25216,0.24227c0,0.1338 -0.11289,0.24228 -0.25216,0.24228c-0.13927,0 -0.25216,-0.10847 -0.25216,-0.24228z" fill="#553300" stroke-width="0.5"/><path d="M286.56894,137.27677c0,-0.1338 0.11289,-0.24227 0.25216,-0.24227c0.13927,0 0.25216,0.10846 0.25216,0.24227c0,0.1338 -0.11289,0.24228 -0.25216,0.24228c-0.13927,0 -0.25216,-0.10847 -0.25216,-0.24228z" fill="#553300" stroke-width="0.5"/><path d="M266.06164,134.35776c0,-0.1338 0.11289,-0.24227 0.25216,-0.24227c0.13927,0 0.25216,0.10847 0.25216,0.24227c0,0.1338 -0.11289,0.24228 -0.25216,0.24228c-0.13927,0 -0.25216,-0.10847 -0.25216,-0.24228z" fill="#553300" stroke-width="0.5"/><path d="M285.6575,130.85494c0,-0.1338 0.11289,-0.24227 0.25216,-0.24227c0.13927,0 0.25216,0.10847 0.25216,0.24227c0,0.1338 -0.11289,0.24227 -0.25216,0.24227c-0.13927,0 -0.25216,-0.10847 -0.25216,-0.24227z" fill="#553300" stroke-width="0.5"/><path d="M307.07623,135.23347c0,-0.1338 0.11289,-0.24228 0.25216,-0.24228c0.13927,0 0.25216,0.10847 0.25216,0.24228c0,0.1338 -0.11289,0.24227 -0.25216,0.24227c-0.13927,0 -0.25216,-0.10846 -0.25216,-0.24227z" fill="#553300" stroke-width="0.5"/><path d="M253.65702,130.56304c0,-0.26761 0.22579,-0.48454 0.50431,-0.48454c0.27853,0 0.50432,0.21694 0.50432,0.48454c0,0.26761 -0.22579,0.48454 -0.50432,0.48454c-0.27853,0 -0.50431,-0.21694 -0.50431,-0.48454z" fill="#553300" stroke-width="0.5"/><path d="M258.3661,133.91991c0,-0.26761 0.22579,-0.48454 0.50432,-0.48454c0.27853,0 0.50432,0.21694 0.50432,0.48454c0,0.26761 -0.2258,0.48454 -0.50432,0.48454c-0.27853,0 -0.50432,-0.21694 -0.50432,-0.48454z" fill="#553300" stroke-width="0.5"/><path d="M269.75904,138.29843c0,-0.26761 0.2258,-0.48455 0.50432,-0.48455c0.27853,0 0.50432,0.21694 0.50432,0.48455c0,0.26761 -0.22579,0.48455 -0.50432,0.48455c-0.27853,0 -0.50432,-0.21694 -0.50432,-0.48455z" fill="#553300" stroke-width="0.5"/><path d="M270.06285,129.97923c0,-0.26761 0.22579,-0.48454 0.50432,-0.48454c0.27853,0 0.50432,0.21694 0.50432,0.48454c0,0.26761 -0.2258,0.48454 -0.50432,0.48454c-0.27853,0 -0.50432,-0.21694 -0.50432,-0.48454z" fill="#553300" stroke-width="0.5"/><path d="M262.16375,137.27677c0,-0.26761 0.22579,-0.48454 0.50431,-0.48454c0.27853,0 0.50432,0.21694 0.50432,0.48454c0,0.26761 -0.22579,0.48455 -0.50432,0.48455c-0.27853,0 -0.50431,-0.21694 -0.50431,-0.48455z" fill="#553300" stroke-width="0.5"/><path d="M279.2258,134.60296c0.50432,0 0.50432,0.48455 0.50432,0.48455l-0.0847,0.56068c-0.10127,0.14595 -0.20254,0.2919 -0.30381,0.43785c0,0 -0.27974,0.40317 -0.69936,0.13439c-0.41962,-0.26878 -0.13988,-0.67195 -0.13988,-0.67195c0.10127,-0.14595 0.20254,-0.2919 0.30381,-0.43785l-0.0847,-0.02312c0,0 0,-0.48455 0.50432,-0.48455z" fill="#553300" stroke-width="0.5"/><path d="M280.08864,131.73064c0,-0.26761 0.22579,-0.48455 0.50432,-0.48455c0.27853,0 0.50431,0.21695 0.50431,0.48455c0,0.26761 -0.22579,0.48454 -0.50431,0.48454c-0.27853,0 -0.50432,-0.21694 -0.50432,-0.48454z" fill="#553300" stroke-width="0.5"/><path d="M287.98775,134.06586c0,-0.26761 0.22579,-0.48455 0.50432,-0.48455c0.27853,0 0.50432,0.21694 0.50432,0.48455c0,0.26761 -0.22579,0.48454 -0.50432,0.48454c-0.27853,0 -0.50432,-0.21694 -0.50432,-0.48454z" fill="#553300" stroke-width="0.5"/><path d="M292.54492,139.17413c0,-0.26761 0.22579,-0.48454 0.50432,-0.48454c0.27853,0 0.50432,0.21694 0.50432,0.48454c0,0.26761 -0.2258,0.48454 -0.50432,0.48454c-0.27853,0 -0.50432,-0.21694 -0.50432,-0.48454z" fill="#553300" stroke-width="0.5"/><path d="M295.73495,132.1685c0,-0.26761 0.22579,-0.48454 0.50432,-0.48454c0.27853,0 0.50431,0.21694 0.50431,0.48454c0,0.26761 -0.22579,0.48454 -0.50431,0.48454c-0.27853,0 -0.50432,-0.21694 -0.50432,-0.48454z" fill="#553300" stroke-width="0.5"/><path d="M301.81118,129.68732c0,-0.26761 0.22579,-0.48454 0.50432,-0.48454c0.27853,0 0.50432,0.21694 0.50432,0.48454c0,0.26761 -0.2258,0.48454 -0.50432,0.48454c-0.27853,0 -0.50432,-0.21694 -0.50432,-0.48454z" fill="#553300" stroke-width="0.5"/><path d="M305.74742,137.4119c0.31504,0.37837 -0.07876,0.68106 -0.07876,0.68106l-0.75953,0.58381c0,0 -0.39381,0.30269 -0.70885,-0.07567c-0.31504,-0.37837 0.07876,-0.68106 0.07876,-0.68106l0.75953,-0.5838c0,0 0.3938,-0.3027 0.70885,0.07567z" fill="#553300" stroke-width="0.5"/><path d="M310.16601,131.43874c0,-0.26761 0.22579,-0.48454 0.50432,-0.48454c0.27853,0 0.50431,0.21694 0.50431,0.48454c0,0.26761 -0.22579,0.48455 -0.50431,0.48455c-0.27853,0 -0.50432,-0.21694 -0.50432,-0.48455z" fill="#553300" stroke-width="0.5"/><path d="M290.72205,128.95756c0,-0.26761 0.22579,-0.48454 0.50432,-0.48454c0.27853,0 0.50432,0.21694 0.50432,0.48454c0,0.26761 -0.2258,0.48454 -0.50432,0.48454c-0.27853,0 -0.50432,-0.21694 -0.50432,-0.48454z" fill="#553300" stroke-width="0.5"/><path d="M268.54379,133.19016c0,-0.26761 0.22579,-0.48454 0.50431,-0.48454c0.27853,0 0.50432,0.21694 0.50432,0.48454c0,0.26761 -0.2258,0.48454 -0.50432,0.48454c-0.27853,0 -0.50431,-0.21694 -0.50431,-0.48454z" fill="#553300" stroke-width="0.5"/><path d="M258.56966,128.37378c0,-0.40141 0.33868,-0.72681 0.75647,-0.72681c0.41779,0 0.75648,0.3254 0.75648,0.72681c0,0.40141 -0.33868,0.72682 -0.75648,0.72682c-0.41779,0 -0.75647,-0.32541 -0.75647,-0.72682z" fill="#553300" stroke-width="0.5"/><path d="M252.64533,139.46604c0,-0.40141 0.33868,-0.72682 0.75647,-0.72682c0.41779,0 0.75648,0.32541 0.75648,0.72682c0,0.40141 -0.33868,0.72681 -0.75648,0.72681c-0.41779,0 -0.75647,-0.3254 -0.75647,-0.72681z" fill="#553300" stroke-width="0.5"/><path d="M265.40542,131.5847c0,-0.40141 0.33868,-0.72681 0.75648,-0.72681c0.41779,0 0.75647,0.3254 0.75647,0.72681c0,0.40141 -0.33868,0.72682 -0.75647,0.72682c-0.41779,0 -0.75648,-0.32541 -0.75648,-0.72682z" fill="#553300" stroke-width="0.5"/><path d="M277.55789,128.51974c0,-0.40141 0.33868,-0.72682 0.75648,-0.72682c0.41779,0 0.75647,0.32541 0.75647,0.72682c0,0.40141 -0.33868,0.72681 -0.75647,0.72681c-0.41779,0 -0.75648,-0.3254 -0.75648,-0.72681z" fill="#553300" stroke-width="0.5"/><path d="M279.38076,139.61198c0,-0.40141 0.33868,-0.72681 0.75647,-0.72681c0.41779,0 0.75648,0.3254 0.75648,0.72681c0,0.40141 -0.33868,0.72682 -0.75648,0.72682c-0.41779,0 -0.75647,-0.32541 -0.75647,-0.72682z" fill="#553300" stroke-width="0.5"/><path d="M293.05229,135.52535c0,-0.40141 0.33868,-0.72682 0.75648,-0.72682c0.41779,0 0.75648,0.32541 0.75648,0.72682c0,0.40141 -0.33868,0.72682 -0.75648,0.72682c-0.41779,0 -0.75648,-0.32541 -0.75648,-0.72682z" fill="#553300" stroke-width="0.5"/><path d="M298.52091,138.15247c0,-0.40141 0.33868,-0.72682 0.75648,-0.72682c0.41779,0 0.75648,0.32541 0.75648,0.72682c0,0.40141 -0.33868,0.72682 -0.75648,0.72682c-0.41779,0 -0.75648,-0.32541 -0.75648,-0.72682z" fill="#553300" stroke-width="0.5"/><path d="M301.55902,133.19016c0,-0.40141 0.33868,-0.72682 0.75648,-0.72682c0.41779,0 0.75647,0.32541 0.75647,0.72682c0,0.40141 -0.33868,0.72681 -0.75647,0.72681c-0.41779,0 -0.75648,-0.3254 -0.75648,-0.72681z" fill="#553300" stroke-width="0.5"/><path d="M282.72269,128.81164c0,-0.40141 0.33868,-0.72682 0.75647,-0.72682c0.41779,0 0.75648,0.32541 0.75648,0.72682c0,0.40141 -0.33868,0.72682 -0.75648,0.72682c-0.41779,0 -0.75647,-0.32541 -0.75647,-0.72682z" fill="#553300" stroke-width="0.5"/><path d="M250.8194,130.77167v-4.52447h63.66997v2.3136c-0.10584,0.23544 -0.16449,0.49506 -0.16449,0.76782c0,0.27276 0.05865,0.53237 0.16449,0.76782v0.67523z" fill="#ffffff" stroke-width="0"/><path d="M256.87424,130.51164c0,0.60455 -1.36021,1.09463 -3.03812,1.09463c-1.67791,0 -3.03812,-0.49009 -3.03812,-1.09463c0,-0.60455 1.36021,-1.09463 3.03812,-1.09463c1.67791,0 3.03812,0.49008 3.03812,1.09463z" fill="#ffffff" stroke-width="0"/><path d="M262.82212,130.48164c0,0.60455 -1.36021,1.09463 -3.03812,1.09463c-1.67791,0 -3.03812,-0.49008 -3.03812,-1.09463c0,-0.60455 1.36021,-1.09463 3.03812,-1.09463c1.67791,0 3.03812,0.49008 3.03812,1.09463z" fill="#ffffff" stroke-width="0"/><path d="M267.99011,130.53492c0,0.60455 -1.36021,1.09463 -3.03812,1.09463c-1.67791,0 -3.03812,-0.49008 -3.03812,-1.09463c0,-0.60455 1.36022,-1.09463 3.03812,-1.09463c1.67791,0 3.03812,0.49008 3.03812,1.09463z" fill="#ffffff" stroke-width="0"/><path d="M273.76468,130.83794c0,0.60455 -1.36021,1.09463 -3.03812,1.09463c-1.67791,0 -3.03812,-0.49008 -3.03812,-1.09463c0,-0.60455 1.36021,-1.09463 3.03812,-1.09463c1.67791,0 3.03812,0.49008 3.03812,1.09463z" fill="#ffffff" stroke-width="0"/><path d="M284.20933,130.78376c0,0.60455 -1.36021,1.09463 -3.03812,1.09463c-1.67791,0 -3.03812,-0.49008 -3.03812,-1.09463c0,-0.60455 1.36021,-1.09463 3.03812,-1.09463c1.67791,0 3.03812,0.49008 3.03812,1.09463z" fill="#ffffff" stroke-width="0"/><path d="M278.96435,130.64511c0,0.60455 -1.36021,1.09463 -3.03812,1.09463c-1.67791,0 -3.03812,-0.49008 -3.03812,-1.09463c0,-0.60455 1.36021,-1.09463 3.03812,-1.09463c1.67791,0 3.03812,0.49008 3.03812,1.09463z" fill="#ffffff" stroke-width="0"/><path d="M289.03071,130.83703c0,0.60455 -1.36021,1.09463 -3.03812,1.09463c-1.67791,0 -3.03812,-0.49008 -3.03812,-1.09463c0,-0.60455 1.36021,-1.09463 3.03812,-1.09463c1.67791,0 3.03812,0.49008 3.03812,1.09463z" fill="#ffffff" stroke-width="0"/><path d="M294.37202,130.72377c0,0.60455 -1.36021,1.09463 -3.03812,1.09463c-1.67791,0 -3.03812,-0.49009 -3.03812,-1.09463c0,-0.60455 1.36021,-1.09463 3.03812,-1.09463c1.67791,0 3.03812,0.49008 3.03812,1.09463z" fill="#ffffff" stroke-width="0"/><path d="M299.36671,130.86032c0,0.60455 -1.36021,1.09463 -3.03812,1.09463c-1.67791,0 -3.03812,-0.49008 -3.03812,-1.09463c0,-0.60455 1.36021,-1.09463 3.03812,-1.09463c1.67791,0 3.03812,0.49008 3.03812,1.09463z" fill="#ffffff" stroke-width="0"/><path d="M304.96797,130.66384c0,0.60455 -1.36021,1.09462 -3.03812,1.09462c-1.67791,0 -3.03812,-0.49008 -3.03812,-1.09462c0,-0.60455 1.36021,-1.09463 3.03812,-1.09463c1.67791,0 3.03812,0.49009 3.03812,1.09463z" fill="#ffffff" stroke-width="0"/><path d="M310.39593,130.63385c0,0.60455 -1.36021,1.09463 -3.03812,1.09463c-1.67791,0 -3.03812,-0.49008 -3.03812,-1.09463c0,-0.60455 1.36021,-1.09463 3.03812,-1.09463c1.67791,0 3.03812,0.49008 3.03812,1.09463z" fill="#ffffff" stroke-width="0"/><path d="M312.78577,131.61523c-1.67791,0 -3.03812,-0.49008 -3.03812,-1.09463c0,-0.60455 1.36021,-1.09463 3.03812,-1.09463c0.52483,0 1.01859,0.04794 1.44936,0.13235c-0.0903,0.45462 -0.04497,0.96018 0.08591,1.46684c-0.04494,0.14578 -0.07253,0.29874 -0.08044,0.45665c-0.43205,0.08507 -0.92777,0.13343 -1.45484,0.13343z" fill="#ffffff" stroke-width="0"/><path d="M314.41238,128.82907c0,0.12471 -0.03269,0.24208 -0.09028,0.34464c0.0024,0.02357 0.00363,0.04747 0.00363,0.07164c0,0.40141 -0.33868,0.72682 -0.75648,0.72682c-0.41779,0 -0.75647,-0.32541 -0.75647,-0.72682c0,-0.10363 0.02257,-0.20219 0.06325,-0.29139c-0.04068,-0.0892 -0.06325,-0.18776 -0.06325,-0.29139c0,-0.40141 0.33868,-0.72682 0.75647,-0.72682c0.33074,0 0.61192,0.20394 0.71472,0.48808c0.08109,0.11578 0.12841,0.2552 0.12841,0.40525z" fill="#ffffff" stroke-width="0.5"/><path d="M312.81277,130.74399c0,-0.40141 0.33868,-0.72681 0.75647,-0.72681c0.41779,0 0.75648,0.3254 0.75648,0.72681c0,0.40141 -0.33868,0.72682 -0.75648,0.72682c-0.41779,0 -0.75647,-0.32541 -0.75647,-0.72682z" fill="#ffffff" stroke-width="0.5"/></g><g><path d="M0.21424,211.91233v-47.27235h195.27212v7.26269c-0.11578,0.45579 -0.17716,0.9321 -0.17716,1.42221c0,0.49011 0.06138,0.96642 0.17716,1.42221v37.16526z" fill="#714400" stroke-width="0"/><path d="M11.39591,196.45459c0,-0.41208 0.34715,-0.74614 0.7754,-0.74614c0.42825,0 0.7754,0.33406 0.7754,0.74614c0,0.41208 -0.34716,0.74614 -0.7754,0.74614c-0.42825,0 -0.7754,-0.33406 -0.7754,-0.74614z" fill="#553300" stroke-width="0.5"/><path d="M20.27118,204.09589c0,-0.41208 0.34715,-0.74614 0.7754,-0.74614c0.42825,0 0.7754,0.33406 0.7754,0.74614c0,0.41208 -0.34716,0.74614 -0.7754,0.74614c-0.42825,0 -0.7754,-0.33406 -0.7754,-0.74614z" fill="#553300" stroke-width="0.5"/><path d="M35.21899,179.37399c0,-0.41208 0.34716,-0.74613 0.7754,-0.74613c0.42824,0 0.7754,0.33405 0.7754,0.74613c0,0.41208 -0.34716,0.74614 -0.7754,0.74614c-0.42824,0 -0.7754,-0.33406 -0.7754,-0.74614z" fill="#553300" stroke-width="0.5"/><path d="M72.58853,186.56581c0,-0.41208 0.34716,-0.74614 0.7754,-0.74614c0.42825,0 0.7754,0.33406 0.7754,0.74614c0,0.41208 -0.34716,0.74614 -0.7754,0.74614c-0.42825,0 -0.7754,-0.33406 -0.7754,-0.74614z" fill="#553300" stroke-width="0.5"/><path d="M155.73576,194.20714c0,-0.41208 0.34716,-0.74614 0.7754,-0.74614c0.42825,0 0.7754,0.33406 0.7754,0.74614c0,0.41208 -0.34716,0.74614 -0.7754,0.74614c-0.42825,0 -0.7754,-0.33406 -0.7754,-0.74614z" fill="#553300" stroke-width="0.5"/><path d="M140.32083,178.9245c0,-0.41208 0.34715,-0.74613 0.7754,-0.74613c0.42825,0 0.7754,0.33405 0.7754,0.74613c0,0.41208 -0.34715,0.74614 -0.7754,0.74614c-0.42825,0 -0.7754,-0.33406 -0.7754,-0.74614z" fill="#553300" stroke-width="0.5"/><path d="M109.95807,197.80305c0,-0.41208 0.34715,-0.74614 0.7754,-0.74614c0.42825,0 0.7754,0.33406 0.7754,0.74614c0,0.41208 -0.34716,0.74614 -0.7754,0.74614c-0.42825,0 -0.7754,-0.33406 -0.7754,-0.74614z" fill="#553300" stroke-width="0.5"/><path d="M46.89697,188.81327c0,-0.41208 0.34716,-0.74613 0.7754,-0.74613c0.42824,0 0.7754,0.33405 0.7754,0.74613c0,0.41208 -0.34716,0.74614 -0.7754,0.74614c-0.42824,0 -0.7754,-0.33406 -0.7754,-0.74614z" fill="#553300" stroke-width="0.5"/><path d="M107.15536,178.02551c0,-0.41208 0.34716,-0.74614 0.7754,-0.74614c0.42825,0 0.7754,0.33406 0.7754,0.74614c0,0.41208 -0.34715,0.74614 -0.7754,0.74614c-0.42825,0 -0.7754,-0.33406 -0.7754,-0.74614z" fill="#553300" stroke-width="0.5"/><path d="M23.23273,187.46479c0,-0.82416 0.69431,-1.49228 1.5508,-1.49228c0.85648,0 1.55081,0.66812 1.55081,1.49228c0,0.82416 -0.69432,1.49227 -1.55081,1.49227c-0.85648,0 -1.5508,-0.66811 -1.5508,-1.49227z" fill="#553300" stroke-width="0.5"/><path d="M58.26668,200.94948c0,-0.82416 0.69432,-1.49228 1.5508,-1.49228c0.85648,0 1.5508,0.66812 1.5508,1.49228c0,0.82416 -0.69432,1.49227 -1.5508,1.49227c-0.85648,0 -1.5508,-0.66811 -1.5508,-1.49227z" fill="#553300" stroke-width="0.5"/><path d="M59.20092,175.32858c0,-0.82416 0.69431,-1.49228 1.5508,-1.49228c0.85648,0 1.55081,0.66812 1.55081,1.49228c0,0.82416 -0.69432,1.49227 -1.55081,1.49227c-0.85648,0 -1.5508,-0.66811 -1.5508,-1.49227z" fill="#553300" stroke-width="0.5"/><path d="M34.91071,197.80305c0,-0.82416 0.69432,-1.49228 1.5508,-1.49228c0.85648,0 1.5508,0.66812 1.5508,1.49228c0,0.82416 -0.69432,1.49228 -1.5508,1.49228c-0.85648,0 -1.5508,-0.66812 -1.5508,-1.49228z" fill="#553300" stroke-width="0.5"/><path d="M87.37751,189.56844c1.5508,0 1.5508,1.49227 1.5508,1.49227l-0.26045,1.72675c-0.31141,0.44949 -0.62283,0.89898 -0.93424,1.34846c0,0 -0.86023,1.24165 -2.15058,0.41389c-1.29035,-0.82776 -0.43012,-2.06941 -0.43012,-2.06941c0.31141,-0.44949 0.62283,-0.89898 0.93424,-1.34847l-0.26045,-0.07122c0,0 0,-1.49227 1.5508,-1.49227z" fill="#553300" stroke-width="0.5"/><path d="M90.03078,180.72246c0,-0.82416 0.69432,-1.49228 1.55081,-1.49228c0.85649,0 1.5508,0.66812 1.5508,1.49228c0,0.82416 -0.69432,1.49227 -1.5508,1.49227c-0.85649,0 -1.55081,-0.66811 -1.55081,-1.49227z" fill="#553300" stroke-width="0.5"/><path d="M114.32098,187.91429c0,-0.82416 0.69431,-1.49228 1.5508,-1.49228c0.85649,0 1.5508,0.66812 1.5508,1.49228c0,0.82416 -0.69432,1.49227 -1.5508,1.49227c-0.85649,0 -1.5508,-0.66811 -1.5508,-1.49227z" fill="#553300" stroke-width="0.5"/><path d="M128.33456,203.64642c0,-0.82416 0.69431,-1.49228 1.5508,-1.49228c0.85648,0 1.5508,0.66812 1.5508,1.49228c0,0.82416 -0.69432,1.49228 -1.5508,1.49228c-0.85648,0 -1.5508,-0.66812 -1.5508,-1.49228z" fill="#553300" stroke-width="0.5"/><path d="M138.14406,182.07093c0,-0.82416 0.69432,-1.49228 1.5508,-1.49228c0.85648,0 1.5508,0.66812 1.5508,1.49228c0,0.82416 -0.69432,1.49227 -1.5508,1.49227c-0.85648,0 -1.5508,-0.66811 -1.5508,-1.49227z" fill="#553300" stroke-width="0.5"/><path d="M156.82883,174.4296c0,-0.82416 0.69432,-1.49228 1.5508,-1.49228c0.85648,0 1.5508,0.66812 1.5508,1.49228c0,0.82416 -0.69431,1.49227 -1.5508,1.49227c-0.85648,0 -1.5508,-0.66811 -1.5508,-1.49227z" fill="#553300" stroke-width="0.5"/><path d="M168.933,198.21931c0.96878,1.16527 -0.2422,2.09749 -0.2422,2.09749l-2.33559,1.79795c0,0 -1.21097,0.93222 -2.17975,-0.23305c-0.96878,-1.16527 0.24219,-2.09749 0.24219,-2.09749l2.3356,-1.79796c0,0 1.21097,-0.93222 2.17976,0.23305z" fill="#553300" stroke-width="0.5"/><path d="M122.72913,172.18215c0,-0.82416 0.69432,-1.49227 1.5508,-1.49227c0.85649,0 1.5508,0.66811 1.5508,1.49227c0,0.82416 -0.69432,1.49228 -1.5508,1.49228c-0.85649,0 -1.5508,-0.66812 -1.5508,-1.49228z" fill="#553300" stroke-width="0.5"/><path d="M54.52972,185.21735c0,-0.82416 0.69432,-1.49227 1.5508,-1.49227c0.85648,0 1.5508,0.66811 1.5508,1.49227c0,0.82416 -0.69432,1.49227 -1.5508,1.49227c-0.85648,0 -1.5508,-0.66811 -1.5508,-1.49227z" fill="#553300" stroke-width="0.5"/><path d="M23.85869,170.3842c0,-1.23624 1.04147,-2.23841 2.3262,-2.23841c1.28473,0 2.32621,1.00217 2.32621,2.23841c0,1.23624 -1.04148,2.23841 -2.32621,2.23841c-1.28473,0 -2.3262,-1.00217 -2.3262,-2.23841z" fill="#553300" stroke-width="0.5"/><path d="M44.87906,180.27296c0,-1.23624 1.04147,-2.23841 2.3262,-2.23841c1.28473,0 2.32621,1.00216 2.32621,2.23841c0,1.23624 -1.04147,2.23841 -2.32621,2.23841c-1.28473,0 -2.3262,-1.00217 -2.3262,-2.23841z" fill="#553300" stroke-width="0.5"/><path d="M82.24859,170.83369c0,-1.23624 1.04147,-2.23841 2.3262,-2.23841c1.28473,0 2.32621,1.00217 2.32621,2.23841c0,1.23624 -1.04148,2.23841 -2.32621,2.23841c-1.28473,0 -2.3262,-1.00217 -2.3262,-2.23841z" fill="#553300" stroke-width="0.5"/><path d="M87.85402,204.99488c0,-1.23624 1.04147,-2.23841 2.3262,-2.23841c1.28473,0 2.32621,1.00217 2.32621,2.23841c0,1.23624 -1.04148,2.23841 -2.32621,2.23841c-1.28473,0 -2.3262,-1.00217 -2.3262,-2.23841z" fill="#553300" stroke-width="0.5"/><path d="M129.89475,192.40918c0,-1.23624 1.04148,-2.23841 2.32621,-2.23841c1.28473,0 2.3262,1.00217 2.3262,2.23841c0,1.23624 -1.04147,2.23841 -2.3262,2.23841c-1.28473,0 -2.32621,-1.00217 -2.32621,-2.23841z" fill="#553300" stroke-width="0.5"/><path d="M146.71105,200.49998c0,-1.23624 1.04147,-2.23841 2.3262,-2.23841c1.28473,0 2.3262,1.00216 2.3262,2.23841c0,1.23624 -1.04147,2.23841 -2.3262,2.23841c-1.28473,0 -2.3262,-1.00217 -2.3262,-2.23841z" fill="#553300" stroke-width="0.5"/><path d="M156.05343,185.21735c0,-1.23624 1.04148,-2.23841 2.32621,-2.23841c1.28473,0 2.3262,1.00217 2.3262,2.23841c0,1.23624 -1.04147,2.23841 -2.3262,2.23841c-1.28473,0 -2.32621,-1.00217 -2.32621,-2.23841z" fill="#553300" stroke-width="0.5"/><path d="M98.13065,171.73267c0,-1.23624 1.04147,-2.23841 2.3262,-2.23841c1.28473,0 2.32621,1.00216 2.32621,2.23841c0,1.23624 -1.04148,2.23841 -2.32621,2.23841c-1.28473,0 -2.3262,-1.00217 -2.3262,-2.23841z" fill="#553300" stroke-width="0.5"/><path d="M0.02622,177.76911v-13.93418h195.78877v7.12528c-0.32545,0.7251 -0.5058,1.52462 -0.5058,2.36467c0,0.84005 0.18034,1.63957 0.5058,2.36467v2.07955z" fill="#ffffff" stroke-width="0"/><path d="M18.64517,176.96821c0,1.86185 -4.18273,3.37117 -9.34238,3.37117c-5.15965,0 -9.34238,-1.50933 -9.34238,-3.37117c0,-1.86185 4.18273,-3.37117 9.34239,-3.37117c5.15965,0 9.34239,1.50933 9.34239,3.37117z" fill="#ffffff" stroke-width="0"/><path d="M36.93524,176.87588c0,1.86185 -4.18272,3.37117 -9.34238,3.37117c-5.15966,0 -9.34238,-1.50932 -9.34238,-3.37117c0,-1.86185 4.18272,-3.37117 9.34239,-3.37117c5.15965,0 9.34238,1.50933 9.34238,3.37117z" fill="#ffffff" stroke-width="0"/><path d="M52.82713,177.03995c0,1.86185 -4.18274,3.37117 -9.34238,3.37117c-5.15966,0 -9.34239,-1.50933 -9.34239,-3.37117c0,-1.86185 4.18273,-3.37116 9.34239,-3.37116c5.15966,0 9.34239,1.50932 9.34239,3.37116z" fill="#ffffff" stroke-width="0"/><path d="M70.58426,177.97324c0,1.86185 -4.18273,3.37116 -9.34238,3.37116c-5.15966,0 -9.34238,-1.50932 -9.34238,-3.37116c0,-1.86185 4.18273,-3.37117 9.34238,-3.37117c5.15965,0 9.34239,1.50933 9.34239,3.37117z" fill="#ffffff" stroke-width="0"/><path d="M102.70213,177.80631c0,1.86185 -4.18272,3.37117 -9.34238,3.37117c-5.15966,0 -9.34239,-1.50933 -9.34239,-3.37117c0,-1.86185 4.18273,-3.37117 9.34239,-3.37117c5.15966,0 9.34238,1.50932 9.34238,3.37117z" fill="#ffffff" stroke-width="0"/><path d="M86.57352,177.37928c0,1.86185 -4.18273,3.37117 -9.34238,3.37117c-5.15966,0 -9.34238,-1.50933 -9.34238,-3.37117c0,-1.86185 4.18273,-3.37117 9.34238,-3.37117c5.15966,0 9.34238,1.50932 9.34238,3.37117z" fill="#ffffff" stroke-width="0"/><path d="M117.52816,177.97039c0,1.86185 -4.18272,3.37117 -9.34238,3.37117c-5.15966,0 -9.34239,-1.50932 -9.34239,-3.37117c0,-1.86185 4.18273,-3.37117 9.34239,-3.37117c5.15966,0 9.34238,1.50933 9.34238,3.37117z" fill="#ffffff" stroke-width="0"/><path d="M133.95298,177.62163c0,1.86185 -4.18273,3.37117 -9.34239,3.37117c-5.15966,0 -9.34238,-1.50933 -9.34238,-3.37117c0,-1.86185 4.18273,-3.37117 9.34238,-3.37117c5.15965,0 9.34239,1.50932 9.34239,3.37117z" fill="#ffffff" stroke-width="0"/><path d="M149.31193,178.04211c0,1.86185 -4.18274,3.37117 -9.34239,3.37117c-5.15965,0 -9.34238,-1.50932 -9.34238,-3.37117c0,-1.86185 4.18273,-3.37117 9.34238,-3.37117c5.15965,0 9.34239,1.50933 9.34239,3.37117z" fill="#ffffff" stroke-width="0"/><path d="M166.53614,177.43694c0,1.86185 -4.18274,3.37117 -9.34239,3.37117c-5.15965,0 -9.34238,-1.50933 -9.34238,-3.37117c0,-1.86185 4.18273,-3.37117 9.34238,-3.37117c5.15965,0 9.34239,1.50933 9.34239,3.37117z" fill="#ffffff" stroke-width="0"/><path d="M183.22741,177.34461c0,1.86185 -4.18273,3.37117 -9.34238,3.37117c-5.15965,0 -9.34239,-1.50932 -9.34239,-3.37117c0,-1.86185 4.18273,-3.37117 9.34239,-3.37117c5.15965,0 9.34238,1.50932 9.34238,3.37117z" fill="#ffffff" stroke-width="0"/></g><g><path d="M433.6328,180.93293v-73.60215h80.7322v11.30786c-0.04787,0.70965 -0.07325,1.45127 -0.07325,2.21436c0,0.76309 0.02538,1.5047 0.07325,2.21435v57.86559z" fill="#714400" stroke-width="0"/><path d="M438.25569,163.59555c0,-0.72877 0.14353,-1.31956 0.32058,-1.31956c0.17705,0 0.32058,0.59078 0.32058,1.31956c0,0.72877 -0.14353,1.31956 -0.32058,1.31956c-0.17705,0 -0.32058,-0.59078 -0.32058,-1.31956z" fill="#553300" stroke-width="0.5"/><path d="M441.92503,177.10939c0,-0.72877 0.14353,-1.31956 0.32058,-1.31956c0.17705,0 0.32058,0.59078 0.32058,1.31956c0,0.72877 -0.14353,1.31956 -0.32058,1.31956c-0.17705,0 -0.32058,-0.59078 -0.32058,-1.31956z" fill="#553300" stroke-width="0.5"/><path d="M448.10497,133.38816c0,-0.72877 0.14353,-1.31956 0.32058,-1.31956c0.17705,0 0.32058,0.59078 0.32058,1.31956c0,0.72877 -0.14353,1.31956 -0.32058,1.31956c-0.17705,0 -0.32058,-0.59078 -0.32058,-1.31956z" fill="#553300" stroke-width="0.5"/><path d="M463.55483,146.10704c0,-0.72877 0.14353,-1.31956 0.32058,-1.31956c0.17705,0 0.32057,0.59078 0.32057,1.31956c0,0.72877 -0.14352,1.31956 -0.32057,1.31956c-0.17705,0 -0.32058,-0.59078 -0.32058,-1.31956z" fill="#553300" stroke-width="0.5"/><path d="M497.93074,159.62091c0,-0.72877 0.14353,-1.31956 0.32058,-1.31956c0.17705,0 0.32058,0.59078 0.32058,1.31956c0,0.72877 -0.14353,1.31956 -0.32058,1.31956c-0.17705,0 -0.32058,-0.59078 -0.32058,-1.31956z" fill="#553300" stroke-width="0.5"/><path d="M491.55768,132.59323c0,-0.72877 0.14353,-1.31956 0.32058,-1.31956c0.17705,0 0.32058,0.59078 0.32058,1.31956c0,0.72877 -0.14353,1.31956 -0.32058,1.31956c-0.17705,0 -0.32058,-0.59078 -0.32058,-1.31956z" fill="#553300" stroke-width="0.5"/><path d="M479.00467,165.98035c0,-0.72877 0.14353,-1.31956 0.32058,-1.31956c0.17705,0 0.32058,0.59078 0.32058,1.31956c0,0.72877 -0.14353,1.31956 -0.32058,1.31956c-0.17705,0 -0.32058,-0.59078 -0.32058,-1.31956z" fill="#553300" stroke-width="0.5"/><path d="M452.93305,150.08171c0,-0.72877 0.14353,-1.31956 0.32058,-1.31956c0.17705,0 0.32058,0.59078 0.32058,1.31956c0,0.72877 -0.14353,1.31956 -0.32058,1.31956c-0.17705,0 -0.32058,-0.59078 -0.32058,-1.31956z" fill="#553300" stroke-width="0.5"/><path d="M477.84594,131.00334c0,-0.72877 0.14352,-1.31956 0.32057,-1.31956c0.17705,0 0.32058,0.59078 0.32058,1.31956c0,0.72877 -0.14353,1.31956 -0.32058,1.31956c-0.17705,0 -0.32057,-0.59078 -0.32057,-1.31956z" fill="#553300" stroke-width="0.5"/><path d="M505.0763,154.85129c0,-0.72877 0.14353,-1.31956 0.32058,-1.31956c0.17705,0 0.32058,0.59078 0.32058,1.31956c0,0.72877 -0.14353,1.31956 -0.32058,1.31956c-0.17705,0 -0.32058,-0.59078 -0.32058,-1.31956z" fill="#553300" stroke-width="0.5"/><path d="M437.16262,129.41349c0,-1.45754 0.28706,-2.63911 0.64116,-2.63911c0.3541,0 0.64116,1.18157 0.64116,2.63911c0,1.45754 -0.28706,2.63911 -0.64116,2.63911c-0.3541,0 -0.64116,-1.18157 -0.64116,-2.63911z" fill="#553300" stroke-width="0.5"/><path d="M443.14944,147.69692c0,-1.45754 0.28706,-2.63911 0.64116,-2.63911c0.3541,0 0.64116,1.18157 0.64116,2.63911c0,1.45754 -0.28706,2.63911 -0.64116,2.63911c-0.3541,0 -0.64116,-1.18157 -0.64116,-2.63911z" fill="#553300" stroke-width="0.5"/><path d="M457.63368,171.54487c0,-1.45754 0.28705,-2.63911 0.64115,-2.63911c0.3541,0 0.64116,1.18157 0.64116,2.63911c0,1.45754 -0.28706,2.63911 -0.64116,2.63911c-0.3541,0 -0.64115,-1.18157 -0.64115,-2.63911z" fill="#553300" stroke-width="0.5"/><path d="M458.01992,126.23376c0,-1.45754 0.28706,-2.63911 0.64116,-2.63911c0.3541,0 0.64116,1.18157 0.64116,2.63911c0,1.45754 -0.28706,2.63911 -0.64116,2.63911c-0.3541,0 -0.64116,-1.18157 -0.64116,-2.63911z" fill="#553300" stroke-width="0.5"/><path d="M447.97752,165.98035c0,-1.45754 0.28706,-2.63911 0.64116,-2.63911c0.3541,0 0.64115,1.18157 0.64115,2.63911c0,1.45754 -0.28705,2.63911 -0.64115,2.63911c-0.3541,0 -0.64116,-1.18157 -0.64116,-2.63911z" fill="#553300" stroke-width="0.5"/><path d="M469.6691,151.41725c0.64116,0 0.64116,2.63911 0.64116,2.63911l-0.10768,3.05378c-0.12875,0.79493 -0.2575,1.58987 -0.38624,2.38479c0,0 -0.35565,2.19588 -0.88913,0.73197c-0.53347,-1.46392 -0.17782,-3.6598 -0.17782,-3.6598c0.12875,-0.79493 0.2575,-1.58987 0.38625,-2.38479l-0.10768,-0.12595c0,0 0,-2.63911 0.64116,-2.63911z" fill="#553300" stroke-width="0.5"/><path d="M470.76605,135.77294c0,-1.45754 0.28706,-2.63911 0.64116,-2.63911c0.3541,0 0.64116,1.18157 0.64116,2.63911c0,1.45754 -0.28706,2.63911 -0.64116,2.63911c-0.3541,0 -0.64116,-1.18157 -0.64116,-2.63911z" fill="#553300" stroke-width="0.5"/><path d="M480.80845,148.49186c0,-1.45754 0.28706,-2.63911 0.64116,-2.63911c0.3541,0 0.64115,1.18157 0.64115,2.63911c0,1.45754 -0.28705,2.63911 -0.64115,2.63911c-0.3541,0 -0.64116,-1.18157 -0.64116,-2.63911z" fill="#553300" stroke-width="0.5"/><path d="M486.60215,176.31446c0,-1.45754 0.28706,-2.63911 0.64116,-2.63911c0.3541,0 0.64116,1.18157 0.64116,2.63911c0,1.45754 -0.28706,2.63911 -0.64116,2.63911c-0.3541,0 -0.64116,-1.18157 -0.64116,-2.63911z" fill="#553300" stroke-width="0.5"/><path d="M490.65773,138.15775c0,-1.45754 0.28706,-2.63911 0.64116,-2.63911c0.3541,0 0.64116,1.18157 0.64116,2.63911c0,1.45754 -0.28706,2.63911 -0.64116,2.63911c-0.3541,0 -0.64116,-1.18157 -0.64116,-2.63911z" fill="#553300" stroke-width="0.5"/><path d="M498.38266,124.6439c0,-1.45754 0.28705,-2.63911 0.64115,-2.63911c0.3541,0 0.64116,1.18157 0.64116,2.63911c0,1.45754 -0.28706,2.63911 -0.64116,2.63911c-0.3541,0 -0.64115,-1.18157 -0.64115,-2.63911z" fill="#553300" stroke-width="0.5"/><path d="M503.38694,166.7165c0.40053,2.0608 -0.10013,3.70945 -0.10013,3.70945l-0.96562,3.17973c0,0 -0.50065,1.64864 -0.90118,-0.41215c-0.40053,-2.0608 0.10013,-3.70945 0.10013,-3.70945l0.96562,-3.17973c0,0 0.50066,-1.64864 0.90119,0.41215z" fill="#553300" stroke-width="0.5"/><path d="M509.00443,134.18309c0,-1.45754 0.28705,-2.63911 0.64115,-2.63911c0.3541,0 0.64116,1.18157 0.64116,2.63911c0,1.45754 -0.28706,2.63911 -0.64116,2.63911c-0.3541,0 -0.64115,-1.18157 -0.64115,-2.63911z" fill="#553300" stroke-width="0.5"/><path d="M484.28467,120.66925c0,-1.45754 0.28706,-2.63911 0.64116,-2.63911c0.3541,0 0.64116,1.18157 0.64116,2.63911c0,1.45754 -0.28706,2.63911 -0.64116,2.63911c-0.3541,0 -0.64116,-1.18157 -0.64116,-2.63911z" fill="#553300" stroke-width="0.5"/><path d="M456.08869,143.72226c0,-1.45754 0.28706,-2.63911 0.64116,-2.63911c0.3541,0 0.64116,1.18157 0.64116,2.63911c0,1.45754 -0.28706,2.63911 -0.64116,2.63911c-0.3541,0 -0.64116,-1.18157 -0.64116,-2.63911z" fill="#553300" stroke-width="0.5"/><path d="M443.40823,117.48952c0,-2.18631 0.43058,-3.95867 0.96173,-3.95867c0.53115,0 0.96173,1.77236 0.96173,3.95867c0,2.18631 -0.43058,3.95867 -0.96173,3.95867c-0.53115,0 -0.96173,-1.77236 -0.96173,-3.95867z" fill="#553300" stroke-width="0.5"/><path d="M435.87643,177.90433c0,-2.18631 0.43058,-3.95867 0.96173,-3.95867c0.53115,0 0.96173,1.77236 0.96173,3.95867c0,2.18631 -0.43058,3.95867 -0.96173,3.95867c-0.53115,0 -0.96173,-1.77236 -0.96173,-3.95867z" fill="#553300" stroke-width="0.5"/><path d="M452.09878,134.978c0,-2.18631 0.43058,-3.95867 0.96173,-3.95867c0.53115,0 0.96173,1.77236 0.96173,3.95867c0,2.18631 -0.43058,3.95867 -0.96173,3.95867c-0.53115,0 -0.96173,-1.77236 -0.96173,-3.95867z" fill="#553300" stroke-width="0.5"/><path d="M467.54862,118.28446c0,-2.18631 0.43058,-3.95867 0.96173,-3.95867c0.53115,0 0.96173,1.77236 0.96173,3.95867c0,2.18631 -0.43058,3.95867 -0.96173,3.95867c-0.53115,0 -0.96173,-1.77236 -0.96173,-3.95867z" fill="#553300" stroke-width="0.5"/><path d="M469.8661,178.69924c0,-2.18631 0.43058,-3.95867 0.96173,-3.95867c0.53115,0 0.96173,1.77236 0.96173,3.95867c0,2.18631 -0.43058,3.95867 -0.96173,3.95867c-0.53115,0 -0.96173,-1.77236 -0.96173,-3.95867z" fill="#553300" stroke-width="0.5"/><path d="M487.24718,156.44114c0,-2.18631 0.43058,-3.95867 0.96173,-3.95867c0.53115,0 0.96173,1.77236 0.96173,3.95867c0,2.18631 -0.43058,3.95867 -0.96173,3.95867c-0.53115,0 -0.96173,-1.77236 -0.96173,-3.95867z" fill="#553300" stroke-width="0.5"/><path d="M494.19962,170.74994c0,-2.18631 0.43058,-3.95867 0.96173,-3.95867c0.53115,0 0.96173,1.77236 0.96173,3.95867c0,2.18631 -0.43058,3.95867 -0.96173,3.95867c-0.53115,0 -0.96173,-1.77236 -0.96173,-3.95867z" fill="#553300" stroke-width="0.5"/><path d="M498.06208,143.72226c0,-2.18631 0.43058,-3.95867 0.96173,-3.95867c0.53115,0 0.96173,1.77236 0.96173,3.95867c0,2.18631 -0.43058,3.95867 -0.96173,3.95867c-0.53115,0 -0.96173,-1.77236 -0.96173,-3.95867z" fill="#553300" stroke-width="0.5"/><path d="M474.11481,119.87433c0,-2.18631 0.43058,-3.95867 0.96173,-3.95867c0.53115,0 0.96173,1.77236 0.96173,3.95867c0,2.18631 -0.43058,3.95867 -0.96173,3.95867c-0.53115,0 -0.96173,-1.77236 -0.96173,-3.95867z" fill="#553300" stroke-width="0.5"/><path d="M433.55507,130.5499v-24.64288h80.94581v12.6012c-0.13455,1.28235 -0.20912,2.69634 -0.20912,4.18198c0,1.48564 0.07456,2.89961 0.20912,4.18198v3.67773z" fill="#ffffff" stroke-width="0"/><path d="M441.25279,129.1335c0,3.29272 -1.72928,5.96198 -3.86246,5.96198c-2.13318,0 -3.86246,-2.66927 -3.86246,-5.96198c0,-3.29272 1.72928,-5.96198 3.86246,-5.96198c2.13318,0 3.86247,2.66927 3.86247,5.96198z" fill="#ffffff" stroke-width="0"/><path d="M448.81453,128.97019c0,3.29272 -1.72928,5.96198 -3.86246,5.96198c-2.13318,0 -3.86246,-2.66927 -3.86246,-5.96198c0,-3.29272 1.72928,-5.96198 3.86246,-5.96198c2.13318,0 3.86246,2.66927 3.86246,5.96198z" fill="#ffffff" stroke-width="0"/><path d="M455.38478,129.26036c0,3.29272 -1.72929,5.96198 -3.86246,5.96198c-2.13318,0 -3.86246,-2.66927 -3.86246,-5.96198c0,-3.29272 1.72928,-5.96198 3.86246,-5.96198c2.13318,0 3.86246,2.66927 3.86246,5.96198z" fill="#ffffff" stroke-width="0"/><path d="M462.72619,130.9109c0,3.29272 -1.72928,5.96198 -3.86246,5.96198c-2.13318,0 -3.86246,-2.66927 -3.86246,-5.96198c0,-3.29272 1.72928,-5.96198 3.86246,-5.96198c2.13318,0 3.86246,2.66927 3.86246,5.96198z" fill="#ffffff" stroke-width="0"/><path d="M476.00482,130.6157c0,3.29272 -1.72928,5.96198 -3.86246,5.96198c-2.13318,0 -3.86246,-2.66927 -3.86246,-5.96198c0,-3.29272 1.72928,-5.96198 3.86246,-5.96198c2.13318,0 3.86246,2.66927 3.86246,5.96198z" fill="#ffffff" stroke-width="0"/><path d="M469.3367,129.86047c0,3.29272 -1.72928,5.96198 -3.86246,5.96198c-2.13318,0 -3.86246,-2.66927 -3.86246,-5.96198c0,-3.29272 1.72929,-5.96198 3.86246,-5.96198c2.13318,0 3.86246,2.66926 3.86246,5.96198z" fill="#ffffff" stroke-width="0"/><path d="M482.13441,130.90586c0,3.29272 -1.72928,5.96198 -3.86246,5.96198c-2.13318,0 -3.86246,-2.66927 -3.86246,-5.96198c0,-3.29272 1.72928,-5.96198 3.86246,-5.96198c2.13318,0 3.86246,2.66927 3.86246,5.96198z" fill="#ffffff" stroke-width="0"/><path d="M488.92499,130.28906c0,3.29272 -1.72928,5.96198 -3.86246,5.96198c-2.13318,0 -3.86246,-2.66927 -3.86246,-5.96198c0,-3.29272 1.72928,-5.96198 3.86246,-5.96198c2.13318,0 3.86246,2.66926 3.86246,5.96198z" fill="#ffffff" stroke-width="0"/><path d="M495.27491,131.03268c0,3.29272 -1.72928,5.96198 -3.86246,5.96198c-2.13318,0 -3.86246,-2.66926 -3.86246,-5.96198c0,-3.29272 1.72928,-5.96198 3.86246,-5.96198c2.13318,0 3.86246,2.66927 3.86246,5.96198z" fill="#ffffff" stroke-width="0"/><path d="M502.39599,129.96245c0,3.29272 -1.72928,5.96198 -3.86246,5.96198c-2.13318,0 -3.86246,-2.66927 -3.86246,-5.96198c0,-3.29272 1.72928,-5.96198 3.86246,-5.96198c2.13318,0 3.86246,2.66927 3.86246,5.96198z" fill="#ffffff" stroke-width="0"/><path d="M509.29674,129.79916c0,3.29272 -1.72928,5.96198 -3.86246,5.96198c-2.13318,0 -3.86246,-2.66926 -3.86246,-5.96198c0,-3.29272 1.72928,-5.96198 3.86246,-5.96198c2.13318,0 3.86246,2.66927 3.86246,5.96198z" fill="#ffffff" stroke-width="0"/><path d="M512.33503,135.14436c-2.13318,0 -3.86246,-2.66927 -3.86246,-5.96198c0,-3.29272 1.72928,-5.96198 3.86246,-5.96198c0.66724,0 1.29497,0.26116 1.84261,0.72087c-0.1148,2.47612 -0.05717,5.22967 0.10923,7.9892c-0.05714,0.79403 -0.0922,1.6271 -0.10226,2.48717c-0.54929,0.46335 -1.17951,0.72673 -1.84958,0.72673z" fill="#ffffff" stroke-width="0"/></g></g></g></svg>