<svg version="1.1" xmlns="http://www.w3.org/2000/svg" xmlns:xlink="http://www.w3.org/1999/xlink" width="583.30482" height="223.6466" viewBox="0,0,583.30482,223.6466"><g transform="translate(-1.22279,-137.22602)"><g data-paper-data="{&quot;isPaintingLayer&quot;:true}" fill-rule="nonzero" stroke="none" stroke-linecap="butt" stroke-linejoin="miter" stroke-miterlimit="10" stroke-dasharray="" stroke-dashoffset="0" style="mix-blend-mode: normal"><g><path d="M1.47662,360.8726v-75.82079h195.27212v11.64873c-0.11578,0.73105 -0.17716,1.49501 -0.17716,2.2811c0,0.78609 0.06138,1.55005 0.17716,2.2811v59.60988z" fill="#714400" stroke-width="0"/><path d="M12.65829,336.0797c0,-0.66094 0.34715,-1.19674 0.7754,-1.19674c0.42825,0 0.7754,0.5358 0.7754,1.19674c0,0.66094 -0.34716,1.19674 -0.7754,1.19674c-0.42825,0 -0.7754,-0.5358 -0.7754,-1.19674z" fill="#553300" stroke-width="0.5"/><path d="M21.53356,348.3357c0,-0.66094 0.34715,-1.19674 0.7754,-1.19674c0.42825,0 0.7754,0.5358 0.7754,1.19674c0,0.66094 -0.34716,1.19674 -0.7754,1.19674c-0.42825,0 -0.7754,-0.5358 -0.7754,-1.19674z" fill="#553300" stroke-width="0.5"/><path d="M36.48137,308.68389c0,-0.66094 0.34716,-1.19673 0.7754,-1.19673c0.42824,0 0.7754,0.53579 0.7754,1.19673c0,0.66094 -0.34716,1.19674 -0.7754,1.19674c-0.42824,0 -0.7754,-0.5358 -0.7754,-1.19674z" fill="#553300" stroke-width="0.5"/><path d="M73.85091,320.21896c0,-0.66094 0.34716,-1.19674 0.7754,-1.19674c0.42825,0 0.7754,0.5358 0.7754,1.19674c0,0.66094 -0.34716,1.19674 -0.7754,1.19674c-0.42825,0 -0.7754,-0.5358 -0.7754,-1.19674z" fill="#553300" stroke-width="0.5"/><path d="M156.99814,332.47498c0,-0.66094 0.34716,-1.19674 0.7754,-1.19674c0.42825,0 0.7754,0.5358 0.7754,1.19674c0,0.66094 -0.34716,1.19674 -0.7754,1.19674c-0.42825,0 -0.7754,-0.5358 -0.7754,-1.19674z" fill="#553300" stroke-width="0.5"/><path d="M141.58321,307.96294c0,-0.66094 0.34715,-1.19673 0.7754,-1.19673c0.42825,0 0.7754,0.53579 0.7754,1.19673c0,0.66094 -0.34715,1.19674 -0.7754,1.19674c-0.42825,0 -0.7754,-0.5358 -0.7754,-1.19674z" fill="#553300" stroke-width="0.5"/><path d="M111.22045,338.24251c0,-0.66094 0.34715,-1.19674 0.7754,-1.19674c0.42825,0 0.7754,0.5358 0.7754,1.19674c0,0.66094 -0.34716,1.19674 -0.7754,1.19674c-0.42825,0 -0.7754,-0.5358 -0.7754,-1.19674z" fill="#553300" stroke-width="0.5"/><path d="M48.15935,323.82368c0,-0.66094 0.34716,-1.19673 0.7754,-1.19673c0.42824,0 0.7754,0.53579 0.7754,1.19673c0,0.66094 -0.34716,1.19674 -0.7754,1.19674c-0.42824,0 -0.7754,-0.5358 -0.7754,-1.19674z" fill="#553300" stroke-width="0.5"/><path d="M108.41774,306.52106c0,-0.66094 0.34716,-1.19674 0.7754,-1.19674c0.42825,0 0.7754,0.5358 0.7754,1.19674c0,0.66094 -0.34715,1.19674 -0.7754,1.19674c-0.42825,0 -0.7754,-0.5358 -0.7754,-1.19674z" fill="#553300" stroke-width="0.5"/><path d="M24.49511,321.66085c0,-1.32188 0.69431,-2.39349 1.5508,-2.39349c0.85648,0 1.55081,1.07161 1.55081,2.39349c0,1.32188 -0.69432,2.39347 -1.55081,2.39347c-0.85648,0 -1.5508,-1.07159 -1.5508,-2.39347z" fill="#553300" stroke-width="0.5"/><path d="M59.52906,343.28912c0,-1.32188 0.69432,-2.39349 1.5508,-2.39349c0.85648,0 1.5508,1.07161 1.5508,2.39349c0,1.32188 -0.69432,2.39347 -1.5508,2.39347c-0.85648,0 -1.5508,-1.07159 -1.5508,-2.39347z" fill="#553300" stroke-width="0.5"/><path d="M60.4633,302.1954c0,-1.32188 0.69431,-2.39349 1.5508,-2.39349c0.85648,0 1.55081,1.07161 1.55081,2.39349c0,1.32188 -0.69432,2.39347 -1.55081,2.39347c-0.85648,0 -1.5508,-1.07159 -1.5508,-2.39347z" fill="#553300" stroke-width="0.5"/><path d="M36.17309,338.24251c0,-1.32188 0.69432,-2.39349 1.5508,-2.39349c0.85648,0 1.5508,1.07161 1.5508,2.39349c0,1.32188 -0.69432,2.39349 -1.5508,2.39349c-0.85648,0 -1.5508,-1.07161 -1.5508,-2.39349z" fill="#553300" stroke-width="0.5"/><path d="M88.63989,325.03491c1.5508,0 1.5508,2.39347 1.5508,2.39347l-0.26045,2.76956c-0.31141,0.72094 -0.62283,1.44189 -0.93424,2.16281c0,0 -0.86023,1.9915 -2.15058,0.66384c-1.29035,-1.32766 -0.43012,-3.31916 -0.43012,-3.31916c0.31141,-0.72094 0.62283,-1.44189 0.93424,-2.16283l-0.26045,-0.11423c0,0 0,-2.39347 1.5508,-2.39347z" fill="#553300" stroke-width="0.5"/><path d="M91.29316,310.84672c0,-1.32188 0.69432,-2.39349 1.55081,-2.39349c0.85649,0 1.5508,1.07161 1.5508,2.39349c0,1.32188 -0.69432,2.39347 -1.5508,2.39347c-0.85649,0 -1.55081,-1.07159 -1.55081,-2.39347z" fill="#553300" stroke-width="0.5"/><path d="M115.58336,322.38179c0,-1.32188 0.69431,-2.39349 1.5508,-2.39349c0.85649,0 1.5508,1.07161 1.5508,2.39349c0,1.32188 -0.69432,2.39347 -1.5508,2.39347c-0.85649,0 -1.5508,-1.07159 -1.5508,-2.39347z" fill="#553300" stroke-width="0.5"/><path d="M129.59694,347.61478c0,-1.32188 0.69431,-2.39349 1.5508,-2.39349c0.85648,0 1.5508,1.07161 1.5508,2.39349c0,1.32188 -0.69432,2.39349 -1.5508,2.39349c-0.85648,0 -1.5508,-1.07161 -1.5508,-2.39349z" fill="#553300" stroke-width="0.5"/><path d="M139.40644,313.00955c0,-1.32188 0.69432,-2.39349 1.5508,-2.39349c0.85648,0 1.5508,1.07161 1.5508,2.39349c0,1.32188 -0.69432,2.39347 -1.5508,2.39347c-0.85648,0 -1.5508,-1.07159 -1.5508,-2.39347z" fill="#553300" stroke-width="0.5"/><path d="M158.09121,300.75352c0,-1.32188 0.69432,-2.39349 1.5508,-2.39349c0.85648,0 1.5508,1.07161 1.5508,2.39349c0,1.32188 -0.69431,2.39347 -1.5508,2.39347c-0.85648,0 -1.5508,-1.07159 -1.5508,-2.39347z" fill="#553300" stroke-width="0.5"/><path d="M170.19538,338.91016c0.96878,1.86899 -0.2422,3.36419 -0.2422,3.36419l-2.33559,2.88376c0,0 -1.21097,1.4952 -2.17975,-0.37379c-0.96878,-1.86899 0.24219,-3.36419 0.24219,-3.36419l2.3356,-2.88377c0,0 1.21097,-1.4952 2.17976,0.37379z" fill="#553300" stroke-width="0.5"/><path d="M123.99151,297.14879c0,-1.32188 0.69432,-2.39347 1.5508,-2.39347c0.85649,0 1.5508,1.07159 1.5508,2.39347c0,1.32188 -0.69432,2.39349 -1.5508,2.39349c-0.85649,0 -1.5508,-1.07161 -1.5508,-2.39349z" fill="#553300" stroke-width="0.5"/><path d="M55.7921,318.05613c0,-1.32188 0.69432,-2.39347 1.5508,-2.39347c0.85648,0 1.5508,1.07159 1.5508,2.39347c0,1.32188 -0.69432,2.39347 -1.5508,2.39347c-0.85648,0 -1.5508,-1.07159 -1.5508,-2.39347z" fill="#553300" stroke-width="0.5"/><path d="M25.12107,294.26503c0,-1.98282 1.04147,-3.59022 2.3262,-3.59022c1.28473,0 2.32621,1.60739 2.32621,3.59022c0,1.98282 -1.04148,3.59022 -2.32621,3.59022c-1.28473,0 -2.3262,-1.60739 -2.3262,-3.59022z" fill="#553300" stroke-width="0.5"/><path d="M46.14144,310.12576c0,-1.98282 1.04147,-3.59022 2.3262,-3.59022c1.28473,0 2.32621,1.60738 2.32621,3.59022c0,1.98282 -1.04147,3.59022 -2.32621,3.59022c-1.28473,0 -2.3262,-1.60739 -2.3262,-3.59022z" fill="#553300" stroke-width="0.5"/><path d="M83.51097,294.98598c0,-1.98282 1.04147,-3.59022 2.3262,-3.59022c1.28473,0 2.32621,1.60739 2.32621,3.59022c0,1.98282 -1.04148,3.59022 -2.32621,3.59022c-1.28473,0 -2.3262,-1.60739 -2.3262,-3.59022z" fill="#553300" stroke-width="0.5"/><path d="M89.1164,349.77759c0,-1.98282 1.04147,-3.59022 2.3262,-3.59022c1.28473,0 2.32621,1.60739 2.32621,3.59022c0,1.98282 -1.04148,3.59022 -2.32621,3.59022c-1.28473,0 -2.3262,-1.60739 -2.3262,-3.59022z" fill="#553300" stroke-width="0.5"/><path d="M131.15713,329.59121c0,-1.98282 1.04148,-3.59022 2.32621,-3.59022c1.28473,0 2.3262,1.60739 2.3262,3.59022c0,1.98282 -1.04147,3.59022 -2.3262,3.59022c-1.28473,0 -2.32621,-1.60739 -2.32621,-3.59022z" fill="#553300" stroke-width="0.5"/><path d="M147.97343,342.56817c0,-1.98282 1.04147,-3.59022 2.3262,-3.59022c1.28473,0 2.3262,1.60738 2.3262,3.59022c0,1.98282 -1.04147,3.59022 -2.3262,3.59022c-1.28473,0 -2.3262,-1.60739 -2.3262,-3.59022z" fill="#553300" stroke-width="0.5"/><path d="M157.31581,318.05613c0,-1.98282 1.04148,-3.59022 2.32621,-3.59022c1.28473,0 2.3262,1.60739 2.3262,3.59022c0,1.98282 -1.04147,3.59022 -2.3262,3.59022c-1.28473,0 -2.32621,-1.60739 -2.32621,-3.59022z" fill="#553300" stroke-width="0.5"/><path d="M99.39303,296.42786c0,-1.98282 1.04147,-3.59022 2.3262,-3.59022c1.28473,0 2.32621,1.60738 2.32621,3.59022c0,1.98282 -1.04148,3.59022 -2.32621,3.59022c-1.28473,0 -2.3262,-1.60739 -2.3262,-3.59022z" fill="#553300" stroke-width="0.5"/><path d="M1.2886,306.1098v-22.34923h195.78877v11.42834c-0.32545,1.163 -0.5058,2.44536 -0.5058,3.79273c0,1.34737 0.18034,2.62973 0.5058,3.79273v3.33542z" fill="#ffffff" stroke-width="0"/><path d="M19.90755,304.82524c0,2.98625 -4.18273,5.40707 -9.34238,5.40707c-5.15965,0 -9.34238,-2.42084 -9.34238,-5.40707c0,-2.98625 4.18273,-5.40707 9.34239,-5.40707c5.15965,0 9.34239,2.42084 9.34239,5.40707z" fill="#ffffff" stroke-width="0"/><path d="M38.19762,304.67713c0,2.98625 -4.18272,5.40707 -9.34238,5.40707c-5.15966,0 -9.34238,-2.42082 -9.34238,-5.40707c0,-2.98625 4.18272,-5.40707 9.34239,-5.40707c5.15965,0 9.34238,2.42084 9.34238,5.40707z" fill="#ffffff" stroke-width="0"/><path d="M54.08951,304.94029c0,2.98625 -4.18274,5.40707 -9.34238,5.40707c-5.15966,0 -9.34239,-2.42084 -9.34239,-5.40707c0,-2.98625 4.18273,-5.40705 9.34239,-5.40705c5.15966,0 9.34239,2.42082 9.34239,5.40705z" fill="#ffffff" stroke-width="0"/><path d="M71.84664,306.4372c0,2.98625 -4.18273,5.40705 -9.34238,5.40705c-5.15966,0 -9.34238,-2.42082 -9.34238,-5.40705c0,-2.98625 4.18273,-5.40707 9.34238,-5.40707c5.15965,0 9.34239,2.42084 9.34239,5.40707z" fill="#ffffff" stroke-width="0"/><path d="M103.96451,306.16948c0,2.98625 -4.18272,5.40707 -9.34238,5.40707c-5.15966,0 -9.34239,-2.42084 -9.34239,-5.40707c0,-2.98625 4.18273,-5.40707 9.34239,-5.40707c5.15966,0 9.34238,2.42082 9.34238,5.40707z" fill="#ffffff" stroke-width="0"/><path d="M87.8359,305.48456c0,2.98625 -4.18273,5.40707 -9.34238,5.40707c-5.15966,0 -9.34238,-2.42084 -9.34238,-5.40707c0,-2.98625 4.18273,-5.40707 9.34238,-5.40707c5.15966,0 9.34238,2.42082 9.34238,5.40707z" fill="#ffffff" stroke-width="0"/><path d="M118.79054,306.43263c0,2.98625 -4.18272,5.40707 -9.34238,5.40707c-5.15966,0 -9.34239,-2.42082 -9.34239,-5.40707c0,-2.98625 4.18273,-5.40707 9.34239,-5.40707c5.15966,0 9.34238,2.42084 9.34238,5.40707z" fill="#ffffff" stroke-width="0"/><path d="M135.21536,305.87325c0,2.98625 -4.18273,5.40707 -9.34239,5.40707c-5.15966,0 -9.34238,-2.42084 -9.34238,-5.40707c0,-2.98625 4.18273,-5.40707 9.34238,-5.40707c5.15965,0 9.34239,2.42082 9.34239,5.40707z" fill="#ffffff" stroke-width="0"/><path d="M150.57431,306.54766c0,2.98625 -4.18274,5.40707 -9.34239,5.40707c-5.15965,0 -9.34238,-2.42082 -9.34238,-5.40707c0,-2.98625 4.18273,-5.40707 9.34238,-5.40707c5.15965,0 9.34239,2.42084 9.34239,5.40707z" fill="#ffffff" stroke-width="0"/><path d="M167.79852,305.57704c0,2.98625 -4.18274,5.40707 -9.34239,5.40707c-5.15965,0 -9.34238,-2.42084 -9.34238,-5.40707c0,-2.98625 4.18273,-5.40707 9.34238,-5.40707c5.15965,0 9.34239,2.42084 9.34239,5.40707z" fill="#ffffff" stroke-width="0"/><path d="M184.48979,305.42893c0,2.98625 -4.18273,5.40707 -9.34238,5.40707c-5.15965,0 -9.34239,-2.42082 -9.34239,-5.40707c0,-2.98625 4.18273,-5.40707 9.34239,-5.40707c5.15965,0 9.34238,2.42082 9.34238,5.40707z" fill="#ffffff" stroke-width="0"/></g><g><path d="M388.92686,185.30343v-47.27235h195.27212v7.26269c-0.11578,0.45579 -0.17716,0.9321 -0.17716,1.42221c0,0.49011 0.06138,0.96642 0.17716,1.42221v37.16526z" fill="#714400" stroke-width="0"/><path d="M400.10853,169.84568c0,-0.41208 0.34715,-0.74614 0.7754,-0.74614c0.42825,0 0.7754,0.33406 0.7754,0.74614c0,0.41208 -0.34716,0.74614 -0.7754,0.74614c-0.42825,0 -0.7754,-0.33406 -0.7754,-0.74614z" fill="#553300" stroke-width="0.5"/><path d="M408.9838,177.48699c0,-0.41208 0.34715,-0.74614 0.7754,-0.74614c0.42825,0 0.7754,0.33406 0.7754,0.74614c0,0.41208 -0.34716,0.74614 -0.7754,0.74614c-0.42825,0 -0.7754,-0.33406 -0.7754,-0.74614z" fill="#553300" stroke-width="0.5"/><path d="M423.93161,152.76508c0,-0.41208 0.34716,-0.74613 0.7754,-0.74613c0.42824,0 0.7754,0.33405 0.7754,0.74613c0,0.41208 -0.34716,0.74614 -0.7754,0.74614c-0.42824,0 -0.7754,-0.33406 -0.7754,-0.74614z" fill="#553300" stroke-width="0.5"/><path d="M461.30115,159.95691c0,-0.41208 0.34716,-0.74614 0.7754,-0.74614c0.42825,0 0.7754,0.33406 0.7754,0.74614c0,0.41208 -0.34716,0.74614 -0.7754,0.74614c-0.42825,0 -0.7754,-0.33406 -0.7754,-0.74614z" fill="#553300" stroke-width="0.5"/><path d="M544.44838,167.59823c0,-0.41208 0.34716,-0.74614 0.7754,-0.74614c0.42825,0 0.7754,0.33406 0.7754,0.74614c0,0.41208 -0.34716,0.74614 -0.7754,0.74614c-0.42825,0 -0.7754,-0.33406 -0.7754,-0.74614z" fill="#553300" stroke-width="0.5"/><path d="M529.03345,152.31559c0,-0.41208 0.34715,-0.74613 0.7754,-0.74613c0.42825,0 0.7754,0.33405 0.7754,0.74613c0,0.41208 -0.34715,0.74614 -0.7754,0.74614c-0.42825,0 -0.7754,-0.33406 -0.7754,-0.74614z" fill="#553300" stroke-width="0.5"/><path d="M498.67069,171.19414c0,-0.41208 0.34715,-0.74614 0.7754,-0.74614c0.42825,0 0.7754,0.33406 0.7754,0.74614c0,0.41208 -0.34716,0.74614 -0.7754,0.74614c-0.42825,0 -0.7754,-0.33406 -0.7754,-0.74614z" fill="#553300" stroke-width="0.5"/><path d="M435.60959,162.20436c0,-0.41208 0.34716,-0.74613 0.7754,-0.74613c0.42824,0 0.7754,0.33405 0.7754,0.74613c0,0.41208 -0.34716,0.74614 -0.7754,0.74614c-0.42824,0 -0.7754,-0.33406 -0.7754,-0.74614z" fill="#553300" stroke-width="0.5"/><path d="M495.86798,151.41661c0,-0.41208 0.34716,-0.74614 0.7754,-0.74614c0.42825,0 0.7754,0.33406 0.7754,0.74614c0,0.41208 -0.34715,0.74614 -0.7754,0.74614c-0.42825,0 -0.7754,-0.33406 -0.7754,-0.74614z" fill="#553300" stroke-width="0.5"/><path d="M411.94535,160.85589c0,-0.82416 0.69431,-1.49228 1.5508,-1.49228c0.85648,0 1.55081,0.66812 1.55081,1.49228c0,0.82416 -0.69432,1.49227 -1.55081,1.49227c-0.85648,0 -1.5508,-0.66811 -1.5508,-1.49227z" fill="#553300" stroke-width="0.5"/><path d="M446.9793,174.34057c0,-0.82416 0.69432,-1.49228 1.5508,-1.49228c0.85648,0 1.5508,0.66812 1.5508,1.49228c0,0.82416 -0.69432,1.49227 -1.5508,1.49227c-0.85648,0 -1.5508,-0.66811 -1.5508,-1.49227z" fill="#553300" stroke-width="0.5"/><path d="M447.91354,148.71967c0,-0.82416 0.69431,-1.49228 1.5508,-1.49228c0.85648,0 1.55081,0.66812 1.55081,1.49228c0,0.82416 -0.69432,1.49227 -1.55081,1.49227c-0.85648,0 -1.5508,-0.66811 -1.5508,-1.49227z" fill="#553300" stroke-width="0.5"/><path d="M423.62333,171.19414c0,-0.82416 0.69432,-1.49228 1.5508,-1.49228c0.85648,0 1.5508,0.66812 1.5508,1.49228c0,0.82416 -0.69432,1.49228 -1.5508,1.49228c-0.85648,0 -1.5508,-0.66812 -1.5508,-1.49228z" fill="#553300" stroke-width="0.5"/><path d="M476.09013,162.95953c1.5508,0 1.5508,1.49227 1.5508,1.49227l-0.26045,1.72675c-0.31141,0.44949 -0.62283,0.89898 -0.93424,1.34846c0,0 -0.86023,1.24165 -2.15058,0.41389c-1.29035,-0.82776 -0.43012,-2.06941 -0.43012,-2.06941c0.31141,-0.44949 0.62283,-0.89898 0.93424,-1.34847l-0.26045,-0.07122c0,0 0,-1.49227 1.5508,-1.49227z" fill="#553300" stroke-width="0.5"/><path d="M478.7434,154.11355c0,-0.82416 0.69432,-1.49228 1.55081,-1.49228c0.85649,0 1.5508,0.66812 1.5508,1.49228c0,0.82416 -0.69432,1.49227 -1.5508,1.49227c-0.85649,0 -1.55081,-0.66811 -1.55081,-1.49227z" fill="#553300" stroke-width="0.5"/><path d="M503.0336,161.30538c0,-0.82416 0.69431,-1.49228 1.5508,-1.49228c0.85649,0 1.5508,0.66812 1.5508,1.49228c0,0.82416 -0.69432,1.49227 -1.5508,1.49227c-0.85649,0 -1.5508,-0.66811 -1.5508,-1.49227z" fill="#553300" stroke-width="0.5"/><path d="M517.04718,177.03751c0,-0.82416 0.69431,-1.49228 1.5508,-1.49228c0.85648,0 1.5508,0.66812 1.5508,1.49228c0,0.82416 -0.69432,1.49228 -1.5508,1.49228c-0.85648,0 -1.5508,-0.66812 -1.5508,-1.49228z" fill="#553300" stroke-width="0.5"/><path d="M526.85668,155.46202c0,-0.82416 0.69432,-1.49228 1.5508,-1.49228c0.85648,0 1.5508,0.66812 1.5508,1.49228c0,0.82416 -0.69432,1.49227 -1.5508,1.49227c-0.85648,0 -1.5508,-0.66811 -1.5508,-1.49227z" fill="#553300" stroke-width="0.5"/><path d="M545.54145,147.8207c0,-0.82416 0.69432,-1.49228 1.5508,-1.49228c0.85648,0 1.5508,0.66812 1.5508,1.49228c0,0.82416 -0.69431,1.49227 -1.5508,1.49227c-0.85648,0 -1.5508,-0.66811 -1.5508,-1.49227z" fill="#553300" stroke-width="0.5"/><path d="M557.64562,171.6104c0.96878,1.16527 -0.2422,2.09749 -0.2422,2.09749l-2.33559,1.79795c0,0 -1.21097,0.93222 -2.17975,-0.23305c-0.96878,-1.16527 0.24219,-2.09749 0.24219,-2.09749l2.3356,-1.79796c0,0 1.21097,-0.93222 2.17976,0.23305z" fill="#553300" stroke-width="0.5"/><path d="M511.44175,145.57324c0,-0.82416 0.69432,-1.49227 1.5508,-1.49227c0.85649,0 1.5508,0.66811 1.5508,1.49227c0,0.82416 -0.69432,1.49228 -1.5508,1.49228c-0.85649,0 -1.5508,-0.66812 -1.5508,-1.49228z" fill="#553300" stroke-width="0.5"/><path d="M443.24234,158.60844c0,-0.82416 0.69432,-1.49227 1.5508,-1.49227c0.85648,0 1.5508,0.66811 1.5508,1.49227c0,0.82416 -0.69432,1.49227 -1.5508,1.49227c-0.85648,0 -1.5508,-0.66811 -1.5508,-1.49227z" fill="#553300" stroke-width="0.5"/><path d="M412.57131,143.77529c0,-1.23624 1.04147,-2.23841 2.3262,-2.23841c1.28473,0 2.32621,1.00217 2.32621,2.23841c0,1.23624 -1.04148,2.23841 -2.32621,2.23841c-1.28473,0 -2.3262,-1.00217 -2.3262,-2.23841z" fill="#553300" stroke-width="0.5"/><path d="M433.59168,153.66405c0,-1.23624 1.04147,-2.23841 2.3262,-2.23841c1.28473,0 2.32621,1.00216 2.32621,2.23841c0,1.23624 -1.04147,2.23841 -2.32621,2.23841c-1.28473,0 -2.3262,-1.00217 -2.3262,-2.23841z" fill="#553300" stroke-width="0.5"/><path d="M470.96121,144.22478c0,-1.23624 1.04147,-2.23841 2.3262,-2.23841c1.28473,0 2.32621,1.00217 2.32621,2.23841c0,1.23624 -1.04148,2.23841 -2.32621,2.23841c-1.28473,0 -2.3262,-1.00217 -2.3262,-2.23841z" fill="#553300" stroke-width="0.5"/><path d="M476.56664,178.38597c0,-1.23624 1.04147,-2.23841 2.3262,-2.23841c1.28473,0 2.32621,1.00217 2.32621,2.23841c0,1.23624 -1.04148,2.23841 -2.32621,2.23841c-1.28473,0 -2.3262,-1.00217 -2.3262,-2.23841z" fill="#553300" stroke-width="0.5"/><path d="M518.60737,165.80027c0,-1.23624 1.04148,-2.23841 2.32621,-2.23841c1.28473,0 2.3262,1.00217 2.3262,2.23841c0,1.23624 -1.04147,2.23841 -2.3262,2.23841c-1.28473,0 -2.32621,-1.00217 -2.32621,-2.23841z" fill="#553300" stroke-width="0.5"/><path d="M535.42367,173.89108c0,-1.23624 1.04147,-2.23841 2.3262,-2.23841c1.28473,0 2.3262,1.00216 2.3262,2.23841c0,1.23624 -1.04147,2.23841 -2.3262,2.23841c-1.28473,0 -2.3262,-1.00217 -2.3262,-2.23841z" fill="#553300" stroke-width="0.5"/><path d="M544.76605,158.60844c0,-1.23624 1.04148,-2.23841 2.32621,-2.23841c1.28473,0 2.3262,1.00217 2.3262,2.23841c0,1.23624 -1.04147,2.23841 -2.3262,2.23841c-1.28473,0 -2.32621,-1.00217 -2.32621,-2.23841z" fill="#553300" stroke-width="0.5"/><path d="M486.84327,145.12376c0,-1.23624 1.04147,-2.23841 2.3262,-2.23841c1.28473,0 2.32621,1.00216 2.32621,2.23841c0,1.23624 -1.04148,2.23841 -2.32621,2.23841c-1.28473,0 -2.3262,-1.00217 -2.3262,-2.23841z" fill="#553300" stroke-width="0.5"/><path d="M388.73884,151.1602v-13.93418h195.78877v7.12528c-0.32545,0.7251 -0.5058,1.52462 -0.5058,2.36467c0,0.84005 0.18034,1.63957 0.5058,2.36467v2.07955z" fill="#ffffff" stroke-width="0"/><path d="M407.35779,150.35931c0,1.86185 -4.18273,3.37117 -9.34238,3.37117c-5.15965,0 -9.34238,-1.50933 -9.34238,-3.37117c0,-1.86185 4.18273,-3.37117 9.34239,-3.37117c5.15965,0 9.34239,1.50933 9.34239,3.37117z" fill="#ffffff" stroke-width="0"/><path d="M425.64786,150.26697c0,1.86185 -4.18272,3.37117 -9.34238,3.37117c-5.15966,0 -9.34238,-1.50932 -9.34238,-3.37117c0,-1.86185 4.18272,-3.37117 9.34239,-3.37117c5.15965,0 9.34238,1.50933 9.34238,3.37117z" fill="#ffffff" stroke-width="0"/><path d="M441.53975,150.43104c0,1.86185 -4.18274,3.37117 -9.34238,3.37117c-5.15966,0 -9.34239,-1.50933 -9.34239,-3.37117c0,-1.86185 4.18273,-3.37116 9.34239,-3.37116c5.15966,0 9.34239,1.50932 9.34239,3.37116z" fill="#ffffff" stroke-width="0"/><path d="M459.29688,151.36433c0,1.86185 -4.18273,3.37116 -9.34238,3.37116c-5.15966,0 -9.34238,-1.50932 -9.34238,-3.37116c0,-1.86185 4.18273,-3.37117 9.34238,-3.37117c5.15965,0 9.34239,1.50933 9.34239,3.37117z" fill="#ffffff" stroke-width="0"/><path d="M491.41475,151.19741c0,1.86185 -4.18272,3.37117 -9.34238,3.37117c-5.15966,0 -9.34239,-1.50933 -9.34239,-3.37117c0,-1.86185 4.18273,-3.37117 9.34239,-3.37117c5.15966,0 9.34238,1.50932 9.34238,3.37117z" fill="#ffffff" stroke-width="0"/><path d="M475.28614,150.77038c0,1.86185 -4.18273,3.37117 -9.34238,3.37117c-5.15966,0 -9.34238,-1.50933 -9.34238,-3.37117c0,-1.86185 4.18273,-3.37117 9.34238,-3.37117c5.15966,0 9.34238,1.50932 9.34238,3.37117z" fill="#ffffff" stroke-width="0"/><path d="M506.24078,151.36148c0,1.86185 -4.18272,3.37117 -9.34238,3.37117c-5.15966,0 -9.34239,-1.50932 -9.34239,-3.37117c0,-1.86185 4.18273,-3.37117 9.34239,-3.37117c5.15966,0 9.34238,1.50933 9.34238,3.37117z" fill="#ffffff" stroke-width="0"/><path d="M522.6656,151.01272c0,1.86185 -4.18273,3.37117 -9.34239,3.37117c-5.15966,0 -9.34238,-1.50933 -9.34238,-3.37117c0,-1.86185 4.18273,-3.37117 9.34238,-3.37117c5.15965,0 9.34239,1.50932 9.34239,3.37117z" fill="#ffffff" stroke-width="0"/><path d="M538.02455,151.4332c0,1.86185 -4.18274,3.37117 -9.34239,3.37117c-5.15965,0 -9.34238,-1.50932 -9.34238,-3.37117c0,-1.86185 4.18273,-3.37117 9.34238,-3.37117c5.15965,0 9.34239,1.50933 9.34239,3.37117z" fill="#ffffff" stroke-width="0"/><path d="M555.24876,150.82804c0,1.86185 -4.18274,3.37117 -9.34239,3.37117c-5.15965,0 -9.34238,-1.50933 -9.34238,-3.37117c0,-1.86185 4.18273,-3.37117 9.34238,-3.37117c5.15965,0 9.34239,1.50933 9.34239,3.37117z" fill="#ffffff" stroke-width="0"/><path d="M571.94003,150.7357c0,1.86185 -4.18273,3.37117 -9.34238,3.37117c-5.15965,0 -9.34239,-1.50932 -9.34239,-3.37117c0,-1.86185 4.18273,-3.37117 9.34239,-3.37117c5.15965,0 9.34238,1.50932 9.34238,3.37117z" fill="#ffffff" stroke-width="0"/></g></g></g></svg>