<svg version="1.1" xmlns="http://www.w3.org/2000/svg" xmlns:xlink="http://www.w3.org/1999/xlink" width="78.45368" height="19.25844" viewBox="0,0,78.45368,19.25844"><g transform="translate(-204.86123,-240.23092)"><g data-paper-data="{&quot;isPaintingLayer&quot;:true}" fill-rule="nonzero" stroke="none" stroke-linecap="butt" stroke-linejoin="miter" stroke-miterlimit="10" stroke-dasharray="" stroke-dashoffset="0" style="mix-blend-mode: normal"><g><path d="M204.96292,259.48934v-18.93593h78.22035v2.90922c-0.04638,0.18258 -0.07097,0.37337 -0.07097,0.5697c0,0.19632 0.02459,0.38712 0.07097,0.5697v14.88733z" fill="#714400" stroke-width="0"/><path d="M209.44197,253.29741c0,-0.16507 0.13906,-0.29888 0.3106,-0.29888c0.17154,0 0.3106,0.13381 0.3106,0.29888c0,0.16507 -0.13906,0.29888 -0.3106,0.29888c-0.17154,0 -0.3106,-0.13381 -0.3106,-0.29888z" fill="#553300" stroke-width="0.5"/><path d="M212.99715,256.3583c0,-0.16507 0.13906,-0.29888 0.3106,-0.29888c0.17154,0 0.3106,0.13381 0.3106,0.29888c0,0.16507 -0.13906,0.29888 -0.3106,0.29888c-0.17154,0 -0.3106,-0.13381 -0.3106,-0.29888z" fill="#553300" stroke-width="0.5"/><path d="M218.98481,246.45542c0,-0.16507 0.13906,-0.29888 0.3106,-0.29888c0.17154,0 0.3106,0.13381 0.3106,0.29888c0,0.16507 -0.13906,0.29888 -0.3106,0.29888c-0.17154,0 -0.3106,-0.13381 -0.3106,-0.29888z" fill="#553300" stroke-width="0.5"/><path d="M233.95395,249.33626c0,-0.16507 0.13906,-0.29888 0.3106,-0.29888c0.17154,0 0.3106,0.13381 0.3106,0.29888c0,0.16507 -0.13906,0.29888 -0.3106,0.29888c-0.17154,0 -0.3106,-0.13381 -0.3106,-0.29888z" fill="#553300" stroke-width="0.5"/><path d="M267.26032,252.39715c0,-0.16507 0.13906,-0.29888 0.3106,-0.29888c0.17154,0 0.3106,0.13381 0.3106,0.29888c0,0.16507 -0.13906,0.29888 -0.3106,0.29888c-0.17154,0 -0.3106,-0.13381 -0.3106,-0.29888z" fill="#553300" stroke-width="0.5"/><path d="M261.08556,246.27536c0,-0.16507 0.13906,-0.29888 0.3106,-0.29888c0.17154,0 0.3106,0.13381 0.3106,0.29888c0,0.16507 -0.13906,0.29888 -0.3106,0.29888c-0.17154,0 -0.3106,-0.13381 -0.3106,-0.29888z" fill="#553300" stroke-width="0.5"/><path d="M248.92312,253.83756c0,-0.16507 0.13906,-0.29888 0.3106,-0.29888c0.17154,0 0.3106,0.13381 0.3106,0.29888c0,0.16507 -0.13906,0.29888 -0.3106,0.29888c-0.17154,0 -0.3106,-0.13381 -0.3106,-0.29888z" fill="#553300" stroke-width="0.5"/><path d="M223.66266,250.23652c0,-0.16507 0.13906,-0.29888 0.3106,-0.29888c0.17154,0 0.3106,0.13381 0.3106,0.29888c0,0.16507 -0.13906,0.29888 -0.3106,0.29888c-0.17154,0 -0.3106,-0.13381 -0.3106,-0.29888z" fill="#553300" stroke-width="0.5"/><path d="M247.80043,245.91526c0,-0.16507 0.13906,-0.29888 0.3106,-0.29888c0.17154,0 0.3106,0.13381 0.3106,0.29888c0,0.16507 -0.13906,0.29888 -0.3106,0.29888c-0.17154,0 -0.3106,-0.13381 -0.3106,-0.29888z" fill="#553300" stroke-width="0.5"/><path d="M214.18346,249.69636c0,-0.33013 0.27812,-0.59776 0.62121,-0.59776c0.34308,0 0.62121,0.26763 0.62121,0.59776c0,0.33013 -0.27812,0.59776 -0.62121,0.59776c-0.34308,0 -0.62121,-0.26763 -0.62121,-0.59776z" fill="#553300" stroke-width="0.5"/><path d="M228.21705,255.09793c0,-0.33013 0.27812,-0.59776 0.62121,-0.59776c0.34308,0 0.62121,0.26763 0.62121,0.59776c0,0.33013 -0.27812,0.59776 -0.62121,0.59776c-0.34308,0 -0.62121,-0.26763 -0.62121,-0.59776z" fill="#553300" stroke-width="0.5"/><path d="M228.59127,244.83494c0,-0.33013 0.27812,-0.59776 0.62121,-0.59776c0.34308,0 0.62121,0.26763 0.62121,0.59776c0,0.33013 -0.27812,0.59776 -0.62121,0.59776c-0.34308,0 -0.62121,-0.26763 -0.62121,-0.59776z" fill="#553300" stroke-width="0.5"/><path d="M218.86132,253.83756c0,-0.33013 0.27812,-0.59776 0.62121,-0.59776c0.34308,0 0.62121,0.26763 0.62121,0.59776c0,0.33013 -0.27812,0.59776 -0.62121,0.59776c-0.34308,0 -0.62121,-0.26763 -0.62121,-0.59776z" fill="#553300" stroke-width="0.5"/><path d="M239.878,250.53902c0.62121,0 0.62121,0.59776 0.62121,0.59776l-0.10433,0.69169c-0.12474,0.18005 -0.24949,0.36011 -0.37423,0.54015c0,0 -0.34458,0.49737 -0.86146,0.16579c-0.51688,-0.33158 -0.17229,-0.82895 -0.17229,-0.82895c0.12474,-0.18005 0.24949,-0.36011 0.37423,-0.54016l-0.10433,-0.02853c0,0 0,-0.59776 0.62121,-0.59776z" fill="#553300" stroke-width="0.5"/><path d="M240.94082,246.99557c0,-0.33013 0.27812,-0.59776 0.62121,-0.59776c0.34309,0 0.62121,0.26763 0.62121,0.59776c0,0.33013 -0.27812,0.59776 -0.62121,0.59776c-0.34309,0 -0.62121,-0.26763 -0.62121,-0.59776z" fill="#553300" stroke-width="0.5"/><path d="M250.67076,249.87641c0,-0.33013 0.27812,-0.59776 0.62121,-0.59776c0.34309,0 0.62121,0.26763 0.62121,0.59776c0,0.33013 -0.27812,0.59776 -0.62121,0.59776c-0.34309,0 -0.62121,-0.26763 -0.62121,-0.59776z" fill="#553300" stroke-width="0.5"/><path d="M256.28421,256.17825c0,-0.33013 0.27812,-0.59776 0.62121,-0.59776c0.34308,0 0.62121,0.26763 0.62121,0.59776c0,0.33013 -0.27812,0.59776 -0.62121,0.59776c-0.34308,0 -0.62121,-0.26763 -0.62121,-0.59776z" fill="#553300" stroke-width="0.5"/><path d="M260.21361,247.53573c0,-0.33013 0.27812,-0.59776 0.62121,-0.59776c0.34308,0 0.62121,0.26763 0.62121,0.59776c0,0.33013 -0.27812,0.59776 -0.62121,0.59776c-0.34308,0 -0.62121,-0.26763 -0.62121,-0.59776z" fill="#553300" stroke-width="0.5"/><path d="M267.69818,244.47484c0,-0.33013 0.27812,-0.59776 0.62121,-0.59776c0.34308,0 0.62121,0.26763 0.62121,0.59776c0,0.33013 -0.27812,0.59776 -0.62121,0.59776c-0.34308,0 -0.62121,-0.26763 -0.62121,-0.59776z" fill="#553300" stroke-width="0.5"/><path d="M272.54675,254.00431c0.38807,0.46677 -0.09702,0.84019 -0.09702,0.84019l-0.93557,0.72021c0,0 -0.48508,0.37342 -0.87314,-0.09335c-0.38807,-0.46677 0.09701,-0.84019 0.09701,-0.84019l0.93557,-0.72021c0,0 0.48508,-0.37342 0.87315,0.09335z" fill="#553300" stroke-width="0.5"/><path d="M254.03882,243.57457c0,-0.33013 0.27812,-0.59776 0.62121,-0.59776c0.34309,0 0.62121,0.26763 0.62121,0.59776c0,0.33013 -0.27812,0.59776 -0.62121,0.59776c-0.34309,0 -0.62121,-0.26763 -0.62121,-0.59776z" fill="#553300" stroke-width="0.5"/><path d="M226.72013,248.7961c0,-0.33013 0.27812,-0.59776 0.62121,-0.59776c0.34308,0 0.62121,0.26763 0.62121,0.59776c0,0.33013 -0.27812,0.59776 -0.62121,0.59776c-0.34308,0 -0.62121,-0.26763 -0.62121,-0.59776z" fill="#553300" stroke-width="0.5"/><path d="M214.4342,242.85437c0,-0.4952 0.41718,-0.89664 0.93181,-0.89664c0.51463,0 0.93181,0.40144 0.93181,0.89664c0,0.4952 -0.41719,0.89664 -0.93181,0.89664c-0.51463,0 -0.93181,-0.40144 -0.93181,-0.89664z" fill="#553300" stroke-width="0.5"/><path d="M222.85435,246.81552c0,-0.4952 0.41718,-0.89664 0.93181,-0.89664c0.51463,0 0.93181,0.40144 0.93181,0.89664c0,0.4952 -0.41718,0.89664 -0.93181,0.89664c-0.51463,0 -0.93181,-0.40144 -0.93181,-0.89664z" fill="#553300" stroke-width="0.5"/><path d="M237.8235,243.03442c0,-0.4952 0.41718,-0.89664 0.93181,-0.89664c0.51463,0 0.93181,0.40144 0.93181,0.89664c0,0.4952 -0.41719,0.89664 -0.93181,0.89664c-0.51463,0 -0.93181,-0.40144 -0.93181,-0.89664z" fill="#553300" stroke-width="0.5"/><path d="M240.06888,256.7184c0,-0.4952 0.41718,-0.89664 0.93181,-0.89664c0.51463,0 0.93181,0.40144 0.93181,0.89664c0,0.4952 -0.41719,0.89664 -0.93181,0.89664c-0.51463,0 -0.93181,-0.40144 -0.93181,-0.89664z" fill="#553300" stroke-width="0.5"/><path d="M256.90917,251.67694c0,-0.4952 0.41719,-0.89664 0.93181,-0.89664c0.51463,0 0.93181,0.40144 0.93181,0.89664c0,0.4952 -0.41718,0.89664 -0.93181,0.89664c-0.51463,0 -0.93181,-0.40144 -0.93181,-0.89664z" fill="#553300" stroke-width="0.5"/><path d="M263.6453,254.91788c0,-0.4952 0.41718,-0.89664 0.93181,-0.89664c0.51463,0 0.93181,0.40144 0.93181,0.89664c0,0.4952 -0.41718,0.89664 -0.93181,0.89664c-0.51463,0 -0.93181,-0.40144 -0.93181,-0.89664z" fill="#553300" stroke-width="0.5"/><path d="M267.38757,248.7961c0,-0.4952 0.41719,-0.89664 0.93181,-0.89664c0.51463,0 0.93181,0.40144 0.93181,0.89664c0,0.4952 -0.41718,0.89664 -0.93181,0.89664c-0.51463,0 -0.93181,-0.40144 -0.93181,-0.89664z" fill="#553300" stroke-width="0.5"/><path d="M244.1854,243.39453c0,-0.4952 0.41718,-0.89664 0.93181,-0.89664c0.51463,0 0.93181,0.40144 0.93181,0.89664c0,0.4952 -0.41719,0.89664 -0.93181,0.89664c-0.51463,0 -0.93181,-0.40144 -0.93181,-0.89664z" fill="#553300" stroke-width="0.5"/><path d="M204.88761,245.81255v-5.58163h78.42731v2.85418c-0.13037,0.29045 -0.20261,0.61072 -0.20261,0.94722c0,0.3365 0.07224,0.65676 0.20261,0.94722v0.83301z" fill="#ffffff" stroke-width="0"/><path d="M212.34582,245.49173c0,0.7458 -1.67548,1.35039 -3.74229,1.35039c-2.06681,0 -3.74229,-0.60459 -3.74229,-1.35039c0,-0.7458 1.67548,-1.35039 3.74229,-1.35039c2.06681,0 3.74229,0.60459 3.74229,1.35039z" fill="#ffffff" stroke-width="0"/><path d="M219.67229,245.45475c0,0.7458 -1.67548,1.35039 -3.74229,1.35039c-2.06681,0 -3.74229,-0.60459 -3.74229,-1.35039c0,-0.7458 1.67548,-1.35039 3.74229,-1.35039c2.06681,0 3.74229,0.60459 3.74229,1.35039z" fill="#ffffff" stroke-width="0"/><path d="M226.03811,245.52047c0,0.7458 -1.67548,1.35039 -3.74229,1.35039c-2.06681,0 -3.74229,-0.60459 -3.74229,-1.35039c0,-0.7458 1.67548,-1.35039 3.74229,-1.35039c2.06681,0 3.74229,0.60459 3.74229,1.35039z" fill="#ffffff" stroke-width="0"/><path d="M233.15111,245.89432c0,0.7458 -1.67548,1.35039 -3.74229,1.35039c-2.06681,0 -3.74229,-0.60459 -3.74229,-1.35039c0,-0.7458 1.67548,-1.35039 3.74229,-1.35039c2.06681,0 3.74229,0.60459 3.74229,1.35039z" fill="#ffffff" stroke-width="0"/><path d="M246.0166,245.82745c0,0.7458 -1.67548,1.35039 -3.74229,1.35039c-2.06681,0 -3.74229,-0.60459 -3.74229,-1.35039c0,-0.7458 1.67548,-1.35039 3.74229,-1.35039c2.06681,0 3.74229,0.60459 3.74229,1.35039z" fill="#ffffff" stroke-width="0"/><path d="M239.55594,245.6564c0,0.7458 -1.67548,1.35039 -3.74229,1.35039c-2.06681,0 -3.74229,-0.60459 -3.74229,-1.35039c0,-0.7458 1.67548,-1.35039 3.74229,-1.35039c2.06681,0 3.74229,0.60459 3.74229,1.35039z" fill="#ffffff" stroke-width="0"/><path d="M251.95547,245.89318c0,0.7458 -1.67548,1.35039 -3.74229,1.35039c-2.06681,0 -3.74229,-0.60459 -3.74229,-1.35039c0,-0.7458 1.67548,-1.35039 3.74229,-1.35039c2.06681,0 3.74229,0.60459 3.74229,1.35039z" fill="#ffffff" stroke-width="0"/><path d="M258.53477,245.75347c0,0.7458 -1.67548,1.35039 -3.74229,1.35039c-2.06681,0 -3.74229,-0.60459 -3.74229,-1.35039c0,-0.7458 1.67548,-1.35039 3.74229,-1.35039c2.06681,0 3.74229,0.60459 3.74229,1.35039z" fill="#ffffff" stroke-width="0"/><path d="M264.68713,245.9219c0,0.7458 -1.67548,1.35039 -3.74229,1.35039c-2.06681,0 -3.74229,-0.60459 -3.74229,-1.35039c0,-0.7458 1.67548,-1.35039 3.74229,-1.35039c2.06681,0 3.74229,0.60459 3.74229,1.35039z" fill="#ffffff" stroke-width="0"/><path d="M271.58664,245.67949c0,0.7458 -1.67548,1.35039 -3.74229,1.35039c-2.06681,0 -3.74229,-0.60459 -3.74229,-1.35039c0,-0.7458 1.67548,-1.35039 3.74229,-1.35039c2.06681,0 3.74229,0.60459 3.74229,1.35039z" fill="#ffffff" stroke-width="0"/><path d="M278.27269,245.64251c0,0.7458 -1.67548,1.35039 -3.74229,1.35039c-2.06681,0 -3.74229,-0.60459 -3.74229,-1.35039c0,-0.7458 1.67548,-1.35039 3.74229,-1.35039c2.06681,0 3.74229,0.60459 3.74229,1.35039z" fill="#ffffff" stroke-width="0"/></g></g></g></svg>